<?xml version="1.0" encoding="utf-8" standalone="no"?>
<!DOCTYPE svg PUBLIC "-//W3C//DTD SVG 1.1//EN"
  "http://www.w3.org/Graphics/SVG/1.1/DTD/svg11.dtd">
<svg xmlns:xlink="http://www.w3.org/1999/xlink" width="360pt" height="252pt" viewBox="0 0 360 252" xmlns="http://www.w3.org/2000/svg" version="1.1">
 <metadata>
  <rdf:RDF xmlns:dc="http://purl.org/dc/elements/1.1/" xmlns:cc="http://creativecommons.org/ns#" xmlns:rdf="http://www.w3.org/1999/02/22-rdf-syntax-ns#">
   <cc:Work>
    <dc:type rdf:resource="http://purl.org/dc/dcmitype/StillImage"/>
    <dc:date>2022-12-01T12:48:08.777737</dc:date>
    <dc:format>image/svg+xml</dc:format>
    <dc:creator>
     <cc:Agent>
      <dc:title>Matplotlib v3.5.1, https://matplotlib.org/</dc:title>
     </cc:Agent>
    </dc:creator>
   </cc:Work>
  </rdf:RDF>
 </metadata>
 <defs>
  <style type="text/css">*{stroke-linejoin: round; stroke-linecap: butt}</style>
 </defs>
 <g id="figure_1">
  <g id="patch_1">
   <path d="M 0 252 
L 360 252 
L 360 0 
L 0 0 
L 0 252 
z
" style="fill: none"/>
  </g>
  <g id="axes_1">
   <g id="patch_2">
    <path d="M 45 224.28 
L 324 224.28 
L 324 30.24 
L 45 30.24 
z
" style="fill: #dce0e8"/>
   </g>
   <g id="matplotlib.axis_1">
    <g id="xtick_1">
     <g id="line2d_1">
      <defs>
       <path id="m04c9124068" d="M 0 0 
L 0 3.5 
" style="stroke: #4c4f69; stroke-width: 0.8"/>
      </defs>
      <g>
       <use xlink:href="#m04c9124068" x="56.310811" y="224.28" style="fill: #4c4f69; stroke: #4c4f69; stroke-width: 0.8"/>
      </g>
     </g>
     <g id="text_1">
      <!-- $\mathdefault{−80}$ -->
      <g style="fill: #4c4f69" transform="translate(47.455104 238.198498)scale(0.1 -0.1)">
       <defs>
        <path id="CMSY10-0" d="M 4218 1472 
C 4326 1472 4442 1472 4442 1600 
C 4442 1728 4326 1728 4218 1728 
L 755 1728 
C 646 1728 531 1728 531 1600 
C 531 1472 646 1472 755 1472 
L 4218 1472 
z
" transform="scale(0.015625)"/>
        <path id="CMR17-38" d="M 1741 2289 
C 2144 2494 2554 2803 2554 3298 
C 2554 3884 1990 4224 1472 4224 
C 890 4224 378 3800 378 3215 
C 378 3054 416 2777 666 2533 
C 730 2469 998 2276 1171 2154 
C 883 2006 211 1652 211 945 
C 211 282 838 -128 1459 -128 
C 2144 -128 2720 366 2720 1022 
C 2720 1607 2330 1877 2074 2051 
L 1741 2289 
z
M 902 2855 
C 851 2887 595 3086 595 3388 
C 595 3781 998 4076 1459 4076 
C 1965 4076 2336 3716 2336 3298 
C 2336 2700 1670 2359 1638 2359 
C 1632 2359 1626 2359 1574 2398 
L 902 2855 
z
M 2080 1536 
C 2176 1466 2483 1253 2483 861 
C 2483 385 2010 25 1472 25 
C 890 25 448 443 448 951 
C 448 1459 838 1884 1280 2083 
L 2080 1536 
z
" transform="scale(0.015625)"/>
        <path id="CMR17-30" d="M 2688 2038 
C 2688 2430 2682 3099 2413 3613 
C 2176 4063 1798 4224 1466 4224 
C 1158 4224 768 4082 525 3620 
C 269 3137 243 2539 243 2038 
C 243 1671 250 1112 448 623 
C 723 -39 1216 -128 1466 -128 
C 1760 -128 2208 -7 2470 604 
C 2662 1048 2688 1568 2688 2038 
z
M 1466 -26 
C 1056 -26 813 328 723 816 
C 653 1196 653 1749 653 2109 
C 653 2604 653 3015 736 3407 
C 858 3954 1216 4121 1466 4121 
C 1728 4121 2067 3947 2189 3420 
C 2272 3054 2278 2623 2278 2109 
C 2278 1691 2278 1176 2202 797 
C 2067 96 1690 -26 1466 -26 
z
" transform="scale(0.015625)"/>
       </defs>
       <use xlink:href="#CMSY10-0" transform="scale(0.996264)"/>
       <use xlink:href="#CMR17-38" transform="translate(77.487468 0)scale(0.996264)"/>
       <use xlink:href="#CMR17-30" transform="translate(123.177945 0)scale(0.996264)"/>
      </g>
     </g>
    </g>
    <g id="xtick_2">
     <g id="line2d_2">
      <g>
       <use xlink:href="#m04c9124068" x="94.013514" y="224.28" style="fill: #4c4f69; stroke: #4c4f69; stroke-width: 0.8"/>
      </g>
     </g>
     <g id="text_2">
      <!-- $\mathdefault{−60}$ -->
      <g style="fill: #4c4f69" transform="translate(85.157806 238.198498)scale(0.1 -0.1)">
       <defs>
        <path id="CMR17-36" d="M 678 2198 
C 678 3712 1395 4076 1811 4076 
C 1946 4076 2272 4049 2400 3782 
C 2298 3782 2106 3782 2106 3558 
C 2106 3385 2246 3328 2336 3328 
C 2394 3328 2566 3353 2566 3571 
C 2566 3987 2246 4224 1805 4224 
C 1043 4224 243 3411 243 2011 
C 243 257 966 -128 1478 -128 
C 2099 -128 2688 431 2688 1295 
C 2688 2101 2170 2688 1517 2688 
C 1126 2688 838 2430 678 1979 
L 678 2198 
z
M 1478 25 
C 691 25 691 1212 691 1450 
C 691 1914 909 2585 1504 2585 
C 1613 2585 1926 2585 2138 2140 
C 2253 1889 2253 1624 2253 1302 
C 2253 954 2253 696 2118 438 
C 1978 173 1773 25 1478 25 
z
" transform="scale(0.015625)"/>
       </defs>
       <use xlink:href="#CMSY10-0" transform="scale(0.996264)"/>
       <use xlink:href="#CMR17-36" transform="translate(77.487468 0)scale(0.996264)"/>
       <use xlink:href="#CMR17-30" transform="translate(123.177945 0)scale(0.996264)"/>
      </g>
     </g>
    </g>
    <g id="xtick_3">
     <g id="line2d_3">
      <g>
       <use xlink:href="#m04c9124068" x="131.716216" y="224.28" style="fill: #4c4f69; stroke: #4c4f69; stroke-width: 0.8"/>
      </g>
     </g>
     <g id="text_3">
      <!-- $\mathdefault{−40}$ -->
      <g style="fill: #4c4f69" transform="translate(122.860509 238.198498)scale(0.1 -0.1)">
       <defs>
        <path id="CMR17-34" d="M 2150 4147 
C 2150 4281 2144 4288 2029 4288 
L 128 1254 
L 128 1088 
L 1779 1088 
L 1779 460 
C 1779 230 1766 166 1318 166 
L 1197 166 
L 1197 0 
C 1402 12 1747 12 1965 12 
C 2182 12 2528 12 2733 0 
L 2733 166 
L 2611 166 
C 2163 166 2150 230 2150 460 
L 2150 1088 
L 2803 1088 
L 2803 1254 
L 2150 1254 
L 2150 4147 
z
M 1798 3723 
L 1798 1254 
L 256 1254 
L 1798 3723 
z
" transform="scale(0.015625)"/>
       </defs>
       <use xlink:href="#CMSY10-0" transform="scale(0.996264)"/>
       <use xlink:href="#CMR17-34" transform="translate(77.487468 0)scale(0.996264)"/>
       <use xlink:href="#CMR17-30" transform="translate(123.177945 0)scale(0.996264)"/>
      </g>
     </g>
    </g>
    <g id="xtick_4">
     <g id="line2d_4">
      <g>
       <use xlink:href="#m04c9124068" x="169.418919" y="224.28" style="fill: #4c4f69; stroke: #4c4f69; stroke-width: 0.8"/>
      </g>
     </g>
     <g id="text_4">
      <!-- $\mathdefault{−20}$ -->
      <g style="fill: #4c4f69" transform="translate(160.563212 238.198498)scale(0.1 -0.1)">
       <defs>
        <path id="CMR17-32" d="M 2669 990 
L 2554 990 
C 2490 537 2438 460 2413 422 
C 2381 371 1920 371 1830 371 
L 602 371 
C 832 620 1280 1073 1824 1596 
C 2214 1966 2669 2400 2669 3033 
C 2669 3788 2067 4224 1395 4224 
C 691 4224 262 3603 262 3027 
C 262 2777 448 2745 525 2745 
C 589 2745 781 2783 781 3007 
C 781 3206 614 3264 525 3264 
C 486 3264 448 3257 422 3244 
C 544 3788 915 4057 1306 4057 
C 1862 4057 2227 3616 2227 3033 
C 2227 2477 1901 1998 1536 1583 
L 262 147 
L 262 0 
L 2515 0 
L 2669 990 
z
" transform="scale(0.015625)"/>
       </defs>
       <use xlink:href="#CMSY10-0" transform="scale(0.996264)"/>
       <use xlink:href="#CMR17-32" transform="translate(77.487468 0)scale(0.996264)"/>
       <use xlink:href="#CMR17-30" transform="translate(123.177945 0)scale(0.996264)"/>
      </g>
     </g>
    </g>
    <g id="xtick_5">
     <g id="line2d_5">
      <g>
       <use xlink:href="#m04c9124068" x="207.121622" y="224.28" style="fill: #4c4f69; stroke: #4c4f69; stroke-width: 0.8"/>
      </g>
     </g>
     <g id="text_5">
      <!-- $\mathdefault{0}$ -->
      <g style="fill: #4c4f69" transform="translate(204.630954 238.198498)scale(0.1 -0.1)">
       <use xlink:href="#CMR17-30" transform="scale(0.996264)"/>
      </g>
     </g>
    </g>
    <g id="xtick_6">
     <g id="line2d_6">
      <g>
       <use xlink:href="#m04c9124068" x="244.824324" y="224.28" style="fill: #4c4f69; stroke: #4c4f69; stroke-width: 0.8"/>
      </g>
     </g>
     <g id="text_6">
      <!-- $\mathdefault{20}$ -->
      <g style="fill: #4c4f69" transform="translate(239.842989 238.198498)scale(0.1 -0.1)">
       <use xlink:href="#CMR17-32" transform="scale(0.996264)"/>
       <use xlink:href="#CMR17-30" transform="translate(45.690477 0)scale(0.996264)"/>
      </g>
     </g>
    </g>
    <g id="xtick_7">
     <g id="line2d_7">
      <g>
       <use xlink:href="#m04c9124068" x="282.527027" y="224.28" style="fill: #4c4f69; stroke: #4c4f69; stroke-width: 0.8"/>
      </g>
     </g>
     <g id="text_7">
      <!-- $\mathdefault{40}$ -->
      <g style="fill: #4c4f69" transform="translate(277.545692 238.198498)scale(0.1 -0.1)">
       <use xlink:href="#CMR17-34" transform="scale(0.996264)"/>
       <use xlink:href="#CMR17-30" transform="translate(45.690477 0)scale(0.996264)"/>
      </g>
     </g>
    </g>
    <g id="xtick_8">
     <g id="line2d_8">
      <g>
       <use xlink:href="#m04c9124068" x="320.22973" y="224.28" style="fill: #4c4f69; stroke: #4c4f69; stroke-width: 0.8"/>
      </g>
     </g>
     <g id="text_8">
      <!-- $\mathdefault{60}$ -->
      <g style="fill: #4c4f69" transform="translate(315.248394 238.198498)scale(0.1 -0.1)">
       <use xlink:href="#CMR17-36" transform="scale(0.996264)"/>
       <use xlink:href="#CMR17-30" transform="translate(45.690477 0)scale(0.996264)"/>
      </g>
     </g>
    </g>
   </g>
   <g id="matplotlib.axis_2">
    <g id="ytick_1">
     <g id="line2d_9">
      <defs>
       <path id="mac014f31d9" d="M 0 0 
L -3.5 0 
" style="stroke: #4c4f69; stroke-width: 0.8"/>
      </defs>
      <g>
       <use xlink:href="#mac014f31d9" x="45" y="205.701702" style="fill: #4c4f69; stroke: #4c4f69; stroke-width: 0.8"/>
      </g>
     </g>
     <g id="text_9">
      <!-- $\mathdefault{−75}$ -->
      <g style="fill: #4c4f69" transform="translate(20.288586 209.160951)scale(0.1 -0.1)">
       <defs>
        <path id="CMR17-37" d="M 2886 3955 
L 2886 4096 
L 1382 4096 
C 634 4096 621 4166 595 4288 
L 480 4288 
L 294 3104 
L 410 3104 
C 429 3226 474 3552 550 3673 
C 589 3724 1062 3724 1171 3724 
L 2579 3724 
L 1869 2670 
C 1395 1961 1069 1003 1069 166 
C 1069 89 1069 -128 1299 -128 
C 1530 -128 1530 89 1530 172 
L 1530 466 
C 1530 1514 1709 2204 2003 2644 
L 2886 3955 
z
" transform="scale(0.015625)"/>
        <path id="CMR17-35" d="M 730 3750 
C 794 3724 1056 3641 1325 3641 
C 1920 3641 2246 3961 2432 4140 
C 2432 4191 2432 4224 2394 4224 
C 2387 4224 2374 4224 2323 4198 
C 2099 4102 1837 4032 1517 4032 
C 1325 4032 1037 4055 723 4191 
C 653 4224 640 4224 634 4224 
C 602 4224 595 4217 595 4090 
L 595 2231 
C 595 2113 595 2080 659 2080 
C 691 2080 704 2093 736 2139 
C 941 2435 1222 2560 1542 2560 
C 1766 2560 2246 2415 2246 1293 
C 2246 1087 2246 716 2054 422 
C 1894 159 1645 25 1370 25 
C 947 25 518 319 403 812 
C 429 806 480 793 506 793 
C 589 793 749 838 749 1036 
C 749 1209 627 1280 506 1280 
C 358 1280 262 1190 262 1011 
C 262 454 704 -128 1382 -128 
C 2042 -128 2669 441 2669 1267 
C 2669 2054 2170 2662 1549 2662 
C 1222 2662 947 2540 730 2304 
L 730 3750 
z
" transform="scale(0.015625)"/>
       </defs>
       <use xlink:href="#CMSY10-0" transform="scale(0.996264)"/>
       <use xlink:href="#CMR17-37" transform="translate(77.487468 0)scale(0.996264)"/>
       <use xlink:href="#CMR17-35" transform="translate(123.177945 0)scale(0.996264)"/>
      </g>
     </g>
    </g>
    <g id="ytick_2">
     <g id="line2d_10">
      <g>
       <use xlink:href="#mac014f31d9" x="45" y="179.898511" style="fill: #4c4f69; stroke: #4c4f69; stroke-width: 0.8"/>
      </g>
     </g>
     <g id="text_10">
      <!-- $\mathdefault{−50}$ -->
      <g style="fill: #4c4f69" transform="translate(20.288586 183.35776)scale(0.1 -0.1)">
       <use xlink:href="#CMSY10-0" transform="scale(0.996264)"/>
       <use xlink:href="#CMR17-35" transform="translate(77.487468 0)scale(0.996264)"/>
       <use xlink:href="#CMR17-30" transform="translate(123.177945 0)scale(0.996264)"/>
      </g>
     </g>
    </g>
    <g id="ytick_3">
     <g id="line2d_11">
      <g>
       <use xlink:href="#mac014f31d9" x="45" y="154.095319" style="fill: #4c4f69; stroke: #4c4f69; stroke-width: 0.8"/>
      </g>
     </g>
     <g id="text_11">
      <!-- $\mathdefault{−25}$ -->
      <g style="fill: #4c4f69" transform="translate(20.288586 157.554568)scale(0.1 -0.1)">
       <use xlink:href="#CMSY10-0" transform="scale(0.996264)"/>
       <use xlink:href="#CMR17-32" transform="translate(77.487468 0)scale(0.996264)"/>
       <use xlink:href="#CMR17-35" transform="translate(123.177945 0)scale(0.996264)"/>
      </g>
     </g>
    </g>
    <g id="ytick_4">
     <g id="line2d_12">
      <g>
       <use xlink:href="#mac014f31d9" x="45" y="128.292128" style="fill: #4c4f69; stroke: #4c4f69; stroke-width: 0.8"/>
      </g>
     </g>
     <g id="text_12">
      <!-- $\mathdefault{0}$ -->
      <g style="fill: #4c4f69" transform="translate(33.018665 131.751377)scale(0.1 -0.1)">
       <use xlink:href="#CMR17-30" transform="scale(0.996264)"/>
      </g>
     </g>
    </g>
    <g id="ytick_5">
     <g id="line2d_13">
      <g>
       <use xlink:href="#mac014f31d9" x="45" y="102.488936" style="fill: #4c4f69; stroke: #4c4f69; stroke-width: 0.8"/>
      </g>
     </g>
     <g id="text_13">
      <!-- $\mathdefault{25}$ -->
      <g style="fill: #4c4f69" transform="translate(28.037329 105.948185)scale(0.1 -0.1)">
       <use xlink:href="#CMR17-32" transform="scale(0.996264)"/>
       <use xlink:href="#CMR17-35" transform="translate(45.690477 0)scale(0.996264)"/>
      </g>
     </g>
    </g>
    <g id="ytick_6">
     <g id="line2d_14">
      <g>
       <use xlink:href="#mac014f31d9" x="45" y="76.685745" style="fill: #4c4f69; stroke: #4c4f69; stroke-width: 0.8"/>
      </g>
     </g>
     <g id="text_14">
      <!-- $\mathdefault{50}$ -->
      <g style="fill: #4c4f69" transform="translate(28.037329 80.144994)scale(0.1 -0.1)">
       <use xlink:href="#CMR17-35" transform="scale(0.996264)"/>
       <use xlink:href="#CMR17-30" transform="translate(45.690477 0)scale(0.996264)"/>
      </g>
     </g>
    </g>
    <g id="ytick_7">
     <g id="line2d_15">
      <g>
       <use xlink:href="#mac014f31d9" x="45" y="50.882553" style="fill: #4c4f69; stroke: #4c4f69; stroke-width: 0.8"/>
      </g>
     </g>
     <g id="text_15">
      <!-- $\mathdefault{75}$ -->
      <g style="fill: #4c4f69" transform="translate(28.037329 54.341802)scale(0.1 -0.1)">
       <use xlink:href="#CMR17-37" transform="scale(0.996264)"/>
       <use xlink:href="#CMR17-35" transform="translate(45.690477 0)scale(0.996264)"/>
      </g>
     </g>
    </g>
   </g>
   <g id="line2d_16">
    <path d="M 205.236486 128.292128 
L 205.236486 125.195745 
L 201.466216 125.195745 
L 201.466216 124.163617 
L 192.040541 124.163617 
L 192.040541 126.227872 
L 188.27027 126.227872 
L 190.155405 126.227872 
L 190.155405 125.195745 
L 190.155405 126.227872 
L 188.27027 126.227872 
L 190.155405 126.227872 
L 190.155405 127.26 
L 188.27027 127.26 
L 188.27027 128.292128 
L 190.155405 128.292128 
L 188.27027 128.292128 
L 188.27027 126.227872 
L 188.27027 128.292128 
L 186.385135 128.292128 
L 186.385135 129.324255 
L 186.385135 128.292128 
L 192.040541 128.292128 
L 192.040541 126.227872 
L 190.155405 126.227872 
L 192.040541 126.227872 
L 192.040541 124.163617 
L 190.155405 124.163617 
L 190.155405 125.195745 
L 192.040541 125.195745 
L 192.040541 124.163617 
L 190.155405 124.163617 
L 190.155405 124.163617 
L 190.155405 126.227872 
L 188.27027 126.227872 
L 188.27027 126.227872 
L 188.27027 127.26 
L 186.385135 127.26 
L 190.155405 127.26 
L 188.27027 127.26 
L 188.27027 126.227872 
L 184.5 126.227872 
L 184.5 125.195745 
L 184.5 126.227872 
L 182.614865 126.227872 
L 184.5 126.227872 
L 184.5 124.163617 
L 184.5 125.195745 
L 180.72973 125.195745 
L 180.72973 126.227872 
L 182.614865 126.227872 
L 178.844595 126.227872 
L 178.844595 127.26 
L 178.844595 124.163617 
L 180.72973 124.163617 
L 180.72973 125.195745 
L 178.844595 125.195745 
L 180.72973 125.195745 
L 180.72973 124.163617 
L 169.418919 124.163617 
L 169.418919 123.131489 
L 169.418919 125.195745 
L 167.533784 125.195745 
L 167.533784 124.163617 
L 165.648649 124.163617 
L 169.418919 124.163617 
L 169.418919 126.227872 
L 169.418919 123.131489 
L 169.418919 123.131489 
L 171.304054 123.131489 
L 171.304054 122.099362 
L 171.304054 123.131489 
L 169.418919 123.131489 
L 169.418919 124.163617 
L 169.418919 122.099362 
L 161.878378 122.099362 
L 161.878378 121.067234 
L 163.763514 121.067234 
L 163.763514 121.067234 
L 163.763514 122.099362 
L 158.108108 122.099362 
L 158.108108 120.035106 
L 156.222973 120.035106 
L 156.222973 119.002979 
L 159.993243 119.002979 
L 158.108108 119.002979 
L 158.108108 120.035106 
L 159.993243 120.035106 
L 159.993243 121.067234 
L 158.108108 121.067234 
L 158.108108 119.002979 
L 161.878378 119.002979 
L 161.878378 119.002979 
L 161.878378 117.970851 
L 158.108108 117.970851 
L 158.108108 116.938723 
L 152.452703 116.938723 
L 154.337838 116.938723 
L 154.337838 117.970851 
L 150.567568 117.970851 
L 150.567568 116.938723 
L 148.682432 116.938723 
L 150.567568 116.938723 
L 150.567568 115.906596 
L 148.682432 115.906596 
L 148.682432 116.938723 
L 152.452703 116.938723 
L 152.452703 117.970851 
L 150.567568 117.970851 
L 150.567568 116.938723 
L 152.452703 116.938723 
L 152.452703 119.002979 
L 152.452703 117.970851 
L 146.797297 117.970851 
L 146.797297 117.970851 
L 146.797297 119.002979 
L 146.797297 116.938723 
L 146.797297 117.970851 
L 144.912162 117.970851 
L 144.912162 116.938723 
L 146.797297 116.938723 
L 146.797297 117.970851 
L 144.912162 117.970851 
L 144.912162 116.938723 
L 144.912162 117.970851 
L 146.797297 117.970851 
L 139.256757 117.970851 
L 139.256757 116.938723 
L 137.371622 116.938723 
L 137.371622 116.938723 
L 137.371622 119.002979 
L 135.486486 119.002979 
L 135.486486 120.035106 
L 129.831081 120.035106 
L 137.371622 120.035106 
L 135.486486 120.035106 
L 135.486486 122.099362 
L 135.486486 122.099362 
L 137.371622 122.099362 
L 137.371622 122.099362 
L 137.371622 123.131489 
L 137.371622 123.131489 
L 135.486486 123.131489 
L 135.486486 122.099362 
L 131.716216 122.099362 
L 131.716216 117.970851 
L 133.601351 117.970851 
L 131.716216 117.970851 
L 131.716216 119.002979 
L 129.831081 119.002979 
L 131.716216 119.002979 
L 131.716216 117.970851 
L 127.945946 117.970851 
L 127.945946 115.906596 
L 131.716216 115.906596 
L 131.716216 116.938723 
L 129.831081 116.938723 
L 129.831081 117.970851 
L 122.290541 117.970851 
L 122.290541 122.099362 
L 124.175676 122.099362 
L 124.175676 122.099362 
L 124.175676 121.067234 
L 126.060811 121.067234 
L 126.060811 120.035106 
L 126.060811 121.067234 
L 127.945946 121.067234 
L 122.290541 121.067234 
L 122.290541 120.035106 
L 124.175676 120.035106 
L 124.175676 121.067234 
L 114.75 121.067234 
L 114.75 120.035106 
L 112.864865 120.035106 
L 112.864865 122.099362 
L 110.97973 122.099362 
L 110.97973 123.131489 
L 109.094595 123.131489 
L 109.094595 122.099362 
L 112.864865 122.099362 
L 110.97973 122.099362 
L 110.97973 123.131489 
L 112.864865 123.131489 
L 112.864865 124.163617 
L 112.864865 124.163617 
L 114.75 124.163617 
L 110.97973 124.163617 
L 112.864865 124.163617 
L 112.864865 123.131489 
L 110.97973 123.131489 
L 110.97973 124.163617 
L 110.97973 123.131489 
L 116.635135 123.131489 
L 116.635135 117.970851 
L 114.75 117.970851 
L 114.75 120.035106 
L 118.52027 120.035106 
L 118.52027 120.035106 
L 118.52027 121.067234 
L 112.864865 121.067234 
L 112.864865 122.099362 
L 118.52027 122.099362 
L 118.52027 121.067234 
L 124.175676 121.067234 
L 124.175676 120.035106 
L 122.290541 120.035106 
L 122.290541 120.035106 
L 122.290541 119.002979 
L 120.405405 119.002979 
L 122.290541 119.002979 
L 122.290541 123.131489 
L 122.290541 122.099362 
L 116.635135 122.099362 
L 116.635135 121.067234 
L 116.635135 122.099362 
L 112.864865 122.099362 
L 112.864865 121.067234 
L 112.864865 122.099362 
L 114.75 122.099362 
L 114.75 121.067234 
L 110.97973 121.067234 
L 110.97973 120.035106 
L 107.209459 120.035106 
L 109.094595 120.035106 
L 109.094595 121.067234 
L 109.094595 120.035106 
L 105.324324 120.035106 
L 107.209459 120.035106 
L 107.209459 119.002979 
L 107.209459 119.002979 
L 105.324324 119.002979 
L 105.324324 117.970851 
L 97.783784 117.970851 
L 99.668919 117.970851 
L 99.668919 116.938723 
L 99.668919 119.002979 
L 95.898649 119.002979 
L 95.898649 120.035106 
L 97.783784 120.035106 
L 97.783784 119.002979 
L 97.783784 120.035106 
L 95.898649 120.035106 
L 95.898649 119.002979 
L 94.013514 119.002979 
L 94.013514 117.970851 
L 94.013514 119.002979 
L 95.898649 119.002979 
L 94.013514 119.002979 
L 94.013514 122.099362 
L 92.128378 122.099362 
L 95.898649 122.099362 
L 94.013514 122.099362 
L 94.013514 121.067234 
L 95.898649 121.067234 
L 95.898649 120.035106 
L 92.128378 120.035106 
L 92.128378 122.099362 
L 94.013514 122.099362 
L 94.013514 123.131489 
L 92.128378 123.131489 
L 92.128378 124.163617 
L 92.128378 123.131489 
L 90.243243 123.131489 
L 90.243243 124.163617 
L 88.358108 124.163617 
L 88.358108 123.131489 
L 90.243243 123.131489 
L 90.243243 124.163617 
L 86.472973 124.163617 
L 86.472973 125.195745 
L 80.817568 125.195745 
L 80.817568 126.227872 
L 77.047297 126.227872 
L 78.932432 126.227872 
L 78.932432 127.26 
L 77.047297 127.26 
L 77.047297 129.324255 
L 77.047297 128.292128 
L 73.277027 128.292128 
L 73.277027 129.324255 
L 75.162162 129.324255 
L 75.162162 126.227872 
L 77.047297 126.227872 
L 77.047297 126.227872 
L 77.047297 125.195745 
L 77.047297 126.227872 
L 75.162162 126.227872 
L 75.162162 125.195745 
L 77.047297 125.195745 
L 77.047297 123.131489 
L 77.047297 124.163617 
L 73.277027 124.163617 
L 73.277027 124.163617 
L 73.277027 123.131489 
L 71.391892 123.131489 
L 75.162162 123.131489 
L 75.162162 122.099362 
L 73.277027 122.099362 
L 73.277027 121.067234 
L 75.162162 121.067234 
L 75.162162 122.099362 
L 75.162162 121.067234 
L 77.047297 121.067234 
L 77.047297 122.099362 
L 73.277027 122.099362 
L 75.162162 122.099362 
L 75.162162 123.131489 
L 73.277027 123.131489 
L 73.277027 124.163617 
L 69.506757 124.163617 
L 69.506757 123.131489 
L 73.277027 123.131489 
L 73.277027 122.099362 
L 67.621622 122.099362 
L 67.621622 123.131489 
L 67.621622 122.099362 
L 65.736486 122.099362 
L 65.736486 121.067234 
L 63.851351 121.067234 
L 65.736486 121.067234 
L 65.736486 120.035106 
L 63.851351 120.035106 
L 63.851351 121.067234 
L 67.621622 121.067234 
L 67.621622 121.067234 
L 67.621622 122.099362 
L 69.506757 122.099362 
L 69.506757 123.131489 
L 69.506757 123.131489 
" clip-path="url(#p6ec2590d4e)" style="fill: none; stroke: #dd7878; stroke-width: 0.75; stroke-linecap: square"/>
   </g>
   <g id="line2d_17">
    <path d="M 207.121622 127.26 
L 209.006757 127.26 
L 205.236486 127.26 
L 207.121622 127.26 
L 207.121622 126.227872 
L 209.006757 126.227872 
L 209.006757 124.163617 
L 212.777027 124.163617 
L 210.891892 124.163617 
L 210.891892 123.131489 
L 212.777027 123.131489 
L 212.777027 124.163617 
L 210.891892 124.163617 
L 214.662162 124.163617 
L 210.891892 124.163617 
L 210.891892 122.099362 
L 210.891892 123.131489 
L 212.777027 123.131489 
L 210.891892 123.131489 
L 210.891892 122.099362 
L 207.121622 122.099362 
L 207.121622 121.067234 
L 209.006757 121.067234 
L 207.121622 121.067234 
L 207.121622 120.035106 
L 205.236486 120.035106 
L 207.121622 120.035106 
L 207.121622 119.002979 
L 207.121622 120.035106 
L 203.351351 120.035106 
L 203.351351 121.067234 
L 201.466216 121.067234 
L 201.466216 123.131489 
L 201.466216 122.099362 
L 203.351351 122.099362 
L 195.810811 122.099362 
L 195.810811 125.195745 
L 199.581081 125.195745 
L 199.581081 126.227872 
L 195.810811 126.227872 
L 195.810811 127.26 
L 192.040541 127.26 
L 192.040541 125.195745 
L 184.5 125.195745 
L 184.5 124.163617 
L 180.72973 124.163617 
L 180.72973 125.195745 
L 178.844595 125.195745 
L 178.844595 124.163617 
L 176.959459 124.163617 
L 176.959459 122.099362 
L 176.959459 123.131489 
L 178.844595 123.131489 
L 178.844595 122.099362 
L 182.614865 122.099362 
L 182.614865 123.131489 
L 182.614865 122.099362 
L 178.844595 122.099362 
L 178.844595 124.163617 
L 167.533784 124.163617 
L 171.304054 124.163617 
L 171.304054 121.067234 
L 173.189189 121.067234 
L 173.189189 120.035106 
L 171.304054 120.035106 
L 171.304054 121.067234 
L 173.189189 121.067234 
L 173.189189 121.067234 
L 173.189189 122.099362 
L 175.074324 122.099362 
L 175.074324 121.067234 
L 173.189189 121.067234 
L 173.189189 120.035106 
L 171.304054 120.035106 
L 171.304054 117.970851 
L 169.418919 117.970851 
L 169.418919 116.938723 
L 171.304054 116.938723 
L 167.533784 116.938723 
L 167.533784 114.874468 
L 165.648649 114.874468 
L 165.648649 114.874468 
L 165.648649 115.906596 
L 165.648649 114.874468 
L 167.533784 114.874468 
L 165.648649 114.874468 
L 165.648649 112.810213 
L 171.304054 112.810213 
L 169.418919 112.810213 
L 169.418919 114.874468 
L 171.304054 114.874468 
L 169.418919 114.874468 
L 169.418919 112.810213 
L 171.304054 112.810213 
L 171.304054 114.874468 
L 167.533784 114.874468 
L 167.533784 114.874468 
L 167.533784 112.810213 
L 161.878378 112.810213 
L 161.878378 111.778085 
L 165.648649 111.778085 
L 165.648649 112.810213 
L 167.533784 112.810213 
L 167.533784 113.84234 
L 169.418919 113.84234 
L 165.648649 113.84234 
L 165.648649 112.810213 
L 167.533784 112.810213 
L 167.533784 114.874468 
L 167.533784 113.84234 
L 175.074324 113.84234 
L 173.189189 113.84234 
L 173.189189 112.810213 
L 167.533784 112.810213 
L 169.418919 112.810213 
L 169.418919 113.84234 
L 165.648649 113.84234 
L 167.533784 113.84234 
L 167.533784 114.874468 
L 167.533784 113.84234 
L 169.418919 113.84234 
L 165.648649 113.84234 
L 165.648649 114.874468 
L 163.763514 114.874468 
L 167.533784 114.874468 
L 167.533784 116.938723 
L 163.763514 116.938723 
L 163.763514 117.970851 
L 163.763514 117.970851 
L 161.878378 117.970851 
L 161.878378 120.035106 
L 163.763514 120.035106 
L 163.763514 121.067234 
L 169.418919 121.067234 
L 169.418919 120.035106 
L 173.189189 120.035106 
L 173.189189 121.067234 
L 175.074324 121.067234 
L 175.074324 122.099362 
L 175.074324 121.067234 
L 173.189189 121.067234 
L 175.074324 121.067234 
L 175.074324 120.035106 
L 173.189189 120.035106 
L 173.189189 117.970851 
L 171.304054 117.970851 
L 175.074324 117.970851 
L 175.074324 116.938723 
L 173.189189 116.938723 
L 173.189189 116.938723 
L 173.189189 115.906596 
L 173.189189 116.938723 
L 171.304054 116.938723 
L 171.304054 115.906596 
L 175.074324 115.906596 
L 175.074324 117.970851 
L 178.844595 117.970851 
L 178.844595 115.906596 
L 178.844595 116.938723 
L 180.72973 116.938723 
L 175.074324 116.938723 
L 175.074324 117.970851 
L 173.189189 117.970851 
L 173.189189 119.002979 
L 167.533784 119.002979 
L 167.533784 120.035106 
L 163.763514 120.035106 
L 163.763514 121.067234 
L 165.648649 121.067234 
L 159.993243 121.067234 
L 159.993243 122.099362 
L 158.108108 122.099362 
L 158.108108 124.163617 
L 159.993243 124.163617 
L 159.993243 125.195745 
L 156.222973 125.195745 
L 156.222973 124.163617 
L 154.337838 124.163617 
L 154.337838 125.195745 
L 148.682432 125.195745 
L 148.682432 125.195745 
L 148.682432 124.163617 
L 146.797297 124.163617 
L 146.797297 122.099362 
L 148.682432 122.099362 
L 148.682432 121.067234 
L 152.452703 121.067234 
L 152.452703 120.035106 
L 152.452703 121.067234 
L 148.682432 121.067234 
L 152.452703 121.067234 
L 152.452703 120.035106 
L 152.452703 121.067234 
L 154.337838 121.067234 
L 154.337838 122.099362 
L 152.452703 122.099362 
L 152.452703 123.131489 
L 150.567568 123.131489 
L 150.567568 122.099362 
L 150.567568 122.099362 
L 144.912162 122.099362 
L 144.912162 124.163617 
L 143.027027 124.163617 
L 143.027027 123.131489 
L 141.141892 123.131489 
L 141.141892 124.163617 
L 144.912162 124.163617 
L 144.912162 123.131489 
L 146.797297 123.131489 
L 146.797297 122.099362 
L 146.797297 124.163617 
L 148.682432 124.163617 
L 148.682432 125.195745 
L 150.567568 125.195745 
L 148.682432 125.195745 
L 148.682432 126.227872 
L 154.337838 126.227872 
L 154.337838 125.195745 
L 150.567568 125.195745 
L 150.567568 124.163617 
L 150.567568 125.195745 
L 152.452703 125.195745 
L 152.452703 126.227872 
L 152.452703 126.227872 
L 148.682432 126.227872 
L 148.682432 125.195745 
L 148.682432 126.227872 
L 150.567568 126.227872 
L 150.567568 128.292128 
L 144.912162 128.292128 
L 150.567568 128.292128 
L 150.567568 127.26 
L 148.682432 127.26 
L 148.682432 126.227872 
L 146.797297 126.227872 
L 146.797297 125.195745 
L 146.797297 126.227872 
L 143.027027 126.227872 
L 148.682432 126.227872 
L 148.682432 125.195745 
L 144.912162 125.195745 
L 144.912162 121.067234 
L 143.027027 121.067234 
L 143.027027 120.035106 
L 139.256757 120.035106 
L 139.256757 119.002979 
L 141.141892 119.002979 
L 137.371622 119.002979 
L 139.256757 119.002979 
L 139.256757 117.970851 
L 139.256757 119.002979 
L 141.141892 119.002979 
L 141.141892 117.970851 
L 141.141892 119.002979 
L 137.371622 119.002979 
L 137.371622 117.970851 
L 137.371622 119.002979 
L 135.486486 119.002979 
L 135.486486 122.099362 
L 133.601351 122.099362 
L 135.486486 122.099362 
L 135.486486 123.131489 
L 137.371622 123.131489 
L 137.371622 124.163617 
L 141.141892 124.163617 
L 141.141892 125.195745 
L 143.027027 125.195745 
L 143.027027 124.163617 
L 150.567568 124.163617 
L 146.797297 124.163617 
L 146.797297 125.195745 
L 146.797297 124.163617 
L 143.027027 124.163617 
L 144.912162 124.163617 
L 144.912162 125.195745 
L 146.797297 125.195745 
L 143.027027 125.195745 
L 143.027027 124.163617 
L 143.027027 127.26 
L 144.912162 127.26 
L 144.912162 128.292128 
L 143.027027 128.292128 
L 144.912162 128.292128 
L 144.912162 127.26 
L 143.027027 127.26 
L 143.027027 128.292128 
L 141.141892 128.292128 
L 141.141892 126.227872 
L 139.256757 126.227872 
L 139.256757 124.163617 
L 137.371622 124.163617 
L 137.371622 124.163617 
L 137.371622 125.195745 
L 139.256757 125.195745 
L 137.371622 125.195745 
L 137.371622 126.227872 
L 135.486486 126.227872 
L 135.486486 126.227872 
L 135.486486 125.195745 
L 133.601351 125.195745 
L 133.601351 123.131489 
L 129.831081 123.131489 
L 129.831081 122.099362 
L 126.060811 122.099362 
L 126.060811 122.099362 
L 126.060811 123.131489 
L 127.945946 123.131489 
L 127.945946 124.163617 
L 126.060811 124.163617 
L 126.060811 125.195745 
L 131.716216 125.195745 
L 127.945946 125.195745 
L 127.945946 126.227872 
L 126.060811 126.227872 
L 126.060811 124.163617 
L 124.175676 124.163617 
L 124.175676 124.163617 
L 124.175676 123.131489 
L 122.290541 123.131489 
L 122.290541 121.067234 
L 122.290541 121.067234 
L 120.405405 121.067234 
L 120.405405 122.099362 
L 118.52027 122.099362 
L 118.52027 121.067234 
L 120.405405 121.067234 
L 114.75 121.067234 
L 114.75 121.067234 
" clip-path="url(#p6ec2590d4e)" style="fill: none; stroke: #8839ef; stroke-width: 0.75; stroke-linecap: square"/>
   </g>
   <g id="line2d_18">
    <path d="M 207.121622 129.324255 
L 207.121622 127.26 
L 210.891892 127.26 
L 209.006757 127.26 
L 209.006757 128.292128 
L 210.891892 128.292128 
L 210.891892 127.26 
L 210.891892 128.292128 
L 205.236486 128.292128 
L 205.236486 130.356383 
L 199.581081 130.356383 
L 207.121622 130.356383 
L 207.121622 129.324255 
L 207.121622 129.324255 
L 203.351351 129.324255 
L 203.351351 128.292128 
L 201.466216 128.292128 
L 201.466216 128.292128 
L 201.466216 129.324255 
L 199.581081 129.324255 
L 199.581081 128.292128 
L 199.581081 130.356383 
L 197.695946 130.356383 
L 197.695946 129.324255 
L 195.810811 129.324255 
L 199.581081 129.324255 
L 197.695946 129.324255 
L 197.695946 128.292128 
L 195.810811 128.292128 
L 197.695946 128.292128 
L 197.695946 127.26 
L 197.695946 127.26 
L 199.581081 127.26 
L 199.581081 128.292128 
L 197.695946 128.292128 
L 197.695946 128.292128 
L 197.695946 126.227872 
L 199.581081 126.227872 
L 199.581081 124.163617 
L 199.581081 127.26 
L 201.466216 127.26 
L 201.466216 129.324255 
L 199.581081 129.324255 
L 199.581081 130.356383 
L 199.581081 129.324255 
L 197.695946 129.324255 
L 199.581081 129.324255 
L 199.581081 130.356383 
L 197.695946 130.356383 
L 197.695946 131.388511 
L 197.695946 128.292128 
L 193.925676 128.292128 
L 193.925676 129.324255 
L 197.695946 129.324255 
L 197.695946 130.356383 
L 201.466216 130.356383 
L 199.581081 130.356383 
L 199.581081 129.324255 
L 201.466216 129.324255 
L 193.925676 129.324255 
L 193.925676 128.292128 
L 192.040541 128.292128 
L 192.040541 129.324255 
L 188.27027 129.324255 
L 188.27027 128.292128 
L 190.155405 128.292128 
L 190.155405 127.26 
L 190.155405 128.292128 
L 193.925676 128.292128 
L 193.925676 127.26 
L 192.040541 127.26 
L 192.040541 127.26 
L 192.040541 126.227872 
L 192.040541 127.26 
L 190.155405 127.26 
L 190.155405 126.227872 
L 190.155405 128.292128 
L 188.27027 128.292128 
L 190.155405 128.292128 
L 190.155405 129.324255 
L 182.614865 129.324255 
L 182.614865 128.292128 
L 186.385135 128.292128 
L 186.385135 131.388511 
L 184.5 131.388511 
L 186.385135 131.388511 
L 186.385135 130.356383 
L 186.385135 131.388511 
L 188.27027 131.388511 
L 188.27027 132.420638 
L 188.27027 131.388511 
L 190.155405 131.388511 
L 190.155405 133.452766 
L 188.27027 133.452766 
L 195.810811 133.452766 
L 195.810811 131.388511 
L 195.810811 132.420638 
L 197.695946 132.420638 
L 197.695946 133.452766 
L 199.581081 133.452766 
L 199.581081 134.484894 
L 199.581081 133.452766 
L 197.695946 133.452766 
L 197.695946 134.484894 
L 197.695946 133.452766 
L 199.581081 133.452766 
L 199.581081 134.484894 
L 197.695946 134.484894 
L 197.695946 135.517021 
L 195.810811 135.517021 
L 195.810811 139.645532 
L 195.810811 137.581277 
L 197.695946 137.581277 
L 197.695946 138.613404 
L 199.581081 138.613404 
L 199.581081 139.645532 
L 201.466216 139.645532 
L 201.466216 141.709787 
L 201.466216 141.709787 
L 199.581081 141.709787 
L 199.581081 140.67766 
L 199.581081 141.709787 
L 201.466216 141.709787 
L 201.466216 142.741915 
L 199.581081 142.741915 
L 201.466216 142.741915 
L 201.466216 141.709787 
L 201.466216 145.838298 
L 205.236486 145.838298 
L 205.236486 146.870426 
L 203.351351 146.870426 
L 203.351351 144.80617 
L 195.810811 144.80617 
L 195.810811 142.741915 
L 193.925676 142.741915 
L 193.925676 140.67766 
L 192.040541 140.67766 
L 192.040541 141.709787 
L 190.155405 141.709787 
L 192.040541 141.709787 
L 192.040541 142.741915 
L 193.925676 142.741915 
L 193.925676 143.774043 
L 192.040541 143.774043 
L 192.040541 142.741915 
L 193.925676 142.741915 
L 186.385135 142.741915 
L 192.040541 142.741915 
L 192.040541 140.67766 
L 186.385135 140.67766 
L 192.040541 140.67766 
L 192.040541 139.645532 
L 186.385135 139.645532 
L 186.385135 139.645532 
L 186.385135 138.613404 
L 186.385135 139.645532 
L 188.27027 139.645532 
L 186.385135 139.645532 
L 186.385135 138.613404 
L 180.72973 138.613404 
L 180.72973 137.581277 
L 176.959459 137.581277 
L 176.959459 138.613404 
L 178.844595 138.613404 
L 178.844595 137.581277 
L 175.074324 137.581277 
L 180.72973 137.581277 
L 180.72973 137.581277 
L 180.72973 136.549149 
L 178.844595 136.549149 
L 178.844595 137.581277 
L 176.959459 137.581277 
L 176.959459 139.645532 
L 178.844595 139.645532 
L 173.189189 139.645532 
L 173.189189 137.581277 
L 171.304054 137.581277 
L 171.304054 138.613404 
L 173.189189 138.613404 
L 171.304054 138.613404 
L 171.304054 137.581277 
L 169.418919 137.581277 
L 169.418919 136.549149 
L 169.418919 137.581277 
L 167.533784 137.581277 
L 167.533784 136.549149 
L 169.418919 136.549149 
L 169.418919 137.581277 
L 169.418919 135.517021 
L 173.189189 135.517021 
L 173.189189 133.452766 
L 173.189189 134.484894 
L 167.533784 134.484894 
L 167.533784 133.452766 
L 167.533784 134.484894 
L 171.304054 134.484894 
L 171.304054 135.517021 
L 173.189189 135.517021 
L 171.304054 135.517021 
L 171.304054 134.484894 
L 171.304054 135.517021 
L 169.418919 135.517021 
L 169.418919 136.549149 
L 171.304054 136.549149 
L 171.304054 135.517021 
L 171.304054 136.549149 
L 173.189189 136.549149 
L 173.189189 139.645532 
L 169.418919 139.645532 
L 169.418919 138.613404 
L 163.763514 138.613404 
L 163.763514 135.517021 
L 163.763514 138.613404 
L 156.222973 138.613404 
L 161.878378 138.613404 
L 161.878378 137.581277 
L 161.878378 139.645532 
L 161.878378 137.581277 
L 159.993243 137.581277 
L 159.993243 138.613404 
L 161.878378 138.613404 
L 161.878378 140.67766 
L 158.108108 140.67766 
L 158.108108 140.67766 
L 158.108108 141.709787 
L 154.337838 141.709787 
L 154.337838 140.67766 
L 158.108108 140.67766 
L 150.567568 140.67766 
L 150.567568 139.645532 
L 152.452703 139.645532 
L 152.452703 140.67766 
L 150.567568 140.67766 
L 150.567568 139.645532 
L 154.337838 139.645532 
L 150.567568 139.645532 
L 150.567568 140.67766 
L 139.256757 140.67766 
L 139.256757 141.709787 
L 141.141892 141.709787 
L 141.141892 140.67766 
L 141.141892 141.709787 
L 137.371622 141.709787 
L 137.371622 139.645532 
L 137.371622 140.67766 
L 133.601351 140.67766 
L 135.486486 140.67766 
L 135.486486 141.709787 
L 135.486486 140.67766 
L 137.371622 140.67766 
L 135.486486 140.67766 
L 135.486486 138.613404 
L 137.371622 138.613404 
L 137.371622 137.581277 
L 133.601351 137.581277 
L 135.486486 137.581277 
L 135.486486 138.613404 
L 135.486486 135.517021 
L 135.486486 136.549149 
L 133.601351 136.549149 
L 133.601351 137.581277 
L 127.945946 137.581277 
L 127.945946 135.517021 
L 133.601351 135.517021 
L 133.601351 136.549149 
L 131.716216 136.549149 
L 131.716216 137.581277 
L 133.601351 137.581277 
L 129.831081 137.581277 
L 129.831081 135.517021 
L 127.945946 135.517021 
L 127.945946 136.549149 
L 127.945946 135.517021 
L 129.831081 135.517021 
L 129.831081 134.484894 
L 124.175676 134.484894 
L 126.060811 134.484894 
L 126.060811 135.517021 
L 129.831081 135.517021 
L 129.831081 134.484894 
L 131.716216 134.484894 
L 131.716216 132.420638 
L 129.831081 132.420638 
L 129.831081 131.388511 
L 126.060811 131.388511 
L 129.831081 131.388511 
L 129.831081 132.420638 
L 127.945946 132.420638 
L 129.831081 132.420638 
L 129.831081 129.324255 
L 127.945946 129.324255 
L 127.945946 128.292128 
L 126.060811 128.292128 
L 126.060811 129.324255 
L 126.060811 129.324255 
L 127.945946 129.324255 
L 127.945946 128.292128 
L 129.831081 128.292128 
L 127.945946 128.292128 
L 127.945946 126.227872 
L 129.831081 126.227872 
L 129.831081 125.195745 
L 129.831081 126.227872 
L 127.945946 126.227872 
L 127.945946 126.227872 
" clip-path="url(#p6ec2590d4e)" style="fill: none; stroke: #df8e1d; stroke-width: 0.75; stroke-linecap: square"/>
   </g>
   <g id="line2d_19">
    <path d="M 207.121622 127.26 
L 205.236486 127.26 
L 205.236486 128.292128 
L 203.351351 128.292128 
L 203.351351 129.324255 
L 201.466216 129.324255 
L 203.351351 129.324255 
L 203.351351 128.292128 
L 203.351351 129.324255 
L 199.581081 129.324255 
L 199.581081 128.292128 
L 199.581081 130.356383 
L 199.581081 129.324255 
L 195.810811 129.324255 
L 195.810811 130.356383 
L 197.695946 130.356383 
L 197.695946 129.324255 
L 197.695946 130.356383 
L 195.810811 130.356383 
L 197.695946 130.356383 
L 197.695946 132.420638 
L 199.581081 132.420638 
L 195.810811 132.420638 
L 195.810811 133.452766 
L 192.040541 133.452766 
L 192.040541 132.420638 
L 195.810811 132.420638 
L 195.810811 132.420638 
L 195.810811 131.388511 
L 193.925676 131.388511 
L 193.925676 130.356383 
L 193.925676 132.420638 
L 188.27027 132.420638 
L 188.27027 131.388511 
L 193.925676 131.388511 
L 193.925676 130.356383 
L 192.040541 130.356383 
L 192.040541 129.324255 
L 192.040541 132.420638 
L 192.040541 130.356383 
L 190.155405 130.356383 
L 190.155405 129.324255 
L 193.925676 129.324255 
L 193.925676 128.292128 
L 188.27027 128.292128 
L 190.155405 128.292128 
L 190.155405 129.324255 
L 188.27027 129.324255 
L 188.27027 130.356383 
L 190.155405 130.356383 
L 190.155405 130.356383 
L 190.155405 129.324255 
L 190.155405 130.356383 
L 192.040541 130.356383 
L 192.040541 129.324255 
L 195.810811 129.324255 
L 192.040541 129.324255 
L 192.040541 126.227872 
L 190.155405 126.227872 
L 190.155405 125.195745 
L 192.040541 125.195745 
L 188.27027 125.195745 
L 188.27027 126.227872 
L 186.385135 126.227872 
L 186.385135 128.292128 
L 184.5 128.292128 
L 184.5 131.388511 
L 180.72973 131.388511 
L 180.72973 130.356383 
L 180.72973 131.388511 
L 176.959459 131.388511 
L 176.959459 132.420638 
L 173.189189 132.420638 
L 175.074324 132.420638 
L 175.074324 133.452766 
L 175.074324 131.388511 
L 173.189189 131.388511 
L 173.189189 130.356383 
L 173.189189 131.388511 
L 175.074324 131.388511 
L 173.189189 131.388511 
L 173.189189 130.356383 
L 173.189189 130.356383 
L 175.074324 130.356383 
L 175.074324 130.356383 
L 175.074324 131.388511 
L 173.189189 131.388511 
L 173.189189 131.388511 
L 173.189189 130.356383 
L 169.418919 130.356383 
L 171.304054 130.356383 
L 171.304054 131.388511 
L 169.418919 131.388511 
L 169.418919 130.356383 
L 169.418919 131.388511 
L 175.074324 131.388511 
L 175.074324 130.356383 
L 173.189189 130.356383 
L 175.074324 130.356383 
L 175.074324 132.420638 
L 171.304054 132.420638 
L 171.304054 131.388511 
L 169.418919 131.388511 
L 169.418919 130.356383 
L 165.648649 130.356383 
L 165.648649 128.292128 
L 163.763514 128.292128 
L 163.763514 129.324255 
L 161.878378 129.324255 
L 161.878378 128.292128 
L 159.993243 128.292128 
L 159.993243 128.292128 
L 159.993243 129.324255 
L 161.878378 129.324255 
L 161.878378 128.292128 
L 161.878378 129.324255 
L 159.993243 129.324255 
L 159.993243 130.356383 
L 161.878378 130.356383 
L 158.108108 130.356383 
L 158.108108 128.292128 
L 156.222973 128.292128 
L 156.222973 130.356383 
L 158.108108 130.356383 
L 158.108108 131.388511 
L 158.108108 130.356383 
L 152.452703 130.356383 
L 154.337838 130.356383 
L 154.337838 131.388511 
L 154.337838 130.356383 
L 156.222973 130.356383 
L 156.222973 129.324255 
L 156.222973 130.356383 
L 154.337838 130.356383 
L 154.337838 129.324255 
L 150.567568 129.324255 
L 150.567568 128.292128 
L 150.567568 129.324255 
L 146.797297 129.324255 
L 146.797297 128.292128 
L 143.027027 128.292128 
L 144.912162 128.292128 
L 144.912162 127.26 
L 146.797297 127.26 
L 146.797297 126.227872 
L 148.682432 126.227872 
L 148.682432 125.195745 
L 146.797297 125.195745 
L 146.797297 126.227872 
L 144.912162 126.227872 
L 150.567568 126.227872 
L 144.912162 126.227872 
L 144.912162 127.26 
L 143.027027 127.26 
L 143.027027 128.292128 
L 141.141892 128.292128 
L 141.141892 129.324255 
L 143.027027 129.324255 
L 143.027027 130.356383 
L 144.912162 130.356383 
L 144.912162 129.324255 
L 141.141892 129.324255 
L 141.141892 130.356383 
L 141.141892 130.356383 
L 139.256757 130.356383 
L 139.256757 130.356383 
L 139.256757 134.484894 
L 139.256757 133.452766 
L 143.027027 133.452766 
L 143.027027 135.517021 
L 144.912162 135.517021 
L 143.027027 135.517021 
L 143.027027 136.549149 
L 143.027027 135.517021 
L 144.912162 135.517021 
L 144.912162 134.484894 
L 143.027027 134.484894 
L 143.027027 135.517021 
L 139.256757 135.517021 
L 139.256757 134.484894 
L 137.371622 134.484894 
L 137.371622 135.517021 
L 135.486486 135.517021 
L 135.486486 134.484894 
L 135.486486 135.517021 
L 133.601351 135.517021 
L 133.601351 134.484894 
L 131.716216 134.484894 
L 131.716216 133.452766 
L 131.716216 134.484894 
L 129.831081 134.484894 
L 129.831081 136.549149 
L 131.716216 136.549149 
L 129.831081 136.549149 
L 129.831081 137.581277 
L 126.060811 137.581277 
L 126.060811 139.645532 
L 127.945946 139.645532 
L 124.175676 139.645532 
L 124.175676 139.645532 
L 124.175676 137.581277 
L 124.175676 137.581277 
L 126.060811 137.581277 
L 126.060811 136.549149 
L 124.175676 136.549149 
L 124.175676 135.517021 
L 120.405405 135.517021 
L 120.405405 136.549149 
L 120.405405 135.517021 
L 118.52027 135.517021 
L 118.52027 136.549149 
L 122.290541 136.549149 
L 122.290541 137.581277 
L 124.175676 137.581277 
L 124.175676 138.613404 
L 127.945946 138.613404 
L 126.060811 138.613404 
L 126.060811 137.581277 
L 124.175676 137.581277 
L 124.175676 136.549149 
L 122.290541 136.549149 
L 126.060811 136.549149 
L 126.060811 135.517021 
L 127.945946 135.517021 
L 124.175676 135.517021 
L 124.175676 136.549149 
L 126.060811 136.549149 
L 126.060811 135.517021 
L 127.945946 135.517021 
L 124.175676 135.517021 
L 124.175676 134.484894 
L 120.405405 134.484894 
L 120.405405 133.452766 
L 120.405405 135.517021 
L 118.52027 135.517021 
L 118.52027 136.549149 
L 118.52027 135.517021 
L 116.635135 135.517021 
L 116.635135 133.452766 
L 114.75 133.452766 
L 118.52027 133.452766 
L 114.75 133.452766 
L 114.75 129.324255 
L 116.635135 129.324255 
L 116.635135 128.292128 
L 116.635135 129.324255 
L 114.75 129.324255 
L 118.52027 129.324255 
L 118.52027 128.292128 
L 116.635135 128.292128 
L 116.635135 126.227872 
L 116.635135 127.26 
L 114.75 127.26 
L 118.52027 127.26 
L 118.52027 128.292128 
L 118.52027 128.292128 
L 120.405405 128.292128 
L 120.405405 130.356383 
L 118.52027 130.356383 
L 118.52027 131.388511 
L 114.75 131.388511 
L 114.75 132.420638 
L 112.864865 132.420638 
L 112.864865 131.388511 
L 114.75 131.388511 
L 114.75 130.356383 
L 116.635135 130.356383 
L 112.864865 130.356383 
L 112.864865 131.388511 
L 112.864865 131.388511 
L 110.97973 131.388511 
L 110.97973 128.292128 
L 112.864865 128.292128 
L 110.97973 128.292128 
L 110.97973 129.324255 
L 110.97973 128.292128 
L 107.209459 128.292128 
L 107.209459 127.26 
L 109.094595 127.26 
L 109.094595 128.292128 
L 109.094595 127.26 
L 116.635135 127.26 
L 116.635135 126.227872 
L 116.635135 127.26 
L 120.405405 127.26 
L 116.635135 127.26 
L 116.635135 128.292128 
L 116.635135 127.26 
L 114.75 127.26 
L 114.75 128.292128 
L 112.864865 128.292128 
L 112.864865 129.324255 
L 110.97973 129.324255 
L 112.864865 129.324255 
L 112.864865 128.292128 
L 112.864865 129.324255 
L 110.97973 129.324255 
L 112.864865 129.324255 
L 112.864865 130.356383 
L 110.97973 130.356383 
L 110.97973 129.324255 
L 110.97973 131.388511 
L 114.75 131.388511 
L 114.75 132.420638 
L 116.635135 132.420638 
L 116.635135 132.420638 
L 116.635135 135.517021 
L 118.52027 135.517021 
L 118.52027 133.452766 
L 116.635135 133.452766 
L 116.635135 132.420638 
L 120.405405 132.420638 
L 112.864865 132.420638 
L 118.52027 132.420638 
L 118.52027 133.452766 
L 120.405405 133.452766 
L 120.405405 131.388511 
L 122.290541 131.388511 
L 122.290541 131.388511 
L 122.290541 134.484894 
L 120.405405 134.484894 
L 120.405405 136.549149 
L 118.52027 136.549149 
L 118.52027 135.517021 
L 120.405405 135.517021 
L 120.405405 136.549149 
L 118.52027 136.549149 
L 118.52027 135.517021 
L 116.635135 135.517021 
L 116.635135 134.484894 
L 116.635135 135.517021 
L 114.75 135.517021 
L 118.52027 135.517021 
L 118.52027 136.549149 
L 116.635135 136.549149 
L 116.635135 135.517021 
L 114.75 135.517021 
L 114.75 134.484894 
L 107.209459 134.484894 
L 112.864865 134.484894 
L 112.864865 133.452766 
L 114.75 133.452766 
L 112.864865 133.452766 
L 112.864865 134.484894 
L 112.864865 133.452766 
L 114.75 133.452766 
L 114.75 134.484894 
L 114.75 133.452766 
L 112.864865 133.452766 
L 114.75 133.452766 
L 114.75 134.484894 
L 114.75 133.452766 
" clip-path="url(#p6ec2590d4e)" style="fill: none; stroke: #40a02b; stroke-width: 0.75; stroke-linecap: square"/>
   </g>
   <g id="patch_3">
    <path d="M 45 224.28 
L 45 30.24 
" style="fill: none; stroke: #4c4f69; stroke-width: 0.8; stroke-linejoin: miter; stroke-linecap: square"/>
   </g>
   <g id="patch_4">
    <path d="M 324 224.28 
L 324 30.24 
" style="fill: none; stroke: #4c4f69; stroke-width: 0.8; stroke-linejoin: miter; stroke-linecap: square"/>
   </g>
   <g id="patch_5">
    <path d="M 45 224.28 
L 324 224.28 
" style="fill: none; stroke: #4c4f69; stroke-width: 0.8; stroke-linejoin: miter; stroke-linecap: square"/>
   </g>
   <g id="patch_6">
    <path d="M 45 30.24 
L 324 30.24 
" style="fill: none; stroke: #4c4f69; stroke-width: 0.8; stroke-linejoin: miter; stroke-linecap: square"/>
   </g>
   <g id="legend_1">
    <g id="patch_7">
     <path d="M 254.281789 93.988713 
L 317 93.988713 
Q 319 93.988713 319 91.988713 
L 319 37.24 
Q 319 35.24 317 35.24 
L 254.281789 35.24 
Q 252.281789 35.24 252.281789 37.24 
L 252.281789 91.988713 
Q 252.281789 93.988713 254.281789 93.988713 
z
" style="fill: #dce0e8; opacity: 0.8; stroke: #4c4f69; stroke-linejoin: miter"/>
    </g>
    <g id="line2d_20">
     <path d="M 256.281789 42.74 
L 266.281789 42.74 
L 276.281789 42.74 
" style="fill: none; stroke: #dd7878; stroke-width: 0.75; stroke-linecap: square"/>
    </g>
    <g id="text_16">
     <!-- Walk 1 -->
     <g style="fill: #4c4f69" transform="translate(284.281789 46.24)scale(0.1 -0.1)">
      <defs>
       <path id="CMR17-57" d="M 5523 3775 
C 5581 3948 5677 4173 6048 4185 
L 6048 4352 
C 5939 4345 5715 4339 5600 4339 
C 5440 4339 5158 4339 5005 4352 
L 5005 4185 
C 5293 4179 5414 4019 5414 3865 
C 5414 3820 5408 3794 5382 3724 
L 4390 557 
L 3347 3890 
C 3328 3955 3322 3980 3322 4006 
C 3322 4185 3603 4185 3725 4185 
L 3725 4352 
C 3539 4339 3219 4339 3021 4339 
C 2861 4339 2573 4339 2426 4352 
L 2426 4185 
C 2720 4185 2797 4166 2861 4051 
C 2886 3993 2989 3660 2989 3640 
C 2989 3615 2976 3576 2970 3557 
L 2029 564 
L 986 3890 
C 954 3980 954 3993 954 4006 
C 954 4185 1235 4185 1363 4185 
L 1363 4352 
C 1178 4339 858 4339 659 4339 
C 493 4339 211 4339 58 4352 
L 58 4185 
C 442 4185 467 4147 531 3942 
L 1779 -20 
C 1811 -116 1811 -128 1869 -128 
C 1920 -128 1939 -116 1965 -26 
L 3053 3448 
L 4141 -26 
C 4166 -116 4186 -128 4237 -128 
C 4294 -128 4294 -116 4326 -20 
L 5523 3775 
z
" transform="scale(0.015625)"/>
       <path id="CMR17-61" d="M 2304 1656 
C 2304 2048 2304 2275 2035 2534 
C 1798 2751 1523 2816 1306 2816 
C 800 2816 435 2408 435 1977 
C 435 1740 627 1728 666 1728 
C 749 1728 896 1779 896 1958 
C 896 2118 774 2188 666 2188 
C 640 2188 608 2182 589 2176 
C 723 2594 1069 2713 1293 2713 
C 1613 2713 1965 2421 1965 1875 
L 1965 1632 
C 1587 1619 1133 1568 774 1373 
C 371 1147 256 822 256 576 
C 256 77 832 -64 1171 -64 
C 1523 -64 1850 135 1990 505 
C 2003 219 2182 -39 2464 -39 
C 2598 -39 2938 51 2938 563 
L 2938 926 
L 2822 926 
L 2822 557 
C 2822 161 2650 109 2566 109 
C 2304 109 2304 446 2304 732 
L 2304 1656 
z
M 1965 887 
C 1965 323 1568 38 1216 38 
C 896 38 646 278 646 576 
C 646 771 730 1114 1101 1322 
C 1408 1497 1760 1523 1965 1536 
L 1965 887 
z
" transform="scale(0.015625)"/>
       <path id="CMR17-6c" d="M 979 4416 
L 218 4345 
L 218 4179 
C 595 4179 653 4141 653 3835 
L 653 439 
C 653 198 627 166 218 166 
L 218 0 
C 371 12 653 12 813 12 
C 979 12 1261 12 1414 0 
L 1414 166 
C 1005 166 979 191 979 439 
L 979 4416 
z
" transform="scale(0.015625)"/>
       <path id="CMR17-6b" d="M 1670 1679 
C 1664 1692 1632 1730 1632 1749 
C 1632 1762 2086 2175 2144 2226 
C 2509 2532 2739 2563 2906 2570 
L 2906 2735 
C 2867 2735 2854 2735 2848 2729 
L 2534 2722 
C 2355 2722 2080 2722 1907 2735 
L 1907 2570 
C 1997 2563 2061 2513 2061 2423 
C 2061 2296 1933 2175 1926 2175 
L 960 1298 
L 960 4416 
L 198 4345 
L 198 4179 
C 576 4179 634 4141 634 3835 
L 634 439 
C 634 198 608 166 198 166 
L 198 0 
C 352 12 634 12 794 12 
C 954 12 1235 12 1389 0 
L 1389 166 
C 979 166 954 191 954 439 
L 954 1139 
L 1395 1540 
L 2042 586 
C 2118 471 2182 382 2182 299 
C 2182 185 2067 166 1990 166 
L 1990 0 
C 2144 12 2419 12 2579 12 
C 2694 12 2931 6 3040 0 
L 3040 166 
C 2739 166 2669 223 2477 503 
L 1670 1679 
z
" transform="scale(0.015625)"/>
       <path id="CMR17-31" d="M 1702 4083 
C 1702 4217 1696 4224 1606 4224 
C 1357 3927 979 3833 621 3820 
C 602 3820 570 3820 563 3808 
C 557 3795 557 3782 557 3648 
C 755 3648 1088 3686 1344 3839 
L 1344 467 
C 1344 243 1331 166 781 166 
L 589 166 
L 589 0 
C 896 6 1216 12 1523 12 
C 1830 12 2150 6 2458 0 
L 2458 166 
L 2266 166 
C 1715 166 1702 236 1702 467 
L 1702 4083 
z
" transform="scale(0.015625)"/>
      </defs>
      <use xlink:href="#CMR17-57" transform="scale(0.996264)"/>
      <use xlink:href="#CMR17-61" transform="translate(87.289395 0)scale(0.996264)"/>
      <use xlink:href="#CMR17-6c" transform="translate(132.979872 0)scale(0.996264)"/>
      <use xlink:href="#CMR17-6b" transform="translate(157.85093 0)scale(0.996264)"/>
      <use xlink:href="#CMR17-31" transform="translate(236.219812 0)scale(0.996264)"/>
     </g>
    </g>
    <g id="line2d_21">
     <path d="M 256.281789 56.677178 
L 266.281789 56.677178 
L 276.281789 56.677178 
" style="fill: none; stroke: #8839ef; stroke-width: 0.75; stroke-linecap: square"/>
    </g>
    <g id="text_17">
     <!-- Walk 2 -->
     <g style="fill: #4c4f69" transform="translate(284.281789 60.177178)scale(0.1 -0.1)">
      <use xlink:href="#CMR17-57" transform="scale(0.996264)"/>
      <use xlink:href="#CMR17-61" transform="translate(87.289395 0)scale(0.996264)"/>
      <use xlink:href="#CMR17-6c" transform="translate(132.979872 0)scale(0.996264)"/>
      <use xlink:href="#CMR17-6b" transform="translate(157.85093 0)scale(0.996264)"/>
      <use xlink:href="#CMR17-32" transform="translate(236.219812 0)scale(0.996264)"/>
     </g>
    </g>
    <g id="line2d_22">
     <path d="M 256.281789 70.614357 
L 266.281789 70.614357 
L 276.281789 70.614357 
" style="fill: none; stroke: #df8e1d; stroke-width: 0.75; stroke-linecap: square"/>
    </g>
    <g id="text_18">
     <!-- Walk 3 -->
     <g style="fill: #4c4f69" transform="translate(284.281789 74.114357)scale(0.1 -0.1)">
      <defs>
       <path id="CMR17-33" d="M 1414 2176 
C 1984 2176 2234 1673 2234 1094 
C 2234 322 1824 25 1453 25 
C 1114 25 563 193 390 691 
C 422 678 454 678 486 678 
C 640 678 755 780 755 947 
C 755 1132 614 1216 486 1216 
C 378 1216 211 1164 211 927 
C 211 335 787 -128 1466 -128 
C 2176 -128 2720 432 2720 1087 
C 2720 1718 2208 2176 1600 2246 
C 2086 2347 2554 2776 2554 3353 
C 2554 3856 2048 4224 1472 4224 
C 890 4224 378 3862 378 3347 
C 378 3123 544 3084 627 3084 
C 762 3084 877 3167 877 3334 
C 877 3500 762 3584 627 3584 
C 602 3584 570 3584 544 3571 
C 730 3999 1235 4076 1459 4076 
C 1683 4076 2106 3966 2106 3347 
C 2106 3167 2080 2851 1862 2574 
C 1670 2329 1453 2316 1242 2297 
C 1210 2297 1062 2284 1037 2284 
C 992 2278 966 2272 966 2227 
C 966 2182 973 2176 1101 2176 
L 1414 2176 
z
" transform="scale(0.015625)"/>
      </defs>
      <use xlink:href="#CMR17-57" transform="scale(0.996264)"/>
      <use xlink:href="#CMR17-61" transform="translate(87.289395 0)scale(0.996264)"/>
      <use xlink:href="#CMR17-6c" transform="translate(132.979872 0)scale(0.996264)"/>
      <use xlink:href="#CMR17-6b" transform="translate(157.85093 0)scale(0.996264)"/>
      <use xlink:href="#CMR17-33" transform="translate(236.219812 0)scale(0.996264)"/>
     </g>
    </g>
    <g id="line2d_23">
     <path d="M 256.281789 84.551535 
L 266.281789 84.551535 
L 276.281789 84.551535 
" style="fill: none; stroke: #40a02b; stroke-width: 0.75; stroke-linecap: square"/>
    </g>
    <g id="text_19">
     <!-- Walk 4 -->
     <g style="fill: #4c4f69" transform="translate(284.281789 88.051535)scale(0.1 -0.1)">
      <use xlink:href="#CMR17-57" transform="scale(0.996264)"/>
      <use xlink:href="#CMR17-61" transform="translate(87.289395 0)scale(0.996264)"/>
      <use xlink:href="#CMR17-6c" transform="translate(132.979872 0)scale(0.996264)"/>
      <use xlink:href="#CMR17-6b" transform="translate(157.85093 0)scale(0.996264)"/>
      <use xlink:href="#CMR17-34" transform="translate(236.219812 0)scale(0.996264)"/>
     </g>
    </g>
   </g>
  </g>
 </g>
 <defs>
  <clipPath id="p6ec2590d4e">
   <rect x="45" y="30.24" width="279" height="194.04"/>
  </clipPath>
 </defs>
</svg>
