<?xml version="1.0" encoding="utf-8" standalone="no"?>
<!DOCTYPE svg PUBLIC "-//W3C//DTD SVG 1.1//EN"
  "http://www.w3.org/Graphics/SVG/1.1/DTD/svg11.dtd">
<svg xmlns:xlink="http://www.w3.org/1999/xlink" width="360pt" height="252pt" viewBox="0 0 360 252" xmlns="http://www.w3.org/2000/svg" version="1.1">
 <metadata>
  <rdf:RDF xmlns:dc="http://purl.org/dc/elements/1.1/" xmlns:cc="http://creativecommons.org/ns#" xmlns:rdf="http://www.w3.org/1999/02/22-rdf-syntax-ns#">
   <cc:Work>
    <dc:type rdf:resource="http://purl.org/dc/dcmitype/StillImage"/>
    <dc:date>2022-12-01T12:48:08.879999</dc:date>
    <dc:format>image/svg+xml</dc:format>
    <dc:creator>
     <cc:Agent>
      <dc:title>Matplotlib v3.5.1, https://matplotlib.org/</dc:title>
     </cc:Agent>
    </dc:creator>
   </cc:Work>
  </rdf:RDF>
 </metadata>
 <defs>
  <style type="text/css">*{stroke-linejoin: round; stroke-linecap: butt}</style>
 </defs>
 <g id="figure_1">
  <g id="patch_1">
   <path d="M 0 252 
L 360 252 
L 360 0 
L 0 0 
L 0 252 
z
" style="fill: none"/>
  </g>
  <g id="axes_1">
   <g id="patch_2">
    <path d="M 45 224.28 
L 324 224.28 
L 324 30.24 
L 45 30.24 
z
" style="fill: #dce0e8"/>
   </g>
   <g id="matplotlib.axis_1">
    <g id="xtick_1">
     <g id="line2d_1">
      <defs>
       <path id="m966ce2352e" d="M 0 0 
L 0 3.5 
" style="stroke: #4c4f69; stroke-width: 0.8"/>
      </defs>
      <g>
       <use xlink:href="#m966ce2352e" x="56.310811" y="224.28" style="fill: #4c4f69; stroke: #4c4f69; stroke-width: 0.8"/>
      </g>
     </g>
     <g id="text_1">
      <!-- $\mathdefault{−80}$ -->
      <g style="fill: #4c4f69" transform="translate(47.455104 238.198498)scale(0.1 -0.1)">
       <defs>
        <path id="CMSY10-0" d="M 4218 1472 
C 4326 1472 4442 1472 4442 1600 
C 4442 1728 4326 1728 4218 1728 
L 755 1728 
C 646 1728 531 1728 531 1600 
C 531 1472 646 1472 755 1472 
L 4218 1472 
z
" transform="scale(0.015625)"/>
        <path id="CMR17-38" d="M 1741 2289 
C 2144 2494 2554 2803 2554 3298 
C 2554 3884 1990 4224 1472 4224 
C 890 4224 378 3800 378 3215 
C 378 3054 416 2777 666 2533 
C 730 2469 998 2276 1171 2154 
C 883 2006 211 1652 211 945 
C 211 282 838 -128 1459 -128 
C 2144 -128 2720 366 2720 1022 
C 2720 1607 2330 1877 2074 2051 
L 1741 2289 
z
M 902 2855 
C 851 2887 595 3086 595 3388 
C 595 3781 998 4076 1459 4076 
C 1965 4076 2336 3716 2336 3298 
C 2336 2700 1670 2359 1638 2359 
C 1632 2359 1626 2359 1574 2398 
L 902 2855 
z
M 2080 1536 
C 2176 1466 2483 1253 2483 861 
C 2483 385 2010 25 1472 25 
C 890 25 448 443 448 951 
C 448 1459 838 1884 1280 2083 
L 2080 1536 
z
" transform="scale(0.015625)"/>
        <path id="CMR17-30" d="M 2688 2038 
C 2688 2430 2682 3099 2413 3613 
C 2176 4063 1798 4224 1466 4224 
C 1158 4224 768 4082 525 3620 
C 269 3137 243 2539 243 2038 
C 243 1671 250 1112 448 623 
C 723 -39 1216 -128 1466 -128 
C 1760 -128 2208 -7 2470 604 
C 2662 1048 2688 1568 2688 2038 
z
M 1466 -26 
C 1056 -26 813 328 723 816 
C 653 1196 653 1749 653 2109 
C 653 2604 653 3015 736 3407 
C 858 3954 1216 4121 1466 4121 
C 1728 4121 2067 3947 2189 3420 
C 2272 3054 2278 2623 2278 2109 
C 2278 1691 2278 1176 2202 797 
C 2067 96 1690 -26 1466 -26 
z
" transform="scale(0.015625)"/>
       </defs>
       <use xlink:href="#CMSY10-0" transform="scale(0.996264)"/>
       <use xlink:href="#CMR17-38" transform="translate(77.487468 0)scale(0.996264)"/>
       <use xlink:href="#CMR17-30" transform="translate(123.177945 0)scale(0.996264)"/>
      </g>
     </g>
    </g>
    <g id="xtick_2">
     <g id="line2d_2">
      <g>
       <use xlink:href="#m966ce2352e" x="94.013514" y="224.28" style="fill: #4c4f69; stroke: #4c4f69; stroke-width: 0.8"/>
      </g>
     </g>
     <g id="text_2">
      <!-- $\mathdefault{−60}$ -->
      <g style="fill: #4c4f69" transform="translate(85.157806 238.198498)scale(0.1 -0.1)">
       <defs>
        <path id="CMR17-36" d="M 678 2198 
C 678 3712 1395 4076 1811 4076 
C 1946 4076 2272 4049 2400 3782 
C 2298 3782 2106 3782 2106 3558 
C 2106 3385 2246 3328 2336 3328 
C 2394 3328 2566 3353 2566 3571 
C 2566 3987 2246 4224 1805 4224 
C 1043 4224 243 3411 243 2011 
C 243 257 966 -128 1478 -128 
C 2099 -128 2688 431 2688 1295 
C 2688 2101 2170 2688 1517 2688 
C 1126 2688 838 2430 678 1979 
L 678 2198 
z
M 1478 25 
C 691 25 691 1212 691 1450 
C 691 1914 909 2585 1504 2585 
C 1613 2585 1926 2585 2138 2140 
C 2253 1889 2253 1624 2253 1302 
C 2253 954 2253 696 2118 438 
C 1978 173 1773 25 1478 25 
z
" transform="scale(0.015625)"/>
       </defs>
       <use xlink:href="#CMSY10-0" transform="scale(0.996264)"/>
       <use xlink:href="#CMR17-36" transform="translate(77.487468 0)scale(0.996264)"/>
       <use xlink:href="#CMR17-30" transform="translate(123.177945 0)scale(0.996264)"/>
      </g>
     </g>
    </g>
    <g id="xtick_3">
     <g id="line2d_3">
      <g>
       <use xlink:href="#m966ce2352e" x="131.716216" y="224.28" style="fill: #4c4f69; stroke: #4c4f69; stroke-width: 0.8"/>
      </g>
     </g>
     <g id="text_3">
      <!-- $\mathdefault{−40}$ -->
      <g style="fill: #4c4f69" transform="translate(122.860509 238.198498)scale(0.1 -0.1)">
       <defs>
        <path id="CMR17-34" d="M 2150 4147 
C 2150 4281 2144 4288 2029 4288 
L 128 1254 
L 128 1088 
L 1779 1088 
L 1779 460 
C 1779 230 1766 166 1318 166 
L 1197 166 
L 1197 0 
C 1402 12 1747 12 1965 12 
C 2182 12 2528 12 2733 0 
L 2733 166 
L 2611 166 
C 2163 166 2150 230 2150 460 
L 2150 1088 
L 2803 1088 
L 2803 1254 
L 2150 1254 
L 2150 4147 
z
M 1798 3723 
L 1798 1254 
L 256 1254 
L 1798 3723 
z
" transform="scale(0.015625)"/>
       </defs>
       <use xlink:href="#CMSY10-0" transform="scale(0.996264)"/>
       <use xlink:href="#CMR17-34" transform="translate(77.487468 0)scale(0.996264)"/>
       <use xlink:href="#CMR17-30" transform="translate(123.177945 0)scale(0.996264)"/>
      </g>
     </g>
    </g>
    <g id="xtick_4">
     <g id="line2d_4">
      <g>
       <use xlink:href="#m966ce2352e" x="169.418919" y="224.28" style="fill: #4c4f69; stroke: #4c4f69; stroke-width: 0.8"/>
      </g>
     </g>
     <g id="text_4">
      <!-- $\mathdefault{−20}$ -->
      <g style="fill: #4c4f69" transform="translate(160.563212 238.198498)scale(0.1 -0.1)">
       <defs>
        <path id="CMR17-32" d="M 2669 990 
L 2554 990 
C 2490 537 2438 460 2413 422 
C 2381 371 1920 371 1830 371 
L 602 371 
C 832 620 1280 1073 1824 1596 
C 2214 1966 2669 2400 2669 3033 
C 2669 3788 2067 4224 1395 4224 
C 691 4224 262 3603 262 3027 
C 262 2777 448 2745 525 2745 
C 589 2745 781 2783 781 3007 
C 781 3206 614 3264 525 3264 
C 486 3264 448 3257 422 3244 
C 544 3788 915 4057 1306 4057 
C 1862 4057 2227 3616 2227 3033 
C 2227 2477 1901 1998 1536 1583 
L 262 147 
L 262 0 
L 2515 0 
L 2669 990 
z
" transform="scale(0.015625)"/>
       </defs>
       <use xlink:href="#CMSY10-0" transform="scale(0.996264)"/>
       <use xlink:href="#CMR17-32" transform="translate(77.487468 0)scale(0.996264)"/>
       <use xlink:href="#CMR17-30" transform="translate(123.177945 0)scale(0.996264)"/>
      </g>
     </g>
    </g>
    <g id="xtick_5">
     <g id="line2d_5">
      <g>
       <use xlink:href="#m966ce2352e" x="207.121622" y="224.28" style="fill: #4c4f69; stroke: #4c4f69; stroke-width: 0.8"/>
      </g>
     </g>
     <g id="text_5">
      <!-- $\mathdefault{0}$ -->
      <g style="fill: #4c4f69" transform="translate(204.630954 238.198498)scale(0.1 -0.1)">
       <use xlink:href="#CMR17-30" transform="scale(0.996264)"/>
      </g>
     </g>
    </g>
    <g id="xtick_6">
     <g id="line2d_6">
      <g>
       <use xlink:href="#m966ce2352e" x="244.824324" y="224.28" style="fill: #4c4f69; stroke: #4c4f69; stroke-width: 0.8"/>
      </g>
     </g>
     <g id="text_6">
      <!-- $\mathdefault{20}$ -->
      <g style="fill: #4c4f69" transform="translate(239.842989 238.198498)scale(0.1 -0.1)">
       <use xlink:href="#CMR17-32" transform="scale(0.996264)"/>
       <use xlink:href="#CMR17-30" transform="translate(45.690477 0)scale(0.996264)"/>
      </g>
     </g>
    </g>
    <g id="xtick_7">
     <g id="line2d_7">
      <g>
       <use xlink:href="#m966ce2352e" x="282.527027" y="224.28" style="fill: #4c4f69; stroke: #4c4f69; stroke-width: 0.8"/>
      </g>
     </g>
     <g id="text_7">
      <!-- $\mathdefault{40}$ -->
      <g style="fill: #4c4f69" transform="translate(277.545692 238.198498)scale(0.1 -0.1)">
       <use xlink:href="#CMR17-34" transform="scale(0.996264)"/>
       <use xlink:href="#CMR17-30" transform="translate(45.690477 0)scale(0.996264)"/>
      </g>
     </g>
    </g>
    <g id="xtick_8">
     <g id="line2d_8">
      <g>
       <use xlink:href="#m966ce2352e" x="320.22973" y="224.28" style="fill: #4c4f69; stroke: #4c4f69; stroke-width: 0.8"/>
      </g>
     </g>
     <g id="text_8">
      <!-- $\mathdefault{60}$ -->
      <g style="fill: #4c4f69" transform="translate(315.248394 238.198498)scale(0.1 -0.1)">
       <use xlink:href="#CMR17-36" transform="scale(0.996264)"/>
       <use xlink:href="#CMR17-30" transform="translate(45.690477 0)scale(0.996264)"/>
      </g>
     </g>
    </g>
   </g>
   <g id="matplotlib.axis_2">
    <g id="ytick_1">
     <g id="line2d_9">
      <defs>
       <path id="mddeed90cf8" d="M 0 0 
L -3.5 0 
" style="stroke: #4c4f69; stroke-width: 0.8"/>
      </defs>
      <g>
       <use xlink:href="#mddeed90cf8" x="45" y="205.701702" style="fill: #4c4f69; stroke: #4c4f69; stroke-width: 0.8"/>
      </g>
     </g>
     <g id="text_9">
      <!-- $\mathdefault{−75}$ -->
      <g style="fill: #4c4f69" transform="translate(20.288586 209.160951)scale(0.1 -0.1)">
       <defs>
        <path id="CMR17-37" d="M 2886 3955 
L 2886 4096 
L 1382 4096 
C 634 4096 621 4166 595 4288 
L 480 4288 
L 294 3104 
L 410 3104 
C 429 3226 474 3552 550 3673 
C 589 3724 1062 3724 1171 3724 
L 2579 3724 
L 1869 2670 
C 1395 1961 1069 1003 1069 166 
C 1069 89 1069 -128 1299 -128 
C 1530 -128 1530 89 1530 172 
L 1530 466 
C 1530 1514 1709 2204 2003 2644 
L 2886 3955 
z
" transform="scale(0.015625)"/>
        <path id="CMR17-35" d="M 730 3750 
C 794 3724 1056 3641 1325 3641 
C 1920 3641 2246 3961 2432 4140 
C 2432 4191 2432 4224 2394 4224 
C 2387 4224 2374 4224 2323 4198 
C 2099 4102 1837 4032 1517 4032 
C 1325 4032 1037 4055 723 4191 
C 653 4224 640 4224 634 4224 
C 602 4224 595 4217 595 4090 
L 595 2231 
C 595 2113 595 2080 659 2080 
C 691 2080 704 2093 736 2139 
C 941 2435 1222 2560 1542 2560 
C 1766 2560 2246 2415 2246 1293 
C 2246 1087 2246 716 2054 422 
C 1894 159 1645 25 1370 25 
C 947 25 518 319 403 812 
C 429 806 480 793 506 793 
C 589 793 749 838 749 1036 
C 749 1209 627 1280 506 1280 
C 358 1280 262 1190 262 1011 
C 262 454 704 -128 1382 -128 
C 2042 -128 2669 441 2669 1267 
C 2669 2054 2170 2662 1549 2662 
C 1222 2662 947 2540 730 2304 
L 730 3750 
z
" transform="scale(0.015625)"/>
       </defs>
       <use xlink:href="#CMSY10-0" transform="scale(0.996264)"/>
       <use xlink:href="#CMR17-37" transform="translate(77.487468 0)scale(0.996264)"/>
       <use xlink:href="#CMR17-35" transform="translate(123.177945 0)scale(0.996264)"/>
      </g>
     </g>
    </g>
    <g id="ytick_2">
     <g id="line2d_10">
      <g>
       <use xlink:href="#mddeed90cf8" x="45" y="179.898511" style="fill: #4c4f69; stroke: #4c4f69; stroke-width: 0.8"/>
      </g>
     </g>
     <g id="text_10">
      <!-- $\mathdefault{−50}$ -->
      <g style="fill: #4c4f69" transform="translate(20.288586 183.35776)scale(0.1 -0.1)">
       <use xlink:href="#CMSY10-0" transform="scale(0.996264)"/>
       <use xlink:href="#CMR17-35" transform="translate(77.487468 0)scale(0.996264)"/>
       <use xlink:href="#CMR17-30" transform="translate(123.177945 0)scale(0.996264)"/>
      </g>
     </g>
    </g>
    <g id="ytick_3">
     <g id="line2d_11">
      <g>
       <use xlink:href="#mddeed90cf8" x="45" y="154.095319" style="fill: #4c4f69; stroke: #4c4f69; stroke-width: 0.8"/>
      </g>
     </g>
     <g id="text_11">
      <!-- $\mathdefault{−25}$ -->
      <g style="fill: #4c4f69" transform="translate(20.288586 157.554568)scale(0.1 -0.1)">
       <use xlink:href="#CMSY10-0" transform="scale(0.996264)"/>
       <use xlink:href="#CMR17-32" transform="translate(77.487468 0)scale(0.996264)"/>
       <use xlink:href="#CMR17-35" transform="translate(123.177945 0)scale(0.996264)"/>
      </g>
     </g>
    </g>
    <g id="ytick_4">
     <g id="line2d_12">
      <g>
       <use xlink:href="#mddeed90cf8" x="45" y="128.292128" style="fill: #4c4f69; stroke: #4c4f69; stroke-width: 0.8"/>
      </g>
     </g>
     <g id="text_12">
      <!-- $\mathdefault{0}$ -->
      <g style="fill: #4c4f69" transform="translate(33.018665 131.751377)scale(0.1 -0.1)">
       <use xlink:href="#CMR17-30" transform="scale(0.996264)"/>
      </g>
     </g>
    </g>
    <g id="ytick_5">
     <g id="line2d_13">
      <g>
       <use xlink:href="#mddeed90cf8" x="45" y="102.488936" style="fill: #4c4f69; stroke: #4c4f69; stroke-width: 0.8"/>
      </g>
     </g>
     <g id="text_13">
      <!-- $\mathdefault{25}$ -->
      <g style="fill: #4c4f69" transform="translate(28.037329 105.948185)scale(0.1 -0.1)">
       <use xlink:href="#CMR17-32" transform="scale(0.996264)"/>
       <use xlink:href="#CMR17-35" transform="translate(45.690477 0)scale(0.996264)"/>
      </g>
     </g>
    </g>
    <g id="ytick_6">
     <g id="line2d_14">
      <g>
       <use xlink:href="#mddeed90cf8" x="45" y="76.685745" style="fill: #4c4f69; stroke: #4c4f69; stroke-width: 0.8"/>
      </g>
     </g>
     <g id="text_14">
      <!-- $\mathdefault{50}$ -->
      <g style="fill: #4c4f69" transform="translate(28.037329 80.144994)scale(0.1 -0.1)">
       <use xlink:href="#CMR17-35" transform="scale(0.996264)"/>
       <use xlink:href="#CMR17-30" transform="translate(45.690477 0)scale(0.996264)"/>
      </g>
     </g>
    </g>
    <g id="ytick_7">
     <g id="line2d_15">
      <g>
       <use xlink:href="#mddeed90cf8" x="45" y="50.882553" style="fill: #4c4f69; stroke: #4c4f69; stroke-width: 0.8"/>
      </g>
     </g>
     <g id="text_15">
      <!-- $\mathdefault{75}$ -->
      <g style="fill: #4c4f69" transform="translate(28.037329 54.341802)scale(0.1 -0.1)">
       <use xlink:href="#CMR17-37" transform="scale(0.996264)"/>
       <use xlink:href="#CMR17-35" transform="translate(45.690477 0)scale(0.996264)"/>
      </g>
     </g>
    </g>
   </g>
   <g id="line2d_16">
    <path d="M 209.006757 128.292128 
L 209.006757 127.26 
L 210.891892 127.26 
L 210.891892 126.227872 
L 209.006757 126.227872 
L 209.006757 127.26 
L 209.006757 126.227872 
L 214.662162 126.227872 
L 214.662162 128.292128 
L 212.777027 128.292128 
L 212.777027 129.324255 
L 212.777027 128.292128 
L 210.891892 128.292128 
L 210.891892 127.26 
L 207.121622 127.26 
L 207.121622 125.195745 
L 207.121622 126.227872 
L 201.466216 126.227872 
L 201.466216 128.292128 
L 203.351351 128.292128 
L 203.351351 127.26 
L 205.236486 127.26 
L 205.236486 129.324255 
L 210.891892 129.324255 
L 210.891892 128.292128 
L 210.891892 129.324255 
L 214.662162 129.324255 
L 214.662162 130.356383 
L 209.006757 130.356383 
L 209.006757 130.356383 
L 209.006757 131.388511 
L 203.351351 131.388511 
L 203.351351 130.356383 
L 201.466216 130.356383 
L 203.351351 130.356383 
L 203.351351 132.420638 
L 203.351351 131.388511 
L 205.236486 131.388511 
L 203.351351 131.388511 
L 203.351351 132.420638 
L 207.121622 132.420638 
L 201.466216 132.420638 
L 203.351351 132.420638 
L 203.351351 133.452766 
L 201.466216 133.452766 
L 201.466216 132.420638 
L 199.581081 132.420638 
L 205.236486 132.420638 
L 201.466216 132.420638 
L 201.466216 133.452766 
L 203.351351 133.452766 
L 203.351351 132.420638 
L 203.351351 133.452766 
L 201.466216 133.452766 
L 203.351351 133.452766 
L 203.351351 130.356383 
L 199.581081 130.356383 
L 199.581081 131.388511 
L 199.581081 126.227872 
L 199.581081 127.26 
L 205.236486 127.26 
L 205.236486 126.227872 
L 203.351351 126.227872 
L 203.351351 127.26 
L 203.351351 126.227872 
L 210.891892 126.227872 
L 207.121622 126.227872 
L 207.121622 125.195745 
L 203.351351 125.195745 
L 207.121622 125.195745 
L 207.121622 127.26 
L 207.121622 126.227872 
L 205.236486 126.227872 
L 207.121622 126.227872 
L 207.121622 127.26 
L 207.121622 124.163617 
L 209.006757 124.163617 
L 207.121622 124.163617 
L 207.121622 123.131489 
L 203.351351 123.131489 
L 203.351351 122.099362 
L 203.351351 124.163617 
L 201.466216 124.163617 
L 203.351351 124.163617 
L 203.351351 126.227872 
L 201.466216 126.227872 
L 205.236486 126.227872 
L 205.236486 125.195745 
L 203.351351 125.195745 
L 203.351351 124.163617 
L 207.121622 124.163617 
L 205.236486 124.163617 
L 205.236486 123.131489 
L 203.351351 123.131489 
L 203.351351 125.195745 
L 205.236486 125.195745 
L 203.351351 125.195745 
L 203.351351 124.163617 
L 201.466216 124.163617 
L 205.236486 124.163617 
L 205.236486 125.195745 
L 207.121622 125.195745 
L 207.121622 126.227872 
L 207.121622 125.195745 
L 214.662162 125.195745 
L 214.662162 124.163617 
L 214.662162 125.195745 
L 209.006757 125.195745 
L 216.547297 125.195745 
L 216.547297 126.227872 
L 216.547297 125.195745 
L 218.432432 125.195745 
L 218.432432 126.227872 
L 220.317568 126.227872 
L 220.317568 125.195745 
L 224.087838 125.195745 
L 218.432432 125.195745 
L 218.432432 124.163617 
L 214.662162 124.163617 
L 214.662162 124.163617 
L 214.662162 125.195745 
L 212.777027 125.195745 
L 214.662162 125.195745 
L 214.662162 124.163617 
L 214.662162 125.195745 
L 212.777027 125.195745 
L 220.317568 125.195745 
L 220.317568 124.163617 
L 220.317568 125.195745 
L 222.202703 125.195745 
L 222.202703 123.131489 
L 220.317568 123.131489 
L 220.317568 122.099362 
L 220.317568 125.195745 
L 222.202703 125.195745 
L 222.202703 127.26 
L 224.087838 127.26 
L 220.317568 127.26 
L 220.317568 129.324255 
L 218.432432 129.324255 
L 218.432432 128.292128 
L 218.432432 129.324255 
L 216.547297 129.324255 
L 216.547297 128.292128 
L 214.662162 128.292128 
L 216.547297 128.292128 
L 216.547297 129.324255 
L 212.777027 129.324255 
L 212.777027 127.26 
L 214.662162 127.26 
L 210.891892 127.26 
L 210.891892 126.227872 
L 212.777027 126.227872 
L 212.777027 124.163617 
L 212.777027 125.195745 
L 214.662162 125.195745 
L 214.662162 123.131489 
L 214.662162 124.163617 
L 216.547297 124.163617 
L 216.547297 123.131489 
L 216.547297 124.163617 
L 218.432432 124.163617 
L 218.432432 123.131489 
L 216.547297 123.131489 
L 216.547297 121.067234 
L 218.432432 121.067234 
L 216.547297 121.067234 
L 216.547297 120.035106 
L 216.547297 120.035106 
L 212.777027 120.035106 
L 212.777027 122.099362 
L 212.777027 117.970851 
L 214.662162 117.970851 
L 214.662162 116.938723 
L 214.662162 116.938723 
L 212.777027 116.938723 
L 212.777027 115.906596 
L 210.891892 115.906596 
L 210.891892 120.035106 
L 209.006757 120.035106 
L 209.006757 117.970851 
L 207.121622 117.970851 
L 207.121622 120.035106 
L 209.006757 120.035106 
L 209.006757 120.035106 
L 209.006757 119.002979 
L 209.006757 120.035106 
L 207.121622 120.035106 
L 207.121622 119.002979 
L 209.006757 119.002979 
L 209.006757 117.970851 
L 209.006757 119.002979 
L 207.121622 119.002979 
L 209.006757 119.002979 
L 209.006757 121.067234 
L 205.236486 121.067234 
L 209.006757 121.067234 
L 209.006757 123.131489 
L 209.006757 123.131489 
L 207.121622 123.131489 
L 207.121622 124.163617 
L 209.006757 124.163617 
L 209.006757 126.227872 
L 210.891892 126.227872 
L 210.891892 128.292128 
L 207.121622 128.292128 
L 207.121622 127.26 
L 207.121622 129.324255 
L 209.006757 129.324255 
L 207.121622 129.324255 
L 207.121622 130.356383 
L 209.006757 130.356383 
L 203.351351 130.356383 
L 203.351351 129.324255 
L 199.581081 129.324255 
L 201.466216 129.324255 
L 201.466216 130.356383 
L 203.351351 130.356383 
L 203.351351 132.420638 
L 203.351351 132.420638 
L 201.466216 132.420638 
L 201.466216 131.388511 
L 199.581081 131.388511 
L 201.466216 131.388511 
L 201.466216 132.420638 
L 199.581081 132.420638 
L 199.581081 135.517021 
L 197.695946 135.517021 
L 199.581081 135.517021 
L 199.581081 134.484894 
L 199.581081 138.613404 
L 197.695946 138.613404 
L 197.695946 140.67766 
L 197.695946 140.67766 
L 192.040541 140.67766 
L 192.040541 137.581277 
L 192.040541 137.581277 
L 190.155405 137.581277 
L 190.155405 138.613404 
L 190.155405 138.613404 
L 192.040541 138.613404 
L 192.040541 137.581277 
L 192.040541 137.581277 
L 193.925676 137.581277 
L 193.925676 138.613404 
L 192.040541 138.613404 
L 192.040541 137.581277 
L 192.040541 139.645532 
L 192.040541 138.613404 
L 188.27027 138.613404 
L 190.155405 138.613404 
L 190.155405 137.581277 
L 190.155405 139.645532 
L 190.155405 139.645532 
L 188.27027 139.645532 
L 192.040541 139.645532 
L 192.040541 138.613404 
L 190.155405 138.613404 
L 190.155405 137.581277 
L 192.040541 137.581277 
L 192.040541 136.549149 
L 190.155405 136.549149 
L 192.040541 136.549149 
L 192.040541 137.581277 
L 193.925676 137.581277 
L 192.040541 137.581277 
L 192.040541 138.613404 
L 190.155405 138.613404 
L 190.155405 136.549149 
L 188.27027 136.549149 
L 190.155405 136.549149 
L 190.155405 137.581277 
L 186.385135 137.581277 
L 186.385135 136.549149 
L 184.5 136.549149 
L 184.5 137.581277 
L 182.614865 137.581277 
L 184.5 137.581277 
L 184.5 136.549149 
L 184.5 139.645532 
L 188.27027 139.645532 
L 188.27027 140.67766 
L 188.27027 139.645532 
L 186.385135 139.645532 
L 186.385135 138.613404 
L 188.27027 138.613404 
L 188.27027 137.581277 
L 190.155405 137.581277 
L 190.155405 136.549149 
L 188.27027 136.549149 
L 188.27027 138.613404 
L 190.155405 138.613404 
L 188.27027 138.613404 
L 188.27027 137.581277 
L 186.385135 137.581277 
L 186.385135 136.549149 
L 184.5 136.549149 
L 188.27027 136.549149 
L 188.27027 135.517021 
L 186.385135 135.517021 
L 186.385135 137.581277 
L 184.5 137.581277 
L 184.5 138.613404 
L 182.614865 138.613404 
L 182.614865 139.645532 
L 190.155405 139.645532 
L 190.155405 139.645532 
L 190.155405 140.67766 
L 192.040541 140.67766 
L 192.040541 141.709787 
L 192.040541 140.67766 
L 190.155405 140.67766 
L 190.155405 144.80617 
L 190.155405 144.80617 
L 188.27027 144.80617 
L 188.27027 147.902553 
L 184.5 147.902553 
L 186.385135 147.902553 
L 186.385135 148.934681 
L 186.385135 147.902553 
L 190.155405 147.902553 
L 190.155405 147.902553 
" clip-path="url(#pe41d535d58)" style="fill: none; stroke: #dd7878; stroke-width: 0.75; stroke-linecap: square"/>
   </g>
   <g id="line2d_17">
    <path d="M 205.236486 128.292128 
L 209.006757 128.292128 
L 209.006757 128.292128 
L 209.006757 129.324255 
L 209.006757 128.292128 
L 207.121622 128.292128 
L 207.121622 127.26 
L 207.121622 128.292128 
L 210.891892 128.292128 
L 210.891892 127.26 
L 209.006757 127.26 
L 212.777027 127.26 
L 212.777027 126.227872 
L 210.891892 126.227872 
L 212.777027 126.227872 
L 212.777027 125.195745 
L 207.121622 125.195745 
L 207.121622 124.163617 
L 209.006757 124.163617 
L 209.006757 125.195745 
L 207.121622 125.195745 
L 207.121622 127.26 
L 207.121622 126.227872 
L 205.236486 126.227872 
L 209.006757 126.227872 
L 209.006757 127.26 
L 209.006757 127.26 
L 207.121622 127.26 
L 207.121622 126.227872 
L 207.121622 128.292128 
L 203.351351 128.292128 
L 203.351351 129.324255 
L 207.121622 129.324255 
L 207.121622 131.388511 
L 207.121622 131.388511 
L 203.351351 131.388511 
L 203.351351 132.420638 
L 203.351351 130.356383 
L 201.466216 130.356383 
L 201.466216 131.388511 
L 201.466216 130.356383 
L 203.351351 130.356383 
L 203.351351 129.324255 
L 207.121622 129.324255 
L 205.236486 129.324255 
L 205.236486 130.356383 
L 209.006757 130.356383 
L 209.006757 131.388511 
L 209.006757 130.356383 
L 207.121622 130.356383 
L 207.121622 129.324255 
L 207.121622 131.388511 
L 209.006757 131.388511 
L 209.006757 133.452766 
L 209.006757 132.420638 
L 207.121622 132.420638 
L 210.891892 132.420638 
L 210.891892 131.388511 
L 214.662162 131.388511 
L 212.777027 131.388511 
L 212.777027 132.420638 
L 212.777027 132.420638 
L 214.662162 132.420638 
L 214.662162 131.388511 
L 216.547297 131.388511 
L 216.547297 130.356383 
L 218.432432 130.356383 
L 218.432432 132.420638 
L 218.432432 131.388511 
L 214.662162 131.388511 
L 214.662162 133.452766 
L 214.662162 132.420638 
L 212.777027 132.420638 
L 212.777027 131.388511 
L 212.777027 131.388511 
L 209.006757 131.388511 
L 210.891892 131.388511 
L 210.891892 132.420638 
L 210.891892 130.356383 
L 212.777027 130.356383 
L 212.777027 129.324255 
L 210.891892 129.324255 
L 212.777027 129.324255 
L 212.777027 131.388511 
L 214.662162 131.388511 
L 214.662162 130.356383 
L 216.547297 130.356383 
L 214.662162 130.356383 
L 214.662162 129.324255 
L 216.547297 129.324255 
L 216.547297 128.292128 
L 216.547297 130.356383 
L 218.432432 130.356383 
L 218.432432 133.452766 
L 220.317568 133.452766 
L 220.317568 131.388511 
L 216.547297 131.388511 
L 216.547297 130.356383 
L 216.547297 135.517021 
L 218.432432 135.517021 
L 218.432432 136.549149 
L 220.317568 136.549149 
L 216.547297 136.549149 
L 216.547297 137.581277 
L 216.547297 136.549149 
L 214.662162 136.549149 
L 218.432432 136.549149 
L 218.432432 135.517021 
L 220.317568 135.517021 
L 220.317568 137.581277 
L 220.317568 137.581277 
L 222.202703 137.581277 
L 222.202703 136.549149 
L 218.432432 136.549149 
L 218.432432 135.517021 
L 220.317568 135.517021 
L 220.317568 134.484894 
L 220.317568 137.581277 
L 222.202703 137.581277 
L 222.202703 140.67766 
L 224.087838 140.67766 
L 224.087838 139.645532 
L 224.087838 140.67766 
L 227.858108 140.67766 
L 227.858108 141.709787 
L 227.858108 139.645532 
L 227.858108 140.67766 
L 229.743243 140.67766 
L 229.743243 139.645532 
L 229.743243 144.80617 
L 227.858108 144.80617 
L 227.858108 145.838298 
L 229.743243 145.838298 
L 227.858108 145.838298 
L 227.858108 146.870426 
L 229.743243 146.870426 
L 229.743243 150.998936 
L 227.858108 150.998936 
L 227.858108 152.031064 
L 231.628378 152.031064 
L 231.628378 153.063191 
L 233.513514 153.063191 
L 233.513514 152.031064 
L 235.398649 152.031064 
L 235.398649 149.966809 
L 235.398649 150.998936 
L 233.513514 150.998936 
L 233.513514 155.127447 
L 235.398649 155.127447 
L 233.513514 155.127447 
L 233.513514 154.095319 
L 231.628378 154.095319 
L 231.628378 155.127447 
L 231.628378 155.127447 
L 229.743243 155.127447 
L 229.743243 156.159574 
L 231.628378 156.159574 
L 231.628378 157.191702 
L 233.513514 157.191702 
L 233.513514 158.22383 
L 229.743243 158.22383 
L 229.743243 159.255957 
L 225.972973 159.255957 
L 225.972973 157.191702 
L 225.972973 158.22383 
L 233.513514 158.22383 
L 233.513514 159.255957 
L 227.858108 159.255957 
L 227.858108 161.320213 
L 229.743243 161.320213 
L 229.743243 162.35234 
L 231.628378 162.35234 
L 231.628378 164.416596 
L 235.398649 164.416596 
L 235.398649 166.480851 
L 239.168919 166.480851 
L 237.283784 166.480851 
L 237.283784 165.448723 
L 237.283784 165.448723 
L 233.513514 165.448723 
L 233.513514 167.512979 
L 235.398649 167.512979 
L 235.398649 165.448723 
L 233.513514 165.448723 
L 233.513514 166.480851 
L 231.628378 166.480851 
L 231.628378 167.512979 
L 229.743243 167.512979 
L 229.743243 166.480851 
L 229.743243 168.545106 
L 233.513514 168.545106 
L 233.513514 169.577234 
L 235.398649 169.577234 
L 235.398649 171.641489 
L 233.513514 171.641489 
L 233.513514 170.609362 
L 233.513514 171.641489 
L 231.628378 171.641489 
L 233.513514 171.641489 
L 233.513514 170.609362 
L 229.743243 170.609362 
L 231.628378 170.609362 
L 231.628378 169.577234 
L 231.628378 169.577234 
L 233.513514 169.577234 
L 233.513514 168.545106 
L 235.398649 168.545106 
L 235.398649 167.512979 
L 235.398649 170.609362 
L 237.283784 170.609362 
L 237.283784 171.641489 
L 235.398649 171.641489 
L 235.398649 176.802128 
L 233.513514 176.802128 
L 233.513514 180.930638 
L 235.398649 180.930638 
L 235.398649 181.962766 
L 233.513514 181.962766 
L 235.398649 181.962766 
L 235.398649 182.994894 
L 235.398649 181.962766 
L 233.513514 181.962766 
L 233.513514 180.930638 
L 235.398649 180.930638 
L 235.398649 184.027021 
L 239.168919 184.027021 
L 239.168919 181.962766 
L 241.054054 181.962766 
L 241.054054 180.930638 
L 242.939189 180.930638 
L 242.939189 181.962766 
L 244.824324 181.962766 
L 244.824324 184.027021 
L 246.709459 184.027021 
L 246.709459 181.962766 
L 244.824324 181.962766 
L 244.824324 182.994894 
L 244.824324 182.994894 
L 241.054054 182.994894 
L 241.054054 184.027021 
L 239.168919 184.027021 
L 241.054054 184.027021 
L 241.054054 185.059149 
L 241.054054 182.994894 
L 242.939189 182.994894 
L 242.939189 181.962766 
L 241.054054 181.962766 
L 241.054054 181.962766 
L 241.054054 185.059149 
L 241.054054 184.027021 
L 242.939189 184.027021 
L 242.939189 185.059149 
L 239.168919 185.059149 
L 239.168919 182.994894 
L 239.168919 186.091277 
L 242.939189 186.091277 
L 242.939189 185.059149 
L 244.824324 185.059149 
L 244.824324 186.091277 
L 242.939189 186.091277 
L 242.939189 185.059149 
L 244.824324 185.059149 
L 244.824324 184.027021 
L 248.594595 184.027021 
L 248.594595 185.059149 
L 246.709459 185.059149 
L 246.709459 187.123404 
L 248.594595 187.123404 
L 244.824324 187.123404 
L 244.824324 188.155532 
L 252.364865 188.155532 
L 252.364865 189.18766 
L 254.25 189.18766 
L 252.364865 189.18766 
L 252.364865 191.251915 
L 254.25 191.251915 
L 254.25 189.18766 
L 256.135135 189.18766 
L 256.135135 191.251915 
L 252.364865 191.251915 
L 252.364865 193.31617 
L 248.594595 193.31617 
L 250.47973 193.31617 
L 250.47973 192.284043 
L 248.594595 192.284043 
L 248.594595 193.31617 
L 248.594595 190.219787 
L 246.709459 190.219787 
L 246.709459 189.18766 
L 244.824324 189.18766 
L 244.824324 192.284043 
L 239.168919 192.284043 
L 241.054054 192.284043 
L 241.054054 194.348298 
L 239.168919 194.348298 
L 239.168919 193.31617 
L 239.168919 194.348298 
L 235.398649 194.348298 
L 237.283784 194.348298 
L 237.283784 193.31617 
L 237.283784 196.412553 
L 235.398649 196.412553 
L 237.283784 196.412553 
L 237.283784 195.380426 
L 237.283784 195.380426 
L 235.398649 195.380426 
L 237.283784 195.380426 
L 237.283784 196.412553 
L 235.398649 196.412553 
L 235.398649 195.380426 
L 237.283784 195.380426 
L 237.283784 197.444681 
L 233.513514 197.444681 
L 233.513514 196.412553 
L 235.398649 196.412553 
L 231.628378 196.412553 
L 231.628378 198.476809 
L 233.513514 198.476809 
L 233.513514 199.508936 
L 233.513514 197.444681 
L 233.513514 199.508936 
L 235.398649 199.508936 
L 235.398649 197.444681 
L 237.283784 197.444681 
L 237.283784 198.476809 
L 237.283784 198.476809 
" clip-path="url(#pe41d535d58)" style="fill: none; stroke: #8839ef; stroke-width: 0.75; stroke-linecap: square"/>
   </g>
   <g id="line2d_18">
    <path d="M 209.006757 128.292128 
L 210.891892 128.292128 
L 210.891892 130.356383 
L 209.006757 130.356383 
L 209.006757 132.420638 
L 207.121622 132.420638 
L 207.121622 133.452766 
L 205.236486 133.452766 
L 205.236486 134.484894 
L 207.121622 134.484894 
L 207.121622 136.549149 
L 205.236486 136.549149 
L 205.236486 137.581277 
L 203.351351 137.581277 
L 203.351351 138.613404 
L 203.351351 138.613404 
L 201.466216 138.613404 
L 201.466216 137.581277 
L 203.351351 137.581277 
L 203.351351 136.549149 
L 199.581081 136.549149 
L 201.466216 136.549149 
L 201.466216 137.581277 
L 203.351351 137.581277 
L 199.581081 137.581277 
L 199.581081 136.549149 
L 199.581081 137.581277 
L 201.466216 137.581277 
L 201.466216 136.549149 
L 201.466216 137.581277 
L 199.581081 137.581277 
L 199.581081 138.613404 
L 197.695946 138.613404 
L 203.351351 138.613404 
L 203.351351 137.581277 
L 201.466216 137.581277 
L 201.466216 138.613404 
L 203.351351 138.613404 
L 203.351351 139.645532 
L 199.581081 139.645532 
L 199.581081 141.709787 
L 197.695946 141.709787 
L 197.695946 142.741915 
L 203.351351 142.741915 
L 203.351351 143.774043 
L 203.351351 142.741915 
L 195.810811 142.741915 
L 195.810811 143.774043 
L 195.810811 142.741915 
L 193.925676 142.741915 
L 199.581081 142.741915 
L 195.810811 142.741915 
L 195.810811 141.709787 
L 195.810811 142.741915 
L 193.925676 142.741915 
L 193.925676 140.67766 
L 193.925676 141.709787 
L 192.040541 141.709787 
L 192.040541 139.645532 
L 192.040541 140.67766 
L 193.925676 140.67766 
L 193.925676 141.709787 
L 193.925676 140.67766 
L 192.040541 140.67766 
L 197.695946 140.67766 
L 197.695946 139.645532 
L 197.695946 141.709787 
L 197.695946 139.645532 
L 199.581081 139.645532 
L 199.581081 140.67766 
L 197.695946 140.67766 
L 197.695946 141.709787 
L 199.581081 141.709787 
L 199.581081 140.67766 
L 199.581081 141.709787 
L 197.695946 141.709787 
L 197.695946 142.741915 
L 193.925676 142.741915 
L 193.925676 145.838298 
L 192.040541 145.838298 
L 192.040541 146.870426 
L 188.27027 146.870426 
L 190.155405 146.870426 
L 190.155405 147.902553 
L 188.27027 147.902553 
L 188.27027 148.934681 
L 186.385135 148.934681 
L 186.385135 147.902553 
L 184.5 147.902553 
L 188.27027 147.902553 
L 188.27027 144.80617 
L 186.385135 144.80617 
L 186.385135 148.934681 
L 184.5 148.934681 
L 184.5 149.966809 
L 182.614865 149.966809 
L 182.614865 150.998936 
L 184.5 150.998936 
L 180.72973 150.998936 
L 180.72973 152.031064 
L 182.614865 152.031064 
L 182.614865 154.095319 
L 180.72973 154.095319 
L 184.5 154.095319 
L 184.5 152.031064 
L 186.385135 152.031064 
L 184.5 152.031064 
L 184.5 153.063191 
L 182.614865 153.063191 
L 182.614865 152.031064 
L 180.72973 152.031064 
L 180.72973 154.095319 
L 180.72973 153.063191 
L 178.844595 153.063191 
L 178.844595 154.095319 
L 175.074324 154.095319 
L 175.074324 153.063191 
L 175.074324 153.063191 
L 173.189189 153.063191 
L 173.189189 154.095319 
L 169.418919 154.095319 
L 175.074324 154.095319 
L 171.304054 154.095319 
L 171.304054 155.127447 
L 171.304054 155.127447 
L 173.189189 155.127447 
L 173.189189 157.191702 
L 171.304054 157.191702 
L 173.189189 157.191702 
L 173.189189 155.127447 
L 173.189189 156.159574 
L 171.304054 156.159574 
L 171.304054 159.255957 
L 171.304054 158.22383 
L 175.074324 158.22383 
L 175.074324 159.255957 
L 173.189189 159.255957 
L 173.189189 162.35234 
L 173.189189 159.255957 
L 175.074324 159.255957 
L 175.074324 157.191702 
L 175.074324 158.22383 
L 173.189189 158.22383 
L 173.189189 158.22383 
L 173.189189 157.191702 
L 169.418919 157.191702 
L 169.418919 158.22383 
L 171.304054 158.22383 
L 171.304054 161.320213 
L 169.418919 161.320213 
L 169.418919 160.288085 
L 169.418919 160.288085 
L 173.189189 160.288085 
L 171.304054 160.288085 
L 171.304054 162.35234 
L 169.418919 162.35234 
L 171.304054 162.35234 
L 171.304054 160.288085 
L 171.304054 161.320213 
L 173.189189 161.320213 
L 173.189189 162.35234 
L 171.304054 162.35234 
L 171.304054 163.384468 
L 175.074324 163.384468 
L 173.189189 163.384468 
L 173.189189 162.35234 
L 169.418919 162.35234 
L 169.418919 161.320213 
L 169.418919 162.35234 
L 171.304054 162.35234 
L 171.304054 163.384468 
L 169.418919 163.384468 
L 169.418919 164.416596 
L 171.304054 164.416596 
L 171.304054 165.448723 
L 173.189189 165.448723 
L 173.189189 168.545106 
L 173.189189 167.512979 
L 175.074324 167.512979 
L 173.189189 167.512979 
L 173.189189 168.545106 
L 173.189189 167.512979 
L 176.959459 167.512979 
L 176.959459 170.609362 
L 178.844595 170.609362 
L 178.844595 172.673617 
L 178.844595 171.641489 
L 175.074324 171.641489 
L 176.959459 171.641489 
L 176.959459 168.545106 
L 176.959459 169.577234 
L 175.074324 169.577234 
L 175.074324 168.545106 
L 175.074324 171.641489 
L 173.189189 171.641489 
L 173.189189 174.737872 
L 173.189189 174.737872 
L 171.304054 174.737872 
L 173.189189 174.737872 
L 173.189189 175.77 
L 173.189189 173.705745 
L 173.189189 175.77 
L 175.074324 175.77 
L 175.074324 174.737872 
L 173.189189 174.737872 
L 175.074324 174.737872 
L 175.074324 175.77 
L 173.189189 175.77 
L 173.189189 176.802128 
L 175.074324 176.802128 
L 175.074324 175.77 
L 176.959459 175.77 
L 173.189189 175.77 
L 173.189189 177.834255 
L 176.959459 177.834255 
L 176.959459 181.962766 
L 178.844595 181.962766 
L 178.844595 182.994894 
L 178.844595 181.962766 
L 176.959459 181.962766 
L 176.959459 184.027021 
L 178.844595 184.027021 
L 178.844595 182.994894 
L 178.844595 186.091277 
L 176.959459 186.091277 
L 178.844595 186.091277 
L 178.844595 187.123404 
L 178.844595 185.059149 
L 180.72973 185.059149 
L 180.72973 187.123404 
L 180.72973 187.123404 
L 182.614865 187.123404 
L 182.614865 187.123404 
L 182.614865 189.18766 
L 180.72973 189.18766 
L 184.5 189.18766 
L 184.5 191.251915 
L 182.614865 191.251915 
L 188.27027 191.251915 
L 188.27027 192.284043 
L 190.155405 192.284043 
L 190.155405 193.31617 
L 188.27027 193.31617 
L 188.27027 194.348298 
L 186.385135 194.348298 
L 186.385135 195.380426 
L 188.27027 195.380426 
L 186.385135 195.380426 
L 186.385135 194.348298 
L 186.385135 196.412553 
L 186.385135 195.380426 
L 184.5 195.380426 
L 186.385135 195.380426 
L 186.385135 197.444681 
L 184.5 197.444681 
L 184.5 196.412553 
L 184.5 199.508936 
L 184.5 198.476809 
L 186.385135 198.476809 
L 186.385135 199.508936 
L 184.5 199.508936 
L 184.5 200.541064 
L 182.614865 200.541064 
L 184.5 200.541064 
L 184.5 201.573191 
L 180.72973 201.573191 
L 180.72973 199.508936 
L 176.959459 199.508936 
L 176.959459 202.605319 
L 178.844595 202.605319 
L 176.959459 202.605319 
L 176.959459 201.573191 
L 178.844595 201.573191 
L 178.844595 203.637447 
L 182.614865 203.637447 
L 182.614865 202.605319 
L 184.5 202.605319 
L 184.5 201.573191 
L 184.5 202.605319 
L 182.614865 202.605319 
L 184.5 202.605319 
L 184.5 204.669574 
L 182.614865 204.669574 
L 182.614865 207.765957 
L 180.72973 207.765957 
L 180.72973 208.798085 
L 176.959459 208.798085 
L 178.844595 208.798085 
L 178.844595 207.765957 
L 176.959459 207.765957 
L 178.844595 207.765957 
L 178.844595 206.73383 
L 180.72973 206.73383 
L 178.844595 206.73383 
L 178.844595 209.830213 
L 175.074324 209.830213 
L 175.074324 208.798085 
L 176.959459 208.798085 
L 176.959459 207.765957 
L 176.959459 210.86234 
L 178.844595 210.86234 
L 178.844595 208.798085 
L 180.72973 208.798085 
L 180.72973 209.830213 
L 178.844595 209.830213 
L 182.614865 209.830213 
L 182.614865 208.798085 
L 182.614865 210.86234 
L 184.5 210.86234 
L 184.5 209.830213 
L 186.385135 209.830213 
L 186.385135 208.798085 
L 184.5 208.798085 
L 184.5 209.830213 
L 184.5 208.798085 
L 180.72973 208.798085 
L 180.72973 209.830213 
L 178.844595 209.830213 
L 180.72973 209.830213 
L 180.72973 210.86234 
L 182.614865 210.86234 
L 182.614865 210.86234 
L 182.614865 212.926596 
L 180.72973 212.926596 
L 184.5 212.926596 
L 184.5 211.894468 
L 186.385135 211.894468 
L 186.385135 210.86234 
L 180.72973 210.86234 
L 182.614865 210.86234 
L 182.614865 209.830213 
L 182.614865 213.958723 
L 182.614865 213.958723 
" clip-path="url(#pe41d535d58)" style="fill: none; stroke: #df8e1d; stroke-width: 0.75; stroke-linecap: square"/>
   </g>
   <g id="line2d_19">
    <path d="M 205.236486 128.292128 
L 205.236486 127.26 
L 207.121622 127.26 
L 207.121622 128.292128 
L 209.006757 128.292128 
L 207.121622 128.292128 
L 207.121622 129.324255 
L 209.006757 129.324255 
L 205.236486 129.324255 
L 209.006757 129.324255 
L 209.006757 132.420638 
L 209.006757 131.388511 
L 207.121622 131.388511 
L 207.121622 132.420638 
L 201.466216 132.420638 
L 201.466216 132.420638 
L 201.466216 134.484894 
L 201.466216 134.484894 
L 205.236486 134.484894 
L 205.236486 137.581277 
L 205.236486 136.549149 
L 203.351351 136.549149 
L 205.236486 136.549149 
L 205.236486 140.67766 
L 205.236486 140.67766 
L 207.121622 140.67766 
L 205.236486 140.67766 
L 205.236486 139.645532 
L 203.351351 139.645532 
L 207.121622 139.645532 
L 207.121622 137.581277 
L 209.006757 137.581277 
L 207.121622 137.581277 
L 207.121622 136.549149 
L 205.236486 136.549149 
L 209.006757 136.549149 
L 209.006757 138.613404 
L 210.891892 138.613404 
L 210.891892 139.645532 
L 212.777027 139.645532 
L 212.777027 139.645532 
L 212.777027 141.709787 
L 210.891892 141.709787 
L 210.891892 140.67766 
L 210.891892 141.709787 
L 212.777027 141.709787 
L 210.891892 141.709787 
L 210.891892 140.67766 
L 212.777027 140.67766 
L 212.777027 141.709787 
L 212.777027 140.67766 
L 210.891892 140.67766 
L 210.891892 141.709787 
L 210.891892 140.67766 
L 214.662162 140.67766 
L 214.662162 138.613404 
L 214.662162 139.645532 
L 212.777027 139.645532 
L 214.662162 139.645532 
L 214.662162 140.67766 
L 214.662162 138.613404 
L 214.662162 139.645532 
L 212.777027 139.645532 
L 214.662162 139.645532 
L 214.662162 138.613404 
L 218.432432 138.613404 
L 218.432432 136.549149 
L 218.432432 139.645532 
L 216.547297 139.645532 
L 216.547297 138.613404 
L 220.317568 138.613404 
L 220.317568 137.581277 
L 216.547297 137.581277 
L 216.547297 136.549149 
L 214.662162 136.549149 
L 214.662162 135.517021 
L 209.006757 135.517021 
L 209.006757 136.549149 
L 207.121622 136.549149 
L 207.121622 135.517021 
L 205.236486 135.517021 
L 205.236486 134.484894 
L 205.236486 134.484894 
L 201.466216 134.484894 
L 201.466216 135.517021 
L 203.351351 135.517021 
L 201.466216 135.517021 
L 201.466216 133.452766 
L 197.695946 133.452766 
L 197.695946 134.484894 
L 197.695946 132.420638 
L 199.581081 132.420638 
L 199.581081 133.452766 
L 197.695946 133.452766 
L 197.695946 134.484894 
L 193.925676 134.484894 
L 193.925676 135.517021 
L 192.040541 135.517021 
L 192.040541 136.549149 
L 193.925676 136.549149 
L 193.925676 135.517021 
L 192.040541 135.517021 
L 192.040541 133.452766 
L 195.810811 133.452766 
L 195.810811 134.484894 
L 197.695946 134.484894 
L 197.695946 135.517021 
L 197.695946 134.484894 
L 193.925676 134.484894 
L 193.925676 133.452766 
L 197.695946 133.452766 
L 197.695946 135.517021 
L 199.581081 135.517021 
L 199.581081 137.581277 
L 205.236486 137.581277 
L 205.236486 137.581277 
L 205.236486 139.645532 
L 209.006757 139.645532 
L 209.006757 140.67766 
L 209.006757 138.613404 
L 210.891892 138.613404 
L 210.891892 137.581277 
L 210.891892 138.613404 
L 209.006757 138.613404 
L 209.006757 140.67766 
L 210.891892 140.67766 
L 210.891892 141.709787 
L 210.891892 138.613404 
L 212.777027 138.613404 
L 210.891892 138.613404 
L 210.891892 140.67766 
L 209.006757 140.67766 
L 209.006757 141.709787 
L 203.351351 141.709787 
L 203.351351 144.80617 
L 205.236486 144.80617 
L 205.236486 145.838298 
L 205.236486 144.80617 
L 207.121622 144.80617 
L 207.121622 143.774043 
L 199.581081 143.774043 
L 199.581081 145.838298 
L 201.466216 145.838298 
L 201.466216 144.80617 
L 203.351351 144.80617 
L 203.351351 143.774043 
L 207.121622 143.774043 
L 207.121622 142.741915 
L 207.121622 143.774043 
L 209.006757 143.774043 
L 209.006757 144.80617 
L 209.006757 144.80617 
L 210.891892 144.80617 
L 210.891892 146.870426 
L 209.006757 146.870426 
L 209.006757 147.902553 
L 210.891892 147.902553 
L 210.891892 148.934681 
L 210.891892 146.870426 
L 210.891892 148.934681 
L 212.777027 148.934681 
L 212.777027 149.966809 
L 214.662162 149.966809 
L 214.662162 148.934681 
L 216.547297 148.934681 
L 216.547297 148.934681 
L 216.547297 147.902553 
L 216.547297 147.902553 
L 218.432432 147.902553 
L 216.547297 147.902553 
L 216.547297 144.80617 
L 216.547297 145.838298 
L 218.432432 145.838298 
L 218.432432 145.838298 
L 218.432432 148.934681 
L 220.317568 148.934681 
L 220.317568 149.966809 
L 220.317568 148.934681 
L 216.547297 148.934681 
L 220.317568 148.934681 
L 220.317568 147.902553 
L 218.432432 147.902553 
L 218.432432 146.870426 
L 216.547297 146.870426 
L 218.432432 146.870426 
L 218.432432 143.774043 
L 216.547297 143.774043 
L 216.547297 145.838298 
L 214.662162 145.838298 
L 214.662162 143.774043 
L 214.662162 144.80617 
L 216.547297 144.80617 
L 212.777027 144.80617 
L 214.662162 144.80617 
L 214.662162 146.870426 
L 212.777027 146.870426 
L 212.777027 149.966809 
L 210.891892 149.966809 
L 212.777027 149.966809 
L 212.777027 152.031064 
L 212.777027 152.031064 
L 210.891892 152.031064 
L 210.891892 153.063191 
L 212.777027 153.063191 
L 212.777027 156.159574 
L 210.891892 156.159574 
L 210.891892 157.191702 
L 212.777027 157.191702 
L 212.777027 155.127447 
L 212.777027 157.191702 
L 214.662162 157.191702 
L 214.662162 156.159574 
L 214.662162 157.191702 
L 212.777027 157.191702 
L 212.777027 156.159574 
L 212.777027 159.255957 
L 210.891892 159.255957 
L 210.891892 160.288085 
L 214.662162 160.288085 
L 214.662162 159.255957 
L 218.432432 159.255957 
L 218.432432 158.22383 
L 212.777027 158.22383 
L 212.777027 159.255957 
L 210.891892 159.255957 
L 210.891892 160.288085 
L 210.891892 159.255957 
L 212.777027 159.255957 
L 212.777027 159.255957 
L 212.777027 160.288085 
L 212.777027 159.255957 
L 216.547297 159.255957 
L 216.547297 161.320213 
L 218.432432 161.320213 
L 218.432432 163.384468 
L 218.432432 162.35234 
L 220.317568 162.35234 
L 220.317568 159.255957 
L 218.432432 159.255957 
L 220.317568 159.255957 
L 220.317568 158.22383 
L 220.317568 159.255957 
L 218.432432 159.255957 
L 218.432432 161.320213 
L 220.317568 161.320213 
L 220.317568 160.288085 
L 222.202703 160.288085 
L 222.202703 157.191702 
L 224.087838 157.191702 
L 222.202703 157.191702 
L 222.202703 158.22383 
L 222.202703 158.22383 
L 220.317568 158.22383 
L 220.317568 158.22383 
L 220.317568 160.288085 
L 216.547297 160.288085 
L 216.547297 159.255957 
L 218.432432 159.255957 
L 218.432432 160.288085 
L 218.432432 159.255957 
L 220.317568 159.255957 
L 220.317568 160.288085 
L 224.087838 160.288085 
L 224.087838 161.320213 
L 224.087838 160.288085 
L 222.202703 160.288085 
L 222.202703 161.320213 
L 225.972973 161.320213 
L 224.087838 161.320213 
L 224.087838 162.35234 
L 222.202703 162.35234 
L 225.972973 162.35234 
L 225.972973 166.480851 
L 225.972973 162.35234 
L 222.202703 162.35234 
L 222.202703 161.320213 
L 224.087838 161.320213 
L 224.087838 162.35234 
L 225.972973 162.35234 
L 224.087838 162.35234 
L 224.087838 163.384468 
L 225.972973 163.384468 
L 225.972973 161.320213 
L 224.087838 161.320213 
L 224.087838 161.320213 
L 224.087838 159.255957 
L 224.087838 160.288085 
L 222.202703 160.288085 
L 222.202703 159.255957 
L 225.972973 159.255957 
L 224.087838 159.255957 
L 224.087838 158.22383 
L 222.202703 158.22383 
L 222.202703 157.191702 
L 220.317568 157.191702 
L 222.202703 157.191702 
L 222.202703 156.159574 
L 220.317568 156.159574 
L 220.317568 163.384468 
L 222.202703 163.384468 
L 222.202703 161.320213 
L 222.202703 164.416596 
L 225.972973 164.416596 
L 212.777027 164.416596 
L 214.662162 164.416596 
L 214.662162 162.35234 
L 214.662162 163.384468 
L 210.891892 163.384468 
L 210.891892 164.416596 
L 210.891892 163.384468 
L 212.777027 163.384468 
L 212.777027 164.416596 
L 214.662162 164.416596 
L 214.662162 165.448723 
L 216.547297 165.448723 
L 210.891892 165.448723 
L 210.891892 166.480851 
L 210.891892 165.448723 
L 214.662162 165.448723 
L 214.662162 164.416596 
L 210.891892 164.416596 
L 210.891892 165.448723 
L 212.777027 165.448723 
L 212.777027 166.480851 
L 214.662162 166.480851 
L 214.662162 165.448723 
L 214.662162 166.480851 
L 216.547297 166.480851 
L 216.547297 166.480851 
" clip-path="url(#pe41d535d58)" style="fill: none; stroke: #40a02b; stroke-width: 0.75; stroke-linecap: square"/>
   </g>
   <g id="patch_3">
    <path d="M 45 224.28 
L 45 30.24 
" style="fill: none; stroke: #4c4f69; stroke-width: 0.8; stroke-linejoin: miter; stroke-linecap: square"/>
   </g>
   <g id="patch_4">
    <path d="M 324 224.28 
L 324 30.24 
" style="fill: none; stroke: #4c4f69; stroke-width: 0.8; stroke-linejoin: miter; stroke-linecap: square"/>
   </g>
   <g id="patch_5">
    <path d="M 45 224.28 
L 324 224.28 
" style="fill: none; stroke: #4c4f69; stroke-width: 0.8; stroke-linejoin: miter; stroke-linecap: square"/>
   </g>
   <g id="patch_6">
    <path d="M 45 30.24 
L 324 30.24 
" style="fill: none; stroke: #4c4f69; stroke-width: 0.8; stroke-linejoin: miter; stroke-linecap: square"/>
   </g>
   <g id="legend_1">
    <g id="patch_7">
     <path d="M 254.281789 93.988713 
L 317 93.988713 
Q 319 93.988713 319 91.988713 
L 319 37.24 
Q 319 35.24 317 35.24 
L 254.281789 35.24 
Q 252.281789 35.24 252.281789 37.24 
L 252.281789 91.988713 
Q 252.281789 93.988713 254.281789 93.988713 
z
" style="fill: #dce0e8; opacity: 0.8; stroke: #4c4f69; stroke-linejoin: miter"/>
    </g>
    <g id="line2d_20">
     <path d="M 256.281789 42.74 
L 266.281789 42.74 
L 276.281789 42.74 
" style="fill: none; stroke: #dd7878; stroke-width: 0.75; stroke-linecap: square"/>
    </g>
    <g id="text_16">
     <!-- Walk 1 -->
     <g style="fill: #4c4f69" transform="translate(284.281789 46.24)scale(0.1 -0.1)">
      <defs>
       <path id="CMR17-57" d="M 5523 3775 
C 5581 3948 5677 4173 6048 4185 
L 6048 4352 
C 5939 4345 5715 4339 5600 4339 
C 5440 4339 5158 4339 5005 4352 
L 5005 4185 
C 5293 4179 5414 4019 5414 3865 
C 5414 3820 5408 3794 5382 3724 
L 4390 557 
L 3347 3890 
C 3328 3955 3322 3980 3322 4006 
C 3322 4185 3603 4185 3725 4185 
L 3725 4352 
C 3539 4339 3219 4339 3021 4339 
C 2861 4339 2573 4339 2426 4352 
L 2426 4185 
C 2720 4185 2797 4166 2861 4051 
C 2886 3993 2989 3660 2989 3640 
C 2989 3615 2976 3576 2970 3557 
L 2029 564 
L 986 3890 
C 954 3980 954 3993 954 4006 
C 954 4185 1235 4185 1363 4185 
L 1363 4352 
C 1178 4339 858 4339 659 4339 
C 493 4339 211 4339 58 4352 
L 58 4185 
C 442 4185 467 4147 531 3942 
L 1779 -20 
C 1811 -116 1811 -128 1869 -128 
C 1920 -128 1939 -116 1965 -26 
L 3053 3448 
L 4141 -26 
C 4166 -116 4186 -128 4237 -128 
C 4294 -128 4294 -116 4326 -20 
L 5523 3775 
z
" transform="scale(0.015625)"/>
       <path id="CMR17-61" d="M 2304 1656 
C 2304 2048 2304 2275 2035 2534 
C 1798 2751 1523 2816 1306 2816 
C 800 2816 435 2408 435 1977 
C 435 1740 627 1728 666 1728 
C 749 1728 896 1779 896 1958 
C 896 2118 774 2188 666 2188 
C 640 2188 608 2182 589 2176 
C 723 2594 1069 2713 1293 2713 
C 1613 2713 1965 2421 1965 1875 
L 1965 1632 
C 1587 1619 1133 1568 774 1373 
C 371 1147 256 822 256 576 
C 256 77 832 -64 1171 -64 
C 1523 -64 1850 135 1990 505 
C 2003 219 2182 -39 2464 -39 
C 2598 -39 2938 51 2938 563 
L 2938 926 
L 2822 926 
L 2822 557 
C 2822 161 2650 109 2566 109 
C 2304 109 2304 446 2304 732 
L 2304 1656 
z
M 1965 887 
C 1965 323 1568 38 1216 38 
C 896 38 646 278 646 576 
C 646 771 730 1114 1101 1322 
C 1408 1497 1760 1523 1965 1536 
L 1965 887 
z
" transform="scale(0.015625)"/>
       <path id="CMR17-6c" d="M 979 4416 
L 218 4345 
L 218 4179 
C 595 4179 653 4141 653 3835 
L 653 439 
C 653 198 627 166 218 166 
L 218 0 
C 371 12 653 12 813 12 
C 979 12 1261 12 1414 0 
L 1414 166 
C 1005 166 979 191 979 439 
L 979 4416 
z
" transform="scale(0.015625)"/>
       <path id="CMR17-6b" d="M 1670 1679 
C 1664 1692 1632 1730 1632 1749 
C 1632 1762 2086 2175 2144 2226 
C 2509 2532 2739 2563 2906 2570 
L 2906 2735 
C 2867 2735 2854 2735 2848 2729 
L 2534 2722 
C 2355 2722 2080 2722 1907 2735 
L 1907 2570 
C 1997 2563 2061 2513 2061 2423 
C 2061 2296 1933 2175 1926 2175 
L 960 1298 
L 960 4416 
L 198 4345 
L 198 4179 
C 576 4179 634 4141 634 3835 
L 634 439 
C 634 198 608 166 198 166 
L 198 0 
C 352 12 634 12 794 12 
C 954 12 1235 12 1389 0 
L 1389 166 
C 979 166 954 191 954 439 
L 954 1139 
L 1395 1540 
L 2042 586 
C 2118 471 2182 382 2182 299 
C 2182 185 2067 166 1990 166 
L 1990 0 
C 2144 12 2419 12 2579 12 
C 2694 12 2931 6 3040 0 
L 3040 166 
C 2739 166 2669 223 2477 503 
L 1670 1679 
z
" transform="scale(0.015625)"/>
       <path id="CMR17-31" d="M 1702 4083 
C 1702 4217 1696 4224 1606 4224 
C 1357 3927 979 3833 621 3820 
C 602 3820 570 3820 563 3808 
C 557 3795 557 3782 557 3648 
C 755 3648 1088 3686 1344 3839 
L 1344 467 
C 1344 243 1331 166 781 166 
L 589 166 
L 589 0 
C 896 6 1216 12 1523 12 
C 1830 12 2150 6 2458 0 
L 2458 166 
L 2266 166 
C 1715 166 1702 236 1702 467 
L 1702 4083 
z
" transform="scale(0.015625)"/>
      </defs>
      <use xlink:href="#CMR17-57" transform="scale(0.996264)"/>
      <use xlink:href="#CMR17-61" transform="translate(87.289395 0)scale(0.996264)"/>
      <use xlink:href="#CMR17-6c" transform="translate(132.979872 0)scale(0.996264)"/>
      <use xlink:href="#CMR17-6b" transform="translate(157.85093 0)scale(0.996264)"/>
      <use xlink:href="#CMR17-31" transform="translate(236.219812 0)scale(0.996264)"/>
     </g>
    </g>
    <g id="line2d_21">
     <path d="M 256.281789 56.677178 
L 266.281789 56.677178 
L 276.281789 56.677178 
" style="fill: none; stroke: #8839ef; stroke-width: 0.75; stroke-linecap: square"/>
    </g>
    <g id="text_17">
     <!-- Walk 2 -->
     <g style="fill: #4c4f69" transform="translate(284.281789 60.177178)scale(0.1 -0.1)">
      <use xlink:href="#CMR17-57" transform="scale(0.996264)"/>
      <use xlink:href="#CMR17-61" transform="translate(87.289395 0)scale(0.996264)"/>
      <use xlink:href="#CMR17-6c" transform="translate(132.979872 0)scale(0.996264)"/>
      <use xlink:href="#CMR17-6b" transform="translate(157.85093 0)scale(0.996264)"/>
      <use xlink:href="#CMR17-32" transform="translate(236.219812 0)scale(0.996264)"/>
     </g>
    </g>
    <g id="line2d_22">
     <path d="M 256.281789 70.614357 
L 266.281789 70.614357 
L 276.281789 70.614357 
" style="fill: none; stroke: #df8e1d; stroke-width: 0.75; stroke-linecap: square"/>
    </g>
    <g id="text_18">
     <!-- Walk 3 -->
     <g style="fill: #4c4f69" transform="translate(284.281789 74.114357)scale(0.1 -0.1)">
      <defs>
       <path id="CMR17-33" d="M 1414 2176 
C 1984 2176 2234 1673 2234 1094 
C 2234 322 1824 25 1453 25 
C 1114 25 563 193 390 691 
C 422 678 454 678 486 678 
C 640 678 755 780 755 947 
C 755 1132 614 1216 486 1216 
C 378 1216 211 1164 211 927 
C 211 335 787 -128 1466 -128 
C 2176 -128 2720 432 2720 1087 
C 2720 1718 2208 2176 1600 2246 
C 2086 2347 2554 2776 2554 3353 
C 2554 3856 2048 4224 1472 4224 
C 890 4224 378 3862 378 3347 
C 378 3123 544 3084 627 3084 
C 762 3084 877 3167 877 3334 
C 877 3500 762 3584 627 3584 
C 602 3584 570 3584 544 3571 
C 730 3999 1235 4076 1459 4076 
C 1683 4076 2106 3966 2106 3347 
C 2106 3167 2080 2851 1862 2574 
C 1670 2329 1453 2316 1242 2297 
C 1210 2297 1062 2284 1037 2284 
C 992 2278 966 2272 966 2227 
C 966 2182 973 2176 1101 2176 
L 1414 2176 
z
" transform="scale(0.015625)"/>
      </defs>
      <use xlink:href="#CMR17-57" transform="scale(0.996264)"/>
      <use xlink:href="#CMR17-61" transform="translate(87.289395 0)scale(0.996264)"/>
      <use xlink:href="#CMR17-6c" transform="translate(132.979872 0)scale(0.996264)"/>
      <use xlink:href="#CMR17-6b" transform="translate(157.85093 0)scale(0.996264)"/>
      <use xlink:href="#CMR17-33" transform="translate(236.219812 0)scale(0.996264)"/>
     </g>
    </g>
    <g id="line2d_23">
     <path d="M 256.281789 84.551535 
L 266.281789 84.551535 
L 276.281789 84.551535 
" style="fill: none; stroke: #40a02b; stroke-width: 0.75; stroke-linecap: square"/>
    </g>
    <g id="text_19">
     <!-- Walk 4 -->
     <g style="fill: #4c4f69" transform="translate(284.281789 88.051535)scale(0.1 -0.1)">
      <use xlink:href="#CMR17-57" transform="scale(0.996264)"/>
      <use xlink:href="#CMR17-61" transform="translate(87.289395 0)scale(0.996264)"/>
      <use xlink:href="#CMR17-6c" transform="translate(132.979872 0)scale(0.996264)"/>
      <use xlink:href="#CMR17-6b" transform="translate(157.85093 0)scale(0.996264)"/>
      <use xlink:href="#CMR17-34" transform="translate(236.219812 0)scale(0.996264)"/>
     </g>
    </g>
   </g>
  </g>
 </g>
 <defs>
  <clipPath id="pe41d535d58">
   <rect x="45" y="30.24" width="279" height="194.04"/>
  </clipPath>
 </defs>
</svg>
