<?xml version="1.0" encoding="utf-8" standalone="no"?>
<!DOCTYPE svg PUBLIC "-//W3C//DTD SVG 1.1//EN"
  "http://www.w3.org/Graphics/SVG/1.1/DTD/svg11.dtd">
<svg xmlns:xlink="http://www.w3.org/1999/xlink" width="360pt" height="252pt" viewBox="0 0 360 252" xmlns="http://www.w3.org/2000/svg" version="1.1">
 <metadata>
  <rdf:RDF xmlns:dc="http://purl.org/dc/elements/1.1/" xmlns:cc="http://creativecommons.org/ns#" xmlns:rdf="http://www.w3.org/1999/02/22-rdf-syntax-ns#">
   <cc:Work>
    <dc:type rdf:resource="http://purl.org/dc/dcmitype/StillImage"/>
    <dc:date>2022-12-01T12:48:09.080817</dc:date>
    <dc:format>image/svg+xml</dc:format>
    <dc:creator>
     <cc:Agent>
      <dc:title>Matplotlib v3.5.1, https://matplotlib.org/</dc:title>
     </cc:Agent>
    </dc:creator>
   </cc:Work>
  </rdf:RDF>
 </metadata>
 <defs>
  <style type="text/css">*{stroke-linejoin: round; stroke-linecap: butt}</style>
 </defs>
 <g id="figure_1">
  <g id="patch_1">
   <path d="M 0 252 
L 360 252 
L 360 0 
L 0 0 
L 0 252 
z
" style="fill: none"/>
  </g>
  <g id="axes_1">
   <g id="patch_2">
    <path d="M 45 224.28 
L 324 224.28 
L 324 30.24 
L 45 30.24 
z
" style="fill: #1e1e2e"/>
   </g>
   <g id="matplotlib.axis_1">
    <g id="xtick_1">
     <g id="line2d_1">
      <defs>
       <path id="me169999efe" d="M 0 0 
L 0 3.5 
" style="stroke: #c6ceef; stroke-width: 0.8"/>
      </defs>
      <g>
       <use xlink:href="#me169999efe" x="57.764706" y="224.28" style="fill: #c6ceef; stroke: #c6ceef; stroke-width: 0.8"/>
      </g>
     </g>
     <g id="text_1">
      <!-- $\mathdefault{−80}$ -->
      <g style="fill: #c6ceef" transform="translate(48.908999 238.198498)scale(0.1 -0.1)">
       <defs>
        <path id="CMSY10-0" d="M 4218 1472 
C 4326 1472 4442 1472 4442 1600 
C 4442 1728 4326 1728 4218 1728 
L 755 1728 
C 646 1728 531 1728 531 1600 
C 531 1472 646 1472 755 1472 
L 4218 1472 
z
" transform="scale(0.015625)"/>
        <path id="CMR17-38" d="M 1741 2289 
C 2144 2494 2554 2803 2554 3298 
C 2554 3884 1990 4224 1472 4224 
C 890 4224 378 3800 378 3215 
C 378 3054 416 2777 666 2533 
C 730 2469 998 2276 1171 2154 
C 883 2006 211 1652 211 945 
C 211 282 838 -128 1459 -128 
C 2144 -128 2720 366 2720 1022 
C 2720 1607 2330 1877 2074 2051 
L 1741 2289 
z
M 902 2855 
C 851 2887 595 3086 595 3388 
C 595 3781 998 4076 1459 4076 
C 1965 4076 2336 3716 2336 3298 
C 2336 2700 1670 2359 1638 2359 
C 1632 2359 1626 2359 1574 2398 
L 902 2855 
z
M 2080 1536 
C 2176 1466 2483 1253 2483 861 
C 2483 385 2010 25 1472 25 
C 890 25 448 443 448 951 
C 448 1459 838 1884 1280 2083 
L 2080 1536 
z
" transform="scale(0.015625)"/>
        <path id="CMR17-30" d="M 2688 2038 
C 2688 2430 2682 3099 2413 3613 
C 2176 4063 1798 4224 1466 4224 
C 1158 4224 768 4082 525 3620 
C 269 3137 243 2539 243 2038 
C 243 1671 250 1112 448 623 
C 723 -39 1216 -128 1466 -128 
C 1760 -128 2208 -7 2470 604 
C 2662 1048 2688 1568 2688 2038 
z
M 1466 -26 
C 1056 -26 813 328 723 816 
C 653 1196 653 1749 653 2109 
C 653 2604 653 3015 736 3407 
C 858 3954 1216 4121 1466 4121 
C 1728 4121 2067 3947 2189 3420 
C 2272 3054 2278 2623 2278 2109 
C 2278 1691 2278 1176 2202 797 
C 2067 96 1690 -26 1466 -26 
z
" transform="scale(0.015625)"/>
       </defs>
       <use xlink:href="#CMSY10-0" transform="scale(0.996264)"/>
       <use xlink:href="#CMR17-38" transform="translate(77.487468 0)scale(0.996264)"/>
       <use xlink:href="#CMR17-30" transform="translate(123.177945 0)scale(0.996264)"/>
      </g>
     </g>
    </g>
    <g id="xtick_2">
     <g id="line2d_2">
      <g>
       <use xlink:href="#me169999efe" x="94.235294" y="224.28" style="fill: #c6ceef; stroke: #c6ceef; stroke-width: 0.8"/>
      </g>
     </g>
     <g id="text_2">
      <!-- $\mathdefault{−60}$ -->
      <g style="fill: #c6ceef" transform="translate(85.379587 238.198498)scale(0.1 -0.1)">
       <defs>
        <path id="CMR17-36" d="M 678 2198 
C 678 3712 1395 4076 1811 4076 
C 1946 4076 2272 4049 2400 3782 
C 2298 3782 2106 3782 2106 3558 
C 2106 3385 2246 3328 2336 3328 
C 2394 3328 2566 3353 2566 3571 
C 2566 3987 2246 4224 1805 4224 
C 1043 4224 243 3411 243 2011 
C 243 257 966 -128 1478 -128 
C 2099 -128 2688 431 2688 1295 
C 2688 2101 2170 2688 1517 2688 
C 1126 2688 838 2430 678 1979 
L 678 2198 
z
M 1478 25 
C 691 25 691 1212 691 1450 
C 691 1914 909 2585 1504 2585 
C 1613 2585 1926 2585 2138 2140 
C 2253 1889 2253 1624 2253 1302 
C 2253 954 2253 696 2118 438 
C 1978 173 1773 25 1478 25 
z
" transform="scale(0.015625)"/>
       </defs>
       <use xlink:href="#CMSY10-0" transform="scale(0.996264)"/>
       <use xlink:href="#CMR17-36" transform="translate(77.487468 0)scale(0.996264)"/>
       <use xlink:href="#CMR17-30" transform="translate(123.177945 0)scale(0.996264)"/>
      </g>
     </g>
    </g>
    <g id="xtick_3">
     <g id="line2d_3">
      <g>
       <use xlink:href="#me169999efe" x="130.705882" y="224.28" style="fill: #c6ceef; stroke: #c6ceef; stroke-width: 0.8"/>
      </g>
     </g>
     <g id="text_3">
      <!-- $\mathdefault{−40}$ -->
      <g style="fill: #c6ceef" transform="translate(121.850175 238.198498)scale(0.1 -0.1)">
       <defs>
        <path id="CMR17-34" d="M 2150 4147 
C 2150 4281 2144 4288 2029 4288 
L 128 1254 
L 128 1088 
L 1779 1088 
L 1779 460 
C 1779 230 1766 166 1318 166 
L 1197 166 
L 1197 0 
C 1402 12 1747 12 1965 12 
C 2182 12 2528 12 2733 0 
L 2733 166 
L 2611 166 
C 2163 166 2150 230 2150 460 
L 2150 1088 
L 2803 1088 
L 2803 1254 
L 2150 1254 
L 2150 4147 
z
M 1798 3723 
L 1798 1254 
L 256 1254 
L 1798 3723 
z
" transform="scale(0.015625)"/>
       </defs>
       <use xlink:href="#CMSY10-0" transform="scale(0.996264)"/>
       <use xlink:href="#CMR17-34" transform="translate(77.487468 0)scale(0.996264)"/>
       <use xlink:href="#CMR17-30" transform="translate(123.177945 0)scale(0.996264)"/>
      </g>
     </g>
    </g>
    <g id="xtick_4">
     <g id="line2d_4">
      <g>
       <use xlink:href="#me169999efe" x="167.176471" y="224.28" style="fill: #c6ceef; stroke: #c6ceef; stroke-width: 0.8"/>
      </g>
     </g>
     <g id="text_4">
      <!-- $\mathdefault{−20}$ -->
      <g style="fill: #c6ceef" transform="translate(158.320763 238.198498)scale(0.1 -0.1)">
       <defs>
        <path id="CMR17-32" d="M 2669 990 
L 2554 990 
C 2490 537 2438 460 2413 422 
C 2381 371 1920 371 1830 371 
L 602 371 
C 832 620 1280 1073 1824 1596 
C 2214 1966 2669 2400 2669 3033 
C 2669 3788 2067 4224 1395 4224 
C 691 4224 262 3603 262 3027 
C 262 2777 448 2745 525 2745 
C 589 2745 781 2783 781 3007 
C 781 3206 614 3264 525 3264 
C 486 3264 448 3257 422 3244 
C 544 3788 915 4057 1306 4057 
C 1862 4057 2227 3616 2227 3033 
C 2227 2477 1901 1998 1536 1583 
L 262 147 
L 262 0 
L 2515 0 
L 2669 990 
z
" transform="scale(0.015625)"/>
       </defs>
       <use xlink:href="#CMSY10-0" transform="scale(0.996264)"/>
       <use xlink:href="#CMR17-32" transform="translate(77.487468 0)scale(0.996264)"/>
       <use xlink:href="#CMR17-30" transform="translate(123.177945 0)scale(0.996264)"/>
      </g>
     </g>
    </g>
    <g id="xtick_5">
     <g id="line2d_5">
      <g>
       <use xlink:href="#me169999efe" x="203.647059" y="224.28" style="fill: #c6ceef; stroke: #c6ceef; stroke-width: 0.8"/>
      </g>
     </g>
     <g id="text_5">
      <!-- $\mathdefault{0}$ -->
      <g style="fill: #c6ceef" transform="translate(201.156391 238.198498)scale(0.1 -0.1)">
       <use xlink:href="#CMR17-30" transform="scale(0.996264)"/>
      </g>
     </g>
    </g>
    <g id="xtick_6">
     <g id="line2d_6">
      <g>
       <use xlink:href="#me169999efe" x="240.117647" y="224.28" style="fill: #c6ceef; stroke: #c6ceef; stroke-width: 0.8"/>
      </g>
     </g>
     <g id="text_6">
      <!-- $\mathdefault{20}$ -->
      <g style="fill: #c6ceef" transform="translate(235.136312 238.198498)scale(0.1 -0.1)">
       <use xlink:href="#CMR17-32" transform="scale(0.996264)"/>
       <use xlink:href="#CMR17-30" transform="translate(45.690477 0)scale(0.996264)"/>
      </g>
     </g>
    </g>
    <g id="xtick_7">
     <g id="line2d_7">
      <g>
       <use xlink:href="#me169999efe" x="276.588235" y="224.28" style="fill: #c6ceef; stroke: #c6ceef; stroke-width: 0.8"/>
      </g>
     </g>
     <g id="text_7">
      <!-- $\mathdefault{40}$ -->
      <g style="fill: #c6ceef" transform="translate(271.6069 238.198498)scale(0.1 -0.1)">
       <use xlink:href="#CMR17-34" transform="scale(0.996264)"/>
       <use xlink:href="#CMR17-30" transform="translate(45.690477 0)scale(0.996264)"/>
      </g>
     </g>
    </g>
    <g id="xtick_8">
     <g id="line2d_8">
      <g>
       <use xlink:href="#me169999efe" x="313.058824" y="224.28" style="fill: #c6ceef; stroke: #c6ceef; stroke-width: 0.8"/>
      </g>
     </g>
     <g id="text_8">
      <!-- $\mathdefault{60}$ -->
      <g style="fill: #c6ceef" transform="translate(308.077488 238.198498)scale(0.1 -0.1)">
       <use xlink:href="#CMR17-36" transform="scale(0.996264)"/>
       <use xlink:href="#CMR17-30" transform="translate(45.690477 0)scale(0.996264)"/>
      </g>
     </g>
    </g>
   </g>
   <g id="matplotlib.axis_2">
    <g id="ytick_1">
     <g id="line2d_9">
      <defs>
       <path id="m515380677b" d="M 0 0 
L -3.5 0 
" style="stroke: #c6ceef; stroke-width: 0.8"/>
      </defs>
      <g>
       <use xlink:href="#m515380677b" x="45" y="224.28" style="fill: #c6ceef; stroke: #c6ceef; stroke-width: 0.8"/>
      </g>
     </g>
     <g id="text_9">
      <!-- $\mathdefault{−80}$ -->
      <g style="fill: #c6ceef" transform="translate(20.288586 227.739249)scale(0.1 -0.1)">
       <use xlink:href="#CMSY10-0" transform="scale(0.996264)"/>
       <use xlink:href="#CMR17-38" transform="translate(77.487468 0)scale(0.996264)"/>
       <use xlink:href="#CMR17-30" transform="translate(123.177945 0)scale(0.996264)"/>
      </g>
     </g>
    </g>
    <g id="ytick_2">
     <g id="line2d_10">
      <g>
       <use xlink:href="#m515380677b" x="45" y="198.058378" style="fill: #c6ceef; stroke: #c6ceef; stroke-width: 0.8"/>
      </g>
     </g>
     <g id="text_10">
      <!-- $\mathdefault{−60}$ -->
      <g style="fill: #c6ceef" transform="translate(20.288586 201.517628)scale(0.1 -0.1)">
       <use xlink:href="#CMSY10-0" transform="scale(0.996264)"/>
       <use xlink:href="#CMR17-36" transform="translate(77.487468 0)scale(0.996264)"/>
       <use xlink:href="#CMR17-30" transform="translate(123.177945 0)scale(0.996264)"/>
      </g>
     </g>
    </g>
    <g id="ytick_3">
     <g id="line2d_11">
      <g>
       <use xlink:href="#m515380677b" x="45" y="171.836757" style="fill: #c6ceef; stroke: #c6ceef; stroke-width: 0.8"/>
      </g>
     </g>
     <g id="text_11">
      <!-- $\mathdefault{−40}$ -->
      <g style="fill: #c6ceef" transform="translate(20.288586 175.296006)scale(0.1 -0.1)">
       <use xlink:href="#CMSY10-0" transform="scale(0.996264)"/>
       <use xlink:href="#CMR17-34" transform="translate(77.487468 0)scale(0.996264)"/>
       <use xlink:href="#CMR17-30" transform="translate(123.177945 0)scale(0.996264)"/>
      </g>
     </g>
    </g>
    <g id="ytick_4">
     <g id="line2d_12">
      <g>
       <use xlink:href="#m515380677b" x="45" y="145.615135" style="fill: #c6ceef; stroke: #c6ceef; stroke-width: 0.8"/>
      </g>
     </g>
     <g id="text_12">
      <!-- $\mathdefault{−20}$ -->
      <g style="fill: #c6ceef" transform="translate(20.288586 149.074384)scale(0.1 -0.1)">
       <use xlink:href="#CMSY10-0" transform="scale(0.996264)"/>
       <use xlink:href="#CMR17-32" transform="translate(77.487468 0)scale(0.996264)"/>
       <use xlink:href="#CMR17-30" transform="translate(123.177945 0)scale(0.996264)"/>
      </g>
     </g>
    </g>
    <g id="ytick_5">
     <g id="line2d_13">
      <g>
       <use xlink:href="#m515380677b" x="45" y="119.393514" style="fill: #c6ceef; stroke: #c6ceef; stroke-width: 0.8"/>
      </g>
     </g>
     <g id="text_13">
      <!-- $\mathdefault{0}$ -->
      <g style="fill: #c6ceef" transform="translate(33.018665 122.852763)scale(0.1 -0.1)">
       <use xlink:href="#CMR17-30" transform="scale(0.996264)"/>
      </g>
     </g>
    </g>
    <g id="ytick_6">
     <g id="line2d_14">
      <g>
       <use xlink:href="#m515380677b" x="45" y="93.171892" style="fill: #c6ceef; stroke: #c6ceef; stroke-width: 0.8"/>
      </g>
     </g>
     <g id="text_14">
      <!-- $\mathdefault{20}$ -->
      <g style="fill: #c6ceef" transform="translate(28.037329 96.631141)scale(0.1 -0.1)">
       <use xlink:href="#CMR17-32" transform="scale(0.996264)"/>
       <use xlink:href="#CMR17-30" transform="translate(45.690477 0)scale(0.996264)"/>
      </g>
     </g>
    </g>
    <g id="ytick_7">
     <g id="line2d_15">
      <g>
       <use xlink:href="#m515380677b" x="45" y="66.95027" style="fill: #c6ceef; stroke: #c6ceef; stroke-width: 0.8"/>
      </g>
     </g>
     <g id="text_15">
      <!-- $\mathdefault{40}$ -->
      <g style="fill: #c6ceef" transform="translate(28.037329 70.409519)scale(0.1 -0.1)">
       <use xlink:href="#CMR17-34" transform="scale(0.996264)"/>
       <use xlink:href="#CMR17-30" transform="translate(45.690477 0)scale(0.996264)"/>
      </g>
     </g>
    </g>
    <g id="ytick_8">
     <g id="line2d_16">
      <g>
       <use xlink:href="#m515380677b" x="45" y="40.728649" style="fill: #c6ceef; stroke: #c6ceef; stroke-width: 0.8"/>
      </g>
     </g>
     <g id="text_16">
      <!-- $\mathdefault{60}$ -->
      <g style="fill: #c6ceef" transform="translate(28.037329 44.187898)scale(0.1 -0.1)">
       <use xlink:href="#CMR17-36" transform="scale(0.996264)"/>
       <use xlink:href="#CMR17-30" transform="translate(45.690477 0)scale(0.996264)"/>
      </g>
     </g>
    </g>
   </g>
   <g id="line2d_17">
    <path d="M 203.647059 118.082432 
L 203.647059 119.393514 
L 203.647059 116.771351 
L 203.647059 119.393514 
L 201.823529 119.393514 
L 201.823529 118.082432 
L 203.647059 118.082432 
L 203.647059 116.771351 
L 203.647059 119.393514 
L 205.470588 119.393514 
L 203.647059 119.393514 
L 203.647059 118.082432 
L 201.823529 118.082432 
L 201.823529 116.771351 
L 200 116.771351 
L 201.823529 116.771351 
L 201.823529 114.149189 
L 203.647059 114.149189 
L 201.823529 114.149189 
L 201.823529 115.46027 
L 205.470588 115.46027 
L 205.470588 114.149189 
L 205.470588 114.149189 
L 203.647059 114.149189 
L 203.647059 112.838108 
L 205.470588 112.838108 
L 203.647059 112.838108 
L 203.647059 111.527027 
L 203.647059 112.838108 
L 201.823529 112.838108 
L 201.823529 114.149189 
L 200 114.149189 
L 201.823529 114.149189 
L 201.823529 116.771351 
L 200 116.771351 
L 200 114.149189 
L 198.176471 114.149189 
L 198.176471 111.527027 
L 198.176471 114.149189 
L 194.529412 114.149189 
L 194.529412 112.838108 
L 194.529412 114.149189 
L 196.352941 114.149189 
L 196.352941 115.46027 
L 200 115.46027 
L 198.176471 115.46027 
L 198.176471 116.771351 
L 196.352941 116.771351 
L 196.352941 118.082432 
L 200 118.082432 
L 200 119.393514 
L 201.823529 119.393514 
L 201.823529 119.393514 
L 201.823529 114.149189 
L 201.823529 115.46027 
L 205.470588 115.46027 
L 205.470588 114.149189 
L 203.647059 114.149189 
L 203.647059 115.46027 
L 205.470588 115.46027 
L 203.647059 115.46027 
L 203.647059 112.838108 
L 200 112.838108 
L 200 107.593784 
L 198.176471 107.593784 
L 198.176471 102.349459 
L 198.176471 102.349459 
L 196.352941 102.349459 
L 196.352941 103.660541 
L 196.352941 102.349459 
L 198.176471 102.349459 
L 196.352941 102.349459 
L 196.352941 103.660541 
L 192.705882 103.660541 
L 192.705882 95.794054 
L 192.705882 98.416216 
L 190.882353 98.416216 
L 190.882353 99.727297 
L 185.411765 99.727297 
L 185.411765 97.105135 
L 181.764706 97.105135 
L 187.235294 97.105135 
L 187.235294 94.482973 
L 189.058824 94.482973 
L 189.058824 91.860811 
L 190.882353 91.860811 
L 190.882353 89.238649 
L 190.882353 90.54973 
L 201.823529 90.54973 
L 201.823529 91.860811 
L 201.823529 90.54973 
L 205.470588 90.54973 
L 205.470588 89.238649 
L 207.294118 89.238649 
L 207.294118 89.238649 
L 207.294118 87.927568 
L 207.294118 90.54973 
L 205.470588 90.54973 
L 207.294118 90.54973 
L 207.294118 91.860811 
L 207.294118 90.54973 
L 209.117647 90.54973 
L 207.294118 90.54973 
L 207.294118 93.171892 
L 203.647059 93.171892 
L 203.647059 93.171892 
L 203.647059 94.482973 
L 205.470588 94.482973 
L 203.647059 94.482973 
L 203.647059 93.171892 
L 205.470588 93.171892 
L 205.470588 95.794054 
L 205.470588 94.482973 
L 207.294118 94.482973 
L 207.294118 94.482973 
L 207.294118 97.105135 
L 209.117647 97.105135 
L 209.117647 95.794054 
L 209.117647 97.105135 
L 203.647059 97.105135 
L 205.470588 97.105135 
L 205.470588 95.794054 
L 207.294118 95.794054 
L 205.470588 95.794054 
L 205.470588 97.105135 
L 205.470588 94.482973 
L 201.823529 94.482973 
L 201.823529 95.794054 
L 201.823529 94.482973 
L 205.470588 94.482973 
L 205.470588 95.794054 
L 201.823529 95.794054 
L 201.823529 97.105135 
L 200 97.105135 
L 200 95.794054 
L 203.647059 95.794054 
L 203.647059 94.482973 
L 205.470588 94.482973 
L 205.470588 90.54973 
L 207.294118 90.54973 
L 207.294118 89.238649 
L 207.294118 91.860811 
L 203.647059 91.860811 
L 203.647059 90.54973 
L 198.176471 90.54973 
L 198.176471 89.238649 
L 198.176471 93.171892 
L 200 93.171892 
L 198.176471 93.171892 
L 198.176471 91.860811 
L 200 91.860811 
L 200 93.171892 
L 198.176471 93.171892 
L 205.470588 93.171892 
L 205.470588 94.482973 
L 203.647059 94.482973 
L 207.294118 94.482973 
L 205.470588 94.482973 
L 205.470588 93.171892 
L 207.294118 93.171892 
L 207.294118 91.860811 
L 209.117647 91.860811 
L 205.470588 91.860811 
L 205.470588 93.171892 
L 203.647059 93.171892 
L 207.294118 93.171892 
L 205.470588 93.171892 
L 205.470588 91.860811 
L 207.294118 91.860811 
L 205.470588 91.860811 
L 205.470588 90.54973 
L 209.117647 90.54973 
L 205.470588 90.54973 
L 205.470588 94.482973 
L 205.470588 93.171892 
L 207.294118 93.171892 
L 207.294118 93.171892 
L 207.294118 94.482973 
L 205.470588 94.482973 
L 205.470588 93.171892 
L 203.647059 93.171892 
L 203.647059 87.927568 
L 201.823529 87.927568 
L 207.294118 87.927568 
L 207.294118 83.994324 
L 209.117647 83.994324 
L 209.117647 78.75 
L 207.294118 78.75 
L 207.294118 76.127838 
L 207.294118 80.061081 
L 205.470588 80.061081 
L 205.470588 73.505676 
L 203.647059 73.505676 
L 203.647059 69.572432 
L 205.470588 69.572432 
L 205.470588 70.883514 
L 207.294118 70.883514 
L 207.294118 72.194595 
L 203.647059 72.194595 
L 203.647059 73.505676 
L 201.823529 73.505676 
L 203.647059 73.505676 
L 203.647059 72.194595 
L 203.647059 74.816757 
L 205.470588 74.816757 
L 203.647059 74.816757 
L 203.647059 73.505676 
L 205.470588 73.505676 
L 205.470588 72.194595 
L 203.647059 72.194595 
L 203.647059 66.95027 
L 207.294118 66.95027 
L 207.294118 65.639189 
L 209.117647 65.639189 
L 209.117647 66.95027 
L 207.294118 66.95027 
L 207.294118 68.261351 
L 209.117647 68.261351 
L 209.117647 64.328108 
L 209.117647 64.328108 
L 210.941176 64.328108 
L 207.294118 64.328108 
L 207.294118 66.95027 
L 203.647059 66.95027 
L 203.647059 69.572432 
L 200 69.572432 
L 200 70.883514 
L 200 69.572432 
L 201.823529 69.572432 
L 201.823529 66.95027 
L 198.176471 66.95027 
L 198.176471 65.639189 
L 198.176471 66.95027 
L 192.705882 66.95027 
L 192.705882 68.261351 
L 192.705882 66.95027 
L 196.352941 66.95027 
L 196.352941 68.261351 
L 196.352941 65.639189 
L 198.176471 65.639189 
L 192.705882 65.639189 
L 192.705882 64.328108 
L 194.529412 64.328108 
L 194.529412 63.017027 
L 194.529412 63.017027 
L 192.705882 63.017027 
L 194.529412 63.017027 
L 194.529412 59.083784 
L 196.352941 59.083784 
L 196.352941 56.461622 
L 196.352941 57.772703 
L 192.705882 57.772703 
L 192.705882 59.083784 
L 190.882353 59.083784 
L 190.882353 56.461622 
L 189.058824 56.461622 
L 190.882353 56.461622 
L 190.882353 55.150541 
L 190.882353 59.083784 
L 190.882353 57.772703 
L 192.705882 57.772703 
L 192.705882 56.461622 
L 190.882353 56.461622 
L 190.882353 55.150541 
L 189.058824 55.150541 
L 190.882353 55.150541 
L 190.882353 56.461622 
L 189.058824 56.461622 
L 189.058824 59.083784 
L 190.882353 59.083784 
L 190.882353 56.461622 
L 194.529412 56.461622 
L 192.705882 56.461622 
L 192.705882 57.772703 
L 192.705882 55.150541 
L 196.352941 55.150541 
L 196.352941 53.839459 
L 196.352941 56.461622 
L 196.352941 55.150541 
L 194.529412 55.150541 
L 196.352941 55.150541 
L 196.352941 52.528378 
L 196.352941 53.839459 
L 198.176471 53.839459 
L 198.176471 51.217297 
L 200 51.217297 
L 200 52.528378 
L 200 51.217297 
L 201.823529 51.217297 
L 201.823529 52.528378 
L 203.647059 52.528378 
L 203.647059 52.528378 
L 203.647059 49.906216 
L 203.647059 51.217297 
L 205.470588 51.217297 
L 205.470588 53.839459 
L 203.647059 53.839459 
L 205.470588 53.839459 
L 205.470588 52.528378 
L 207.294118 52.528378 
L 207.294118 53.839459 
L 205.470588 53.839459 
L 205.470588 51.217297 
L 203.647059 51.217297 
L 205.470588 51.217297 
L 205.470588 48.595135 
L 205.470588 49.906216 
L 203.647059 49.906216 
L 203.647059 48.595135 
L 207.294118 48.595135 
L 207.294118 49.906216 
L 205.470588 49.906216 
L 205.470588 47.284054 
L 210.941176 47.284054 
L 205.470588 47.284054 
" clip-path="url(#p4f56ee7caa)" style="fill: none; stroke: #eebebe; stroke-width: 0.75; stroke-linecap: square"/>
   </g>
   <g id="line2d_18">
    <path d="M 203.647059 118.082432 
L 205.470588 118.082432 
L 203.647059 118.082432 
L 203.647059 112.838108 
L 203.647059 114.149189 
L 207.294118 114.149189 
L 207.294118 112.838108 
L 207.294118 115.46027 
L 207.294118 114.149189 
L 203.647059 114.149189 
L 205.470588 114.149189 
L 205.470588 112.838108 
L 203.647059 112.838108 
L 203.647059 111.527027 
L 203.647059 112.838108 
L 200 112.838108 
L 200 111.527027 
L 200 114.149189 
L 201.823529 114.149189 
L 201.823529 112.838108 
L 201.823529 114.149189 
L 203.647059 114.149189 
L 203.647059 115.46027 
L 203.647059 112.838108 
L 207.294118 112.838108 
L 207.294118 111.527027 
L 205.470588 111.527027 
L 205.470588 110.215946 
L 203.647059 110.215946 
L 205.470588 110.215946 
L 205.470588 111.527027 
L 201.823529 111.527027 
L 201.823529 110.215946 
L 200 110.215946 
L 200 107.593784 
L 196.352941 107.593784 
L 196.352941 108.904865 
L 198.176471 108.904865 
L 198.176471 107.593784 
L 192.705882 107.593784 
L 192.705882 110.215946 
L 192.705882 107.593784 
L 189.058824 107.593784 
L 190.882353 107.593784 
L 190.882353 108.904865 
L 194.529412 108.904865 
L 194.529412 107.593784 
L 192.705882 107.593784 
L 192.705882 111.527027 
L 192.705882 108.904865 
L 194.529412 108.904865 
L 190.882353 108.904865 
L 190.882353 107.593784 
L 190.882353 107.593784 
L 192.705882 107.593784 
L 192.705882 108.904865 
L 190.882353 108.904865 
L 190.882353 107.593784 
L 189.058824 107.593784 
L 189.058824 108.904865 
L 189.058824 106.282703 
L 187.235294 106.282703 
L 189.058824 106.282703 
L 189.058824 104.971622 
L 192.705882 104.971622 
L 190.882353 104.971622 
L 190.882353 107.593784 
L 192.705882 107.593784 
L 190.882353 107.593784 
L 190.882353 106.282703 
L 190.882353 106.282703 
L 185.411765 106.282703 
L 185.411765 104.971622 
L 181.764706 104.971622 
L 181.764706 103.660541 
L 179.941176 103.660541 
L 179.941176 106.282703 
L 179.941176 103.660541 
L 176.294118 103.660541 
L 176.294118 102.349459 
L 172.647059 102.349459 
L 174.470588 102.349459 
L 174.470588 103.660541 
L 174.470588 101.038378 
L 174.470588 101.038378 
L 176.294118 101.038378 
L 176.294118 98.416216 
L 178.117647 98.416216 
L 178.117647 97.105135 
L 179.941176 97.105135 
L 178.117647 97.105135 
L 178.117647 95.794054 
L 178.117647 97.105135 
L 179.941176 97.105135 
L 179.941176 94.482973 
L 181.764706 94.482973 
L 179.941176 94.482973 
L 179.941176 95.794054 
L 183.588235 95.794054 
L 183.588235 97.105135 
L 183.588235 95.794054 
L 181.764706 95.794054 
L 187.235294 95.794054 
L 187.235294 97.105135 
L 187.235294 95.794054 
L 185.411765 95.794054 
L 185.411765 94.482973 
L 179.941176 94.482973 
L 181.764706 94.482973 
L 181.764706 95.794054 
L 181.764706 94.482973 
L 179.941176 94.482973 
L 179.941176 91.860811 
L 179.941176 93.171892 
L 183.588235 93.171892 
L 183.588235 95.794054 
L 181.764706 95.794054 
L 181.764706 94.482973 
L 181.764706 95.794054 
L 178.117647 95.794054 
L 178.117647 97.105135 
L 178.117647 95.794054 
L 179.941176 95.794054 
L 179.941176 94.482973 
L 179.941176 95.794054 
L 176.294118 95.794054 
L 176.294118 94.482973 
L 172.647059 94.482973 
L 172.647059 95.794054 
L 170.823529 95.794054 
L 170.823529 97.105135 
L 170.823529 94.482973 
L 169 94.482973 
L 169 95.794054 
L 170.823529 95.794054 
L 170.823529 94.482973 
L 167.176471 94.482973 
L 167.176471 95.794054 
L 167.176471 94.482973 
L 169 94.482973 
L 169 89.238649 
L 169 90.54973 
L 172.647059 90.54973 
L 169 90.54973 
L 169 91.860811 
L 176.294118 91.860811 
L 176.294118 89.238649 
L 174.470588 89.238649 
L 174.470588 86.616486 
L 181.764706 86.616486 
L 181.764706 87.927568 
L 185.411765 87.927568 
L 185.411765 90.54973 
L 181.764706 90.54973 
L 181.764706 89.238649 
L 179.941176 89.238649 
L 179.941176 86.616486 
L 178.117647 86.616486 
L 178.117647 82.683243 
L 174.470588 82.683243 
L 174.470588 81.372162 
L 170.823529 81.372162 
L 170.823529 82.683243 
L 172.647059 82.683243 
L 169 82.683243 
L 169 80.061081 
L 169 81.372162 
L 170.823529 81.372162 
L 169 81.372162 
L 169 82.683243 
L 169 81.372162 
L 167.176471 81.372162 
L 167.176471 80.061081 
L 167.176471 82.683243 
L 170.823529 82.683243 
L 170.823529 80.061081 
L 170.823529 85.305405 
L 169 85.305405 
L 169 83.994324 
L 167.176471 83.994324 
L 167.176471 86.616486 
L 165.352941 86.616486 
L 165.352941 85.305405 
L 165.352941 87.927568 
L 163.529412 87.927568 
L 163.529412 89.238649 
L 163.529412 89.238649 
L 165.352941 89.238649 
L 165.352941 87.927568 
L 169 87.927568 
L 169 90.54973 
L 170.823529 90.54973 
L 170.823529 93.171892 
L 172.647059 93.171892 
L 172.647059 87.927568 
L 172.647059 89.238649 
L 174.470588 89.238649 
L 174.470588 87.927568 
L 174.470588 89.238649 
L 170.823529 89.238649 
L 170.823529 90.54973 
L 172.647059 90.54973 
L 172.647059 91.860811 
L 172.647059 90.54973 
L 174.470588 90.54973 
L 170.823529 90.54973 
L 170.823529 86.616486 
L 170.823529 87.927568 
L 174.470588 87.927568 
L 174.470588 89.238649 
L 179.941176 89.238649 
L 179.941176 87.927568 
L 176.294118 87.927568 
L 176.294118 86.616486 
L 174.470588 86.616486 
L 178.117647 86.616486 
L 176.294118 86.616486 
L 176.294118 87.927568 
L 178.117647 87.927568 
L 178.117647 89.238649 
L 178.117647 81.372162 
L 176.294118 81.372162 
L 179.941176 81.372162 
L 178.117647 81.372162 
L 178.117647 82.683243 
L 178.117647 82.683243 
L 181.764706 82.683243 
L 179.941176 82.683243 
L 179.941176 78.75 
L 183.588235 78.75 
L 183.588235 80.061081 
L 183.588235 78.75 
L 187.235294 78.75 
L 187.235294 77.438919 
L 189.058824 77.438919 
L 189.058824 76.127838 
L 189.058824 80.061081 
L 187.235294 80.061081 
L 187.235294 80.061081 
L 187.235294 83.994324 
L 187.235294 83.994324 
L 185.411765 83.994324 
L 185.411765 82.683243 
L 187.235294 82.683243 
L 187.235294 83.994324 
L 190.882353 83.994324 
L 190.882353 85.305405 
L 192.705882 85.305405 
L 192.705882 85.305405 
L 192.705882 86.616486 
L 198.176471 86.616486 
L 198.176471 86.616486 
L 198.176471 87.927568 
L 200 87.927568 
L 200 89.238649 
L 198.176471 89.238649 
L 198.176471 89.238649 
L 198.176471 90.54973 
L 198.176471 87.927568 
L 198.176471 89.238649 
L 200 89.238649 
L 198.176471 89.238649 
L 198.176471 87.927568 
L 200 87.927568 
L 200 86.616486 
L 201.823529 86.616486 
L 201.823529 87.927568 
L 203.647059 87.927568 
L 203.647059 89.238649 
L 203.647059 89.238649 
L 205.470588 89.238649 
L 205.470588 86.616486 
L 205.470588 89.238649 
L 201.823529 89.238649 
L 203.647059 89.238649 
L 203.647059 90.54973 
L 203.647059 85.305405 
L 205.470588 85.305405 
L 205.470588 86.616486 
L 205.470588 82.683243 
L 203.647059 82.683243 
L 203.647059 83.994324 
L 201.823529 83.994324 
L 203.647059 83.994324 
L 203.647059 82.683243 
L 201.823529 82.683243 
L 201.823529 81.372162 
L 201.823529 82.683243 
L 205.470588 82.683243 
L 205.470588 83.994324 
L 203.647059 83.994324 
L 203.647059 82.683243 
L 203.647059 83.994324 
L 200 83.994324 
L 200 81.372162 
L 198.176471 81.372162 
L 200 81.372162 
L 200 80.061081 
L 198.176471 80.061081 
L 200 80.061081 
L 200 76.127838 
L 196.352941 76.127838 
L 198.176471 76.127838 
L 198.176471 74.816757 
L 196.352941 74.816757 
L 196.352941 74.816757 
L 196.352941 76.127838 
L 194.529412 76.127838 
L 194.529412 76.127838 
L 194.529412 77.438919 
L 200 77.438919 
L 200 76.127838 
L 198.176471 76.127838 
L 200 76.127838 
L 200 77.438919 
L 200 77.438919 
" clip-path="url(#p4f56ee7caa)" style="fill: none; stroke: #ca9ee6; stroke-width: 0.75; stroke-linecap: square"/>
   </g>
   <g id="line2d_19">
    <path d="M 201.823529 119.393514 
L 201.823529 122.015676 
L 203.647059 122.015676 
L 201.823529 122.015676 
L 201.823529 120.704595 
L 201.823529 127.26 
L 203.647059 127.26 
L 203.647059 125.948919 
L 201.823529 125.948919 
L 201.823529 124.637838 
L 205.470588 124.637838 
L 205.470588 125.948919 
L 203.647059 125.948919 
L 203.647059 127.26 
L 203.647059 124.637838 
L 201.823529 124.637838 
L 207.294118 124.637838 
L 207.294118 120.704595 
L 210.941176 120.704595 
L 210.941176 116.771351 
L 212.764706 116.771351 
L 210.941176 116.771351 
L 210.941176 118.082432 
L 207.294118 118.082432 
L 207.294118 115.46027 
L 205.470588 115.46027 
L 205.470588 114.149189 
L 203.647059 114.149189 
L 203.647059 115.46027 
L 205.470588 115.46027 
L 205.470588 112.838108 
L 205.470588 112.838108 
L 207.294118 112.838108 
L 207.294118 110.215946 
L 205.470588 110.215946 
L 205.470588 108.904865 
L 205.470588 110.215946 
L 203.647059 110.215946 
L 207.294118 110.215946 
L 207.294118 107.593784 
L 207.294118 108.904865 
L 209.117647 108.904865 
L 209.117647 110.215946 
L 209.117647 108.904865 
L 207.294118 108.904865 
L 207.294118 106.282703 
L 209.117647 106.282703 
L 209.117647 107.593784 
L 209.117647 103.660541 
L 209.117647 104.971622 
L 207.294118 104.971622 
L 207.294118 107.593784 
L 205.470588 107.593784 
L 205.470588 103.660541 
L 203.647059 103.660541 
L 210.941176 103.660541 
L 210.941176 102.349459 
L 210.941176 103.660541 
L 209.117647 103.660541 
L 209.117647 104.971622 
L 212.764706 104.971622 
L 212.764706 103.660541 
L 210.941176 103.660541 
L 210.941176 101.038378 
L 212.764706 101.038378 
L 212.764706 99.727297 
L 214.588235 99.727297 
L 212.764706 99.727297 
L 212.764706 98.416216 
L 212.764706 99.727297 
L 214.588235 99.727297 
L 214.588235 102.349459 
L 216.411765 102.349459 
L 214.588235 102.349459 
L 214.588235 101.038378 
L 212.764706 101.038378 
L 212.764706 95.794054 
L 216.411765 95.794054 
L 216.411765 94.482973 
L 216.411765 95.794054 
L 214.588235 95.794054 
L 214.588235 94.482973 
L 214.588235 98.416216 
L 216.411765 98.416216 
L 216.411765 95.794054 
L 216.411765 95.794054 
L 214.588235 95.794054 
L 214.588235 94.482973 
L 212.764706 94.482973 
L 212.764706 98.416216 
L 210.941176 98.416216 
L 210.941176 98.416216 
L 210.941176 95.794054 
L 212.764706 95.794054 
L 212.764706 97.105135 
L 212.764706 97.105135 
L 214.588235 97.105135 
L 214.588235 95.794054 
L 214.588235 97.105135 
L 212.764706 97.105135 
L 212.764706 95.794054 
L 212.764706 95.794054 
L 209.117647 95.794054 
L 209.117647 93.171892 
L 209.117647 94.482973 
L 210.941176 94.482973 
L 209.117647 94.482973 
L 209.117647 95.794054 
L 207.294118 95.794054 
L 207.294118 91.860811 
L 209.117647 91.860811 
L 207.294118 91.860811 
L 207.294118 93.171892 
L 209.117647 93.171892 
L 205.470588 93.171892 
L 207.294118 93.171892 
L 207.294118 87.927568 
L 210.941176 87.927568 
L 210.941176 89.238649 
L 212.764706 89.238649 
L 212.764706 86.616486 
L 214.588235 86.616486 
L 212.764706 86.616486 
L 212.764706 82.683243 
L 212.764706 83.994324 
L 209.117647 83.994324 
L 210.941176 83.994324 
L 210.941176 82.683243 
L 210.941176 86.616486 
L 210.941176 85.305405 
L 207.294118 85.305405 
L 207.294118 83.994324 
L 207.294118 85.305405 
L 209.117647 85.305405 
L 207.294118 85.305405 
L 207.294118 83.994324 
L 210.941176 83.994324 
L 210.941176 82.683243 
L 209.117647 82.683243 
L 212.764706 82.683243 
L 212.764706 83.994324 
L 210.941176 83.994324 
L 210.941176 85.305405 
L 210.941176 83.994324 
L 212.764706 83.994324 
L 212.764706 81.372162 
L 216.411765 81.372162 
L 216.411765 80.061081 
L 216.411765 80.061081 
L 218.235294 80.061081 
L 218.235294 85.305405 
L 220.058824 85.305405 
L 220.058824 83.994324 
L 220.058824 83.994324 
L 218.235294 83.994324 
L 218.235294 82.683243 
L 220.058824 82.683243 
L 220.058824 81.372162 
L 221.882353 81.372162 
L 220.058824 81.372162 
L 220.058824 78.75 
L 220.058824 78.75 
L 218.235294 78.75 
L 218.235294 76.127838 
L 218.235294 77.438919 
L 221.882353 77.438919 
L 221.882353 80.061081 
L 223.705882 80.061081 
L 223.705882 78.75 
L 221.882353 78.75 
L 223.705882 78.75 
L 223.705882 77.438919 
L 223.705882 78.75 
L 221.882353 78.75 
L 221.882353 80.061081 
L 221.882353 78.75 
L 220.058824 78.75 
L 220.058824 73.505676 
L 220.058824 76.127838 
L 218.235294 76.127838 
L 218.235294 77.438919 
L 216.411765 77.438919 
L 216.411765 77.438919 
L 216.411765 78.75 
L 216.411765 77.438919 
L 218.235294 77.438919 
L 218.235294 78.75 
L 220.058824 78.75 
L 220.058824 80.061081 
L 221.882353 80.061081 
L 221.882353 78.75 
L 227.352941 78.75 
L 225.529412 78.75 
L 225.529412 77.438919 
L 223.705882 77.438919 
L 223.705882 78.75 
L 221.882353 78.75 
L 221.882353 80.061081 
L 223.705882 80.061081 
L 220.058824 80.061081 
L 220.058824 77.438919 
L 216.411765 77.438919 
L 218.235294 77.438919 
L 218.235294 78.75 
L 216.411765 78.75 
L 216.411765 80.061081 
L 214.588235 80.061081 
L 214.588235 78.75 
L 214.588235 80.061081 
L 216.411765 80.061081 
L 214.588235 80.061081 
L 214.588235 81.372162 
L 212.764706 81.372162 
L 214.588235 81.372162 
L 214.588235 80.061081 
L 212.764706 80.061081 
L 212.764706 81.372162 
L 210.941176 81.372162 
L 210.941176 81.372162 
L 210.941176 80.061081 
L 212.764706 80.061081 
L 212.764706 77.438919 
L 214.588235 77.438919 
L 210.941176 77.438919 
L 210.941176 76.127838 
L 210.941176 78.75 
L 210.941176 77.438919 
L 212.764706 77.438919 
L 212.764706 76.127838 
L 212.764706 80.061081 
L 210.941176 80.061081 
L 210.941176 83.994324 
L 209.117647 83.994324 
L 209.117647 85.305405 
L 209.117647 83.994324 
L 210.941176 83.994324 
L 210.941176 82.683243 
L 212.764706 82.683243 
L 212.764706 81.372162 
L 214.588235 81.372162 
L 210.941176 81.372162 
L 210.941176 80.061081 
L 212.764706 80.061081 
L 212.764706 80.061081 
L 212.764706 78.75 
L 210.941176 78.75 
L 210.941176 80.061081 
L 210.941176 78.75 
L 212.764706 78.75 
L 212.764706 77.438919 
L 216.411765 77.438919 
L 216.411765 76.127838 
L 216.411765 77.438919 
L 218.235294 77.438919 
L 218.235294 76.127838 
L 220.058824 76.127838 
L 218.235294 76.127838 
L 218.235294 74.816757 
L 218.235294 76.127838 
L 216.411765 76.127838 
L 216.411765 74.816757 
L 218.235294 74.816757 
L 218.235294 77.438919 
L 220.058824 77.438919 
L 218.235294 77.438919 
L 218.235294 73.505676 
L 216.411765 73.505676 
L 216.411765 69.572432 
L 210.941176 69.572432 
L 210.941176 68.261351 
L 207.294118 68.261351 
L 209.117647 68.261351 
L 209.117647 66.95027 
L 207.294118 66.95027 
L 207.294118 68.261351 
L 205.470588 68.261351 
L 205.470588 66.95027 
L 203.647059 66.95027 
L 203.647059 64.328108 
L 201.823529 64.328108 
L 201.823529 68.261351 
L 201.823529 64.328108 
L 200 64.328108 
L 200 63.017027 
L 200 64.328108 
L 198.176471 64.328108 
L 198.176471 63.017027 
L 200 63.017027 
L 200 61.705946 
L 200 61.705946 
L 203.647059 61.705946 
L 203.647059 60.394865 
L 203.647059 61.705946 
L 201.823529 61.705946 
L 201.823529 64.328108 
L 201.823529 63.017027 
L 200 63.017027 
L 200 65.639189 
L 200 64.328108 
L 194.529412 64.328108 
L 196.352941 64.328108 
L 196.352941 61.705946 
L 194.529412 61.705946 
L 194.529412 59.083784 
L 192.705882 59.083784 
L 192.705882 56.461622 
L 194.529412 56.461622 
L 194.529412 52.528378 
L 192.705882 52.528378 
L 192.705882 51.217297 
L 192.705882 52.528378 
L 196.352941 52.528378 
L 192.705882 52.528378 
L 192.705882 49.906216 
L 192.705882 49.906216 
L 190.882353 49.906216 
L 192.705882 49.906216 
L 192.705882 51.217297 
L 194.529412 51.217297 
L 194.529412 49.906216 
L 192.705882 49.906216 
L 192.705882 47.284054 
L 192.705882 48.595135 
L 194.529412 48.595135 
L 194.529412 45.972973 
L 196.352941 45.972973 
L 196.352941 43.350811 
L 196.352941 44.661892 
L 198.176471 44.661892 
L 196.352941 44.661892 
L 196.352941 45.972973 
L 200 45.972973 
L 200 44.661892 
L 200 47.284054 
L 200 44.661892 
L 201.823529 44.661892 
L 198.176471 44.661892 
L 200 44.661892 
L 200 43.350811 
L 200 43.350811 
" clip-path="url(#p4f56ee7caa)" style="fill: none; stroke: #e5c890; stroke-width: 0.75; stroke-linecap: square"/>
   </g>
   <g id="line2d_20">
    <path d="M 205.470588 119.393514 
L 205.470588 120.704595 
L 203.647059 120.704595 
L 203.647059 122.015676 
L 198.176471 122.015676 
L 200 122.015676 
L 200 120.704595 
L 201.823529 120.704595 
L 201.823529 119.393514 
L 200 119.393514 
L 200 119.393514 
L 200 122.015676 
L 198.176471 122.015676 
L 200 122.015676 
L 200 120.704595 
L 201.823529 120.704595 
L 200 120.704595 
L 200 122.015676 
L 201.823529 122.015676 
L 201.823529 119.393514 
L 201.823529 120.704595 
L 203.647059 120.704595 
L 203.647059 119.393514 
L 207.294118 119.393514 
L 207.294118 118.082432 
L 207.294118 119.393514 
L 209.117647 119.393514 
L 209.117647 118.082432 
L 203.647059 118.082432 
L 205.470588 118.082432 
L 205.470588 115.46027 
L 207.294118 115.46027 
L 205.470588 115.46027 
L 205.470588 114.149189 
L 203.647059 114.149189 
L 203.647059 108.904865 
L 203.647059 108.904865 
L 201.823529 108.904865 
L 201.823529 107.593784 
L 198.176471 107.593784 
L 198.176471 106.282703 
L 198.176471 106.282703 
L 201.823529 106.282703 
L 201.823529 103.660541 
L 196.352941 103.660541 
L 196.352941 102.349459 
L 194.529412 102.349459 
L 194.529412 101.038378 
L 196.352941 101.038378 
L 194.529412 101.038378 
L 194.529412 102.349459 
L 198.176471 102.349459 
L 198.176471 97.105135 
L 198.176471 98.416216 
L 200 98.416216 
L 200 95.794054 
L 198.176471 95.794054 
L 198.176471 97.105135 
L 196.352941 97.105135 
L 196.352941 95.794054 
L 196.352941 97.105135 
L 194.529412 97.105135 
L 196.352941 97.105135 
L 196.352941 95.794054 
L 192.705882 95.794054 
L 192.705882 97.105135 
L 190.882353 97.105135 
L 190.882353 98.416216 
L 189.058824 98.416216 
L 189.058824 101.038378 
L 189.058824 98.416216 
L 187.235294 98.416216 
L 187.235294 95.794054 
L 187.235294 97.105135 
L 189.058824 97.105135 
L 189.058824 94.482973 
L 185.411765 94.482973 
L 185.411765 91.860811 
L 185.411765 93.171892 
L 189.058824 93.171892 
L 189.058824 91.860811 
L 187.235294 91.860811 
L 189.058824 91.860811 
L 189.058824 93.171892 
L 187.235294 93.171892 
L 187.235294 90.54973 
L 192.705882 90.54973 
L 190.882353 90.54973 
L 190.882353 91.860811 
L 192.705882 91.860811 
L 192.705882 86.616486 
L 192.705882 87.927568 
L 190.882353 87.927568 
L 190.882353 89.238649 
L 192.705882 89.238649 
L 192.705882 90.54973 
L 192.705882 89.238649 
L 190.882353 89.238649 
L 190.882353 87.927568 
L 190.882353 89.238649 
L 189.058824 89.238649 
L 189.058824 86.616486 
L 192.705882 86.616486 
L 192.705882 83.994324 
L 190.882353 83.994324 
L 190.882353 81.372162 
L 190.882353 83.994324 
L 192.705882 83.994324 
L 192.705882 89.238649 
L 192.705882 87.927568 
L 194.529412 87.927568 
L 192.705882 87.927568 
L 192.705882 89.238649 
L 192.705882 87.927568 
L 190.882353 87.927568 
L 190.882353 86.616486 
L 189.058824 86.616486 
L 189.058824 86.616486 
L 189.058824 89.238649 
L 189.058824 86.616486 
L 190.882353 86.616486 
L 190.882353 89.238649 
L 189.058824 89.238649 
L 189.058824 90.54973 
L 189.058824 90.54973 
L 185.411765 90.54973 
L 185.411765 87.927568 
L 183.588235 87.927568 
L 183.588235 85.305405 
L 183.588235 87.927568 
L 187.235294 87.927568 
L 185.411765 87.927568 
L 185.411765 89.238649 
L 190.882353 89.238649 
L 190.882353 87.927568 
L 190.882353 87.927568 
L 192.705882 87.927568 
L 192.705882 86.616486 
L 190.882353 86.616486 
L 190.882353 87.927568 
L 187.235294 87.927568 
L 187.235294 85.305405 
L 187.235294 86.616486 
L 185.411765 86.616486 
L 185.411765 83.994324 
L 185.411765 85.305405 
L 179.941176 85.305405 
L 183.588235 85.305405 
L 183.588235 86.616486 
L 183.588235 85.305405 
L 189.058824 85.305405 
L 187.235294 85.305405 
L 187.235294 86.616486 
L 189.058824 86.616486 
L 189.058824 87.927568 
L 189.058824 86.616486 
L 187.235294 86.616486 
L 187.235294 85.305405 
L 187.235294 87.927568 
L 185.411765 87.927568 
L 185.411765 89.238649 
L 185.411765 85.305405 
L 181.764706 85.305405 
L 181.764706 83.994324 
L 179.941176 83.994324 
L 179.941176 78.75 
L 181.764706 78.75 
L 179.941176 78.75 
L 179.941176 76.127838 
L 183.588235 76.127838 
L 183.588235 73.505676 
L 185.411765 73.505676 
L 183.588235 73.505676 
L 183.588235 72.194595 
L 185.411765 72.194595 
L 185.411765 70.883514 
L 187.235294 70.883514 
L 187.235294 72.194595 
L 187.235294 70.883514 
L 185.411765 70.883514 
L 185.411765 65.639189 
L 183.588235 65.639189 
L 183.588235 64.328108 
L 185.411765 64.328108 
L 183.588235 64.328108 
L 183.588235 65.639189 
L 183.588235 63.017027 
L 181.764706 63.017027 
L 181.764706 60.394865 
L 181.764706 63.017027 
L 179.941176 63.017027 
L 179.941176 60.394865 
L 181.764706 60.394865 
L 176.294118 60.394865 
L 178.117647 60.394865 
L 178.117647 59.083784 
L 176.294118 59.083784 
L 176.294118 56.461622 
L 178.117647 56.461622 
L 178.117647 57.772703 
L 178.117647 57.772703 
L 179.941176 57.772703 
L 179.941176 55.150541 
L 178.117647 55.150541 
L 178.117647 56.461622 
L 176.294118 56.461622 
L 176.294118 57.772703 
L 178.117647 57.772703 
L 176.294118 57.772703 
L 176.294118 61.705946 
L 181.764706 61.705946 
L 181.764706 63.017027 
L 185.411765 63.017027 
L 185.411765 64.328108 
L 183.588235 64.328108 
L 183.588235 65.639189 
L 183.588235 64.328108 
L 187.235294 64.328108 
L 187.235294 60.394865 
L 187.235294 61.705946 
L 189.058824 61.705946 
L 189.058824 63.017027 
L 190.882353 63.017027 
L 185.411765 63.017027 
L 187.235294 63.017027 
L 187.235294 61.705946 
L 181.764706 61.705946 
L 187.235294 61.705946 
L 187.235294 64.328108 
L 189.058824 64.328108 
L 189.058824 65.639189 
L 194.529412 65.639189 
L 194.529412 64.328108 
L 190.882353 64.328108 
L 190.882353 72.194595 
L 190.882353 70.883514 
L 192.705882 70.883514 
L 187.235294 70.883514 
L 187.235294 72.194595 
L 187.235294 70.883514 
L 189.058824 70.883514 
L 185.411765 70.883514 
L 187.235294 70.883514 
L 187.235294 69.572432 
L 185.411765 69.572432 
L 185.411765 68.261351 
L 185.411765 68.261351 
L 187.235294 68.261351 
L 187.235294 65.639189 
L 183.588235 65.639189 
L 185.411765 65.639189 
L 185.411765 64.328108 
L 187.235294 64.328108 
L 187.235294 65.639189 
L 183.588235 65.639189 
L 183.588235 63.017027 
L 178.117647 63.017027 
L 178.117647 60.394865 
L 179.941176 60.394865 
L 179.941176 59.083784 
L 181.764706 59.083784 
L 181.764706 61.705946 
L 179.941176 61.705946 
L 179.941176 60.394865 
L 179.941176 61.705946 
L 176.294118 61.705946 
L 178.117647 61.705946 
L 178.117647 60.394865 
L 181.764706 60.394865 
L 181.764706 56.461622 
L 181.764706 57.772703 
L 185.411765 57.772703 
L 185.411765 55.150541 
L 185.411765 56.461622 
L 183.588235 56.461622 
L 183.588235 56.461622 
L 183.588235 57.772703 
L 183.588235 56.461622 
L 185.411765 56.461622 
L 183.588235 56.461622 
L 183.588235 60.394865 
L 181.764706 60.394865 
L 181.764706 61.705946 
L 183.588235 61.705946 
L 183.588235 63.017027 
L 183.588235 61.705946 
L 189.058824 61.705946 
L 189.058824 60.394865 
L 190.882353 60.394865 
L 190.882353 63.017027 
L 190.882353 61.705946 
L 192.705882 61.705946 
L 192.705882 60.394865 
L 190.882353 60.394865 
L 190.882353 61.705946 
L 189.058824 61.705946 
L 189.058824 60.394865 
L 190.882353 60.394865 
L 190.882353 63.017027 
L 187.235294 63.017027 
L 187.235294 60.394865 
L 189.058824 60.394865 
L 189.058824 57.772703 
L 189.058824 59.083784 
L 187.235294 59.083784 
L 189.058824 59.083784 
L 189.058824 60.394865 
L 185.411765 60.394865 
L 185.411765 61.705946 
L 185.411765 61.705946 
L 183.588235 61.705946 
L 185.411765 61.705946 
L 185.411765 63.017027 
L 185.411765 61.705946 
L 190.882353 61.705946 
L 190.882353 60.394865 
L 190.882353 63.017027 
L 187.235294 63.017027 
L 190.882353 63.017027 
L 190.882353 64.328108 
L 190.882353 63.017027 
L 194.529412 63.017027 
L 194.529412 64.328108 
L 196.352941 64.328108 
L 196.352941 64.328108 
" clip-path="url(#p4f56ee7caa)" style="fill: none; stroke: #a6d189; stroke-width: 0.75; stroke-linecap: square"/>
   </g>
   <g id="patch_3">
    <path d="M 45 224.28 
L 45 30.24 
" style="fill: none; stroke: #c6ceef; stroke-width: 0.8; stroke-linejoin: miter; stroke-linecap: square"/>
   </g>
   <g id="patch_4">
    <path d="M 324 224.28 
L 324 30.24 
" style="fill: none; stroke: #c6ceef; stroke-width: 0.8; stroke-linejoin: miter; stroke-linecap: square"/>
   </g>
   <g id="patch_5">
    <path d="M 45 224.28 
L 324 224.28 
" style="fill: none; stroke: #c6ceef; stroke-width: 0.8; stroke-linejoin: miter; stroke-linecap: square"/>
   </g>
   <g id="patch_6">
    <path d="M 45 30.24 
L 324 30.24 
" style="fill: none; stroke: #c6ceef; stroke-width: 0.8; stroke-linejoin: miter; stroke-linecap: square"/>
   </g>
   <g id="legend_1">
    <g id="patch_7">
     <path d="M 254.281789 93.988713 
L 317 93.988713 
Q 319 93.988713 319 91.988713 
L 319 37.24 
Q 319 35.24 317 35.24 
L 254.281789 35.24 
Q 252.281789 35.24 252.281789 37.24 
L 252.281789 91.988713 
Q 252.281789 93.988713 254.281789 93.988713 
z
" style="fill: #1e1e2e; opacity: 0.8; stroke: #c6ceef; stroke-linejoin: miter"/>
    </g>
    <g id="line2d_21">
     <path d="M 256.281789 42.74 
L 266.281789 42.74 
L 276.281789 42.74 
" style="fill: none; stroke: #eebebe; stroke-width: 0.75; stroke-linecap: square"/>
    </g>
    <g id="text_17">
     <!-- Walk 1 -->
     <g style="fill: #c6ceef" transform="translate(284.281789 46.24)scale(0.1 -0.1)">
      <defs>
       <path id="CMR17-57" d="M 5523 3775 
C 5581 3948 5677 4173 6048 4185 
L 6048 4352 
C 5939 4345 5715 4339 5600 4339 
C 5440 4339 5158 4339 5005 4352 
L 5005 4185 
C 5293 4179 5414 4019 5414 3865 
C 5414 3820 5408 3794 5382 3724 
L 4390 557 
L 3347 3890 
C 3328 3955 3322 3980 3322 4006 
C 3322 4185 3603 4185 3725 4185 
L 3725 4352 
C 3539 4339 3219 4339 3021 4339 
C 2861 4339 2573 4339 2426 4352 
L 2426 4185 
C 2720 4185 2797 4166 2861 4051 
C 2886 3993 2989 3660 2989 3640 
C 2989 3615 2976 3576 2970 3557 
L 2029 564 
L 986 3890 
C 954 3980 954 3993 954 4006 
C 954 4185 1235 4185 1363 4185 
L 1363 4352 
C 1178 4339 858 4339 659 4339 
C 493 4339 211 4339 58 4352 
L 58 4185 
C 442 4185 467 4147 531 3942 
L 1779 -20 
C 1811 -116 1811 -128 1869 -128 
C 1920 -128 1939 -116 1965 -26 
L 3053 3448 
L 4141 -26 
C 4166 -116 4186 -128 4237 -128 
C 4294 -128 4294 -116 4326 -20 
L 5523 3775 
z
" transform="scale(0.015625)"/>
       <path id="CMR17-61" d="M 2304 1656 
C 2304 2048 2304 2275 2035 2534 
C 1798 2751 1523 2816 1306 2816 
C 800 2816 435 2408 435 1977 
C 435 1740 627 1728 666 1728 
C 749 1728 896 1779 896 1958 
C 896 2118 774 2188 666 2188 
C 640 2188 608 2182 589 2176 
C 723 2594 1069 2713 1293 2713 
C 1613 2713 1965 2421 1965 1875 
L 1965 1632 
C 1587 1619 1133 1568 774 1373 
C 371 1147 256 822 256 576 
C 256 77 832 -64 1171 -64 
C 1523 -64 1850 135 1990 505 
C 2003 219 2182 -39 2464 -39 
C 2598 -39 2938 51 2938 563 
L 2938 926 
L 2822 926 
L 2822 557 
C 2822 161 2650 109 2566 109 
C 2304 109 2304 446 2304 732 
L 2304 1656 
z
M 1965 887 
C 1965 323 1568 38 1216 38 
C 896 38 646 278 646 576 
C 646 771 730 1114 1101 1322 
C 1408 1497 1760 1523 1965 1536 
L 1965 887 
z
" transform="scale(0.015625)"/>
       <path id="CMR17-6c" d="M 979 4416 
L 218 4345 
L 218 4179 
C 595 4179 653 4141 653 3835 
L 653 439 
C 653 198 627 166 218 166 
L 218 0 
C 371 12 653 12 813 12 
C 979 12 1261 12 1414 0 
L 1414 166 
C 1005 166 979 191 979 439 
L 979 4416 
z
" transform="scale(0.015625)"/>
       <path id="CMR17-6b" d="M 1670 1679 
C 1664 1692 1632 1730 1632 1749 
C 1632 1762 2086 2175 2144 2226 
C 2509 2532 2739 2563 2906 2570 
L 2906 2735 
C 2867 2735 2854 2735 2848 2729 
L 2534 2722 
C 2355 2722 2080 2722 1907 2735 
L 1907 2570 
C 1997 2563 2061 2513 2061 2423 
C 2061 2296 1933 2175 1926 2175 
L 960 1298 
L 960 4416 
L 198 4345 
L 198 4179 
C 576 4179 634 4141 634 3835 
L 634 439 
C 634 198 608 166 198 166 
L 198 0 
C 352 12 634 12 794 12 
C 954 12 1235 12 1389 0 
L 1389 166 
C 979 166 954 191 954 439 
L 954 1139 
L 1395 1540 
L 2042 586 
C 2118 471 2182 382 2182 299 
C 2182 185 2067 166 1990 166 
L 1990 0 
C 2144 12 2419 12 2579 12 
C 2694 12 2931 6 3040 0 
L 3040 166 
C 2739 166 2669 223 2477 503 
L 1670 1679 
z
" transform="scale(0.015625)"/>
       <path id="CMR17-31" d="M 1702 4083 
C 1702 4217 1696 4224 1606 4224 
C 1357 3927 979 3833 621 3820 
C 602 3820 570 3820 563 3808 
C 557 3795 557 3782 557 3648 
C 755 3648 1088 3686 1344 3839 
L 1344 467 
C 1344 243 1331 166 781 166 
L 589 166 
L 589 0 
C 896 6 1216 12 1523 12 
C 1830 12 2150 6 2458 0 
L 2458 166 
L 2266 166 
C 1715 166 1702 236 1702 467 
L 1702 4083 
z
" transform="scale(0.015625)"/>
      </defs>
      <use xlink:href="#CMR17-57" transform="scale(0.996264)"/>
      <use xlink:href="#CMR17-61" transform="translate(87.289395 0)scale(0.996264)"/>
      <use xlink:href="#CMR17-6c" transform="translate(132.979872 0)scale(0.996264)"/>
      <use xlink:href="#CMR17-6b" transform="translate(157.85093 0)scale(0.996264)"/>
      <use xlink:href="#CMR17-31" transform="translate(236.219812 0)scale(0.996264)"/>
     </g>
    </g>
    <g id="line2d_22">
     <path d="M 256.281789 56.677178 
L 266.281789 56.677178 
L 276.281789 56.677178 
" style="fill: none; stroke: #ca9ee6; stroke-width: 0.75; stroke-linecap: square"/>
    </g>
    <g id="text_18">
     <!-- Walk 2 -->
     <g style="fill: #c6ceef" transform="translate(284.281789 60.177178)scale(0.1 -0.1)">
      <use xlink:href="#CMR17-57" transform="scale(0.996264)"/>
      <use xlink:href="#CMR17-61" transform="translate(87.289395 0)scale(0.996264)"/>
      <use xlink:href="#CMR17-6c" transform="translate(132.979872 0)scale(0.996264)"/>
      <use xlink:href="#CMR17-6b" transform="translate(157.85093 0)scale(0.996264)"/>
      <use xlink:href="#CMR17-32" transform="translate(236.219812 0)scale(0.996264)"/>
     </g>
    </g>
    <g id="line2d_23">
     <path d="M 256.281789 70.614357 
L 266.281789 70.614357 
L 276.281789 70.614357 
" style="fill: none; stroke: #e5c890; stroke-width: 0.75; stroke-linecap: square"/>
    </g>
    <g id="text_19">
     <!-- Walk 3 -->
     <g style="fill: #c6ceef" transform="translate(284.281789 74.114357)scale(0.1 -0.1)">
      <defs>
       <path id="CMR17-33" d="M 1414 2176 
C 1984 2176 2234 1673 2234 1094 
C 2234 322 1824 25 1453 25 
C 1114 25 563 193 390 691 
C 422 678 454 678 486 678 
C 640 678 755 780 755 947 
C 755 1132 614 1216 486 1216 
C 378 1216 211 1164 211 927 
C 211 335 787 -128 1466 -128 
C 2176 -128 2720 432 2720 1087 
C 2720 1718 2208 2176 1600 2246 
C 2086 2347 2554 2776 2554 3353 
C 2554 3856 2048 4224 1472 4224 
C 890 4224 378 3862 378 3347 
C 378 3123 544 3084 627 3084 
C 762 3084 877 3167 877 3334 
C 877 3500 762 3584 627 3584 
C 602 3584 570 3584 544 3571 
C 730 3999 1235 4076 1459 4076 
C 1683 4076 2106 3966 2106 3347 
C 2106 3167 2080 2851 1862 2574 
C 1670 2329 1453 2316 1242 2297 
C 1210 2297 1062 2284 1037 2284 
C 992 2278 966 2272 966 2227 
C 966 2182 973 2176 1101 2176 
L 1414 2176 
z
" transform="scale(0.015625)"/>
      </defs>
      <use xlink:href="#CMR17-57" transform="scale(0.996264)"/>
      <use xlink:href="#CMR17-61" transform="translate(87.289395 0)scale(0.996264)"/>
      <use xlink:href="#CMR17-6c" transform="translate(132.979872 0)scale(0.996264)"/>
      <use xlink:href="#CMR17-6b" transform="translate(157.85093 0)scale(0.996264)"/>
      <use xlink:href="#CMR17-33" transform="translate(236.219812 0)scale(0.996264)"/>
     </g>
    </g>
    <g id="line2d_24">
     <path d="M 256.281789 84.551535 
L 266.281789 84.551535 
L 276.281789 84.551535 
" style="fill: none; stroke: #a6d189; stroke-width: 0.75; stroke-linecap: square"/>
    </g>
    <g id="text_20">
     <!-- Walk 4 -->
     <g style="fill: #c6ceef" transform="translate(284.281789 88.051535)scale(0.1 -0.1)">
      <use xlink:href="#CMR17-57" transform="scale(0.996264)"/>
      <use xlink:href="#CMR17-61" transform="translate(87.289395 0)scale(0.996264)"/>
      <use xlink:href="#CMR17-6c" transform="translate(132.979872 0)scale(0.996264)"/>
      <use xlink:href="#CMR17-6b" transform="translate(157.85093 0)scale(0.996264)"/>
      <use xlink:href="#CMR17-34" transform="translate(236.219812 0)scale(0.996264)"/>
     </g>
    </g>
   </g>
  </g>
 </g>
 <defs>
  <clipPath id="p4f56ee7caa">
   <rect x="45" y="30.24" width="279" height="194.04"/>
  </clipPath>
 </defs>
</svg>
