<?xml version="1.0" encoding="utf-8" standalone="no"?>
<!DOCTYPE svg PUBLIC "-//W3C//DTD SVG 1.1//EN"
  "http://www.w3.org/Graphics/SVG/1.1/DTD/svg11.dtd">
<svg xmlns:xlink="http://www.w3.org/1999/xlink" width="360pt" height="252pt" viewBox="0 0 360 252" xmlns="http://www.w3.org/2000/svg" version="1.1">
 <metadata>
  <rdf:RDF xmlns:dc="http://purl.org/dc/elements/1.1/" xmlns:cc="http://creativecommons.org/ns#" xmlns:rdf="http://www.w3.org/1999/02/22-rdf-syntax-ns#">
   <cc:Work>
    <dc:type rdf:resource="http://purl.org/dc/dcmitype/StillImage"/>
    <dc:date>2022-12-01T12:48:09.151014</dc:date>
    <dc:format>image/svg+xml</dc:format>
    <dc:creator>
     <cc:Agent>
      <dc:title>Matplotlib v3.5.1, https://matplotlib.org/</dc:title>
     </cc:Agent>
    </dc:creator>
   </cc:Work>
  </rdf:RDF>
 </metadata>
 <defs>
  <style type="text/css">*{stroke-linejoin: round; stroke-linecap: butt}</style>
 </defs>
 <g id="figure_1">
  <g id="patch_1">
   <path d="M 0 252 
L 360 252 
L 360 0 
L 0 0 
L 0 252 
z
" style="fill: none"/>
  </g>
  <g id="axes_1">
   <g id="patch_2">
    <path d="M 45 224.28 
L 324 224.28 
L 324 30.24 
L 45 30.24 
z
" style="fill: #1e1e2e"/>
   </g>
   <g id="matplotlib.axis_1">
    <g id="xtick_1">
     <g id="line2d_1">
      <defs>
       <path id="m12dd522974" d="M 0 0 
L 0 3.5 
" style="stroke: #c6ceef; stroke-width: 0.8"/>
      </defs>
      <g>
       <use xlink:href="#m12dd522974" x="57.764706" y="224.28" style="fill: #c6ceef; stroke: #c6ceef; stroke-width: 0.8"/>
      </g>
     </g>
     <g id="text_1">
      <!-- $\mathdefault{−80}$ -->
      <g style="fill: #c6ceef" transform="translate(48.908999 238.198498)scale(0.1 -0.1)">
       <defs>
        <path id="CMSY10-0" d="M 4218 1472 
C 4326 1472 4442 1472 4442 1600 
C 4442 1728 4326 1728 4218 1728 
L 755 1728 
C 646 1728 531 1728 531 1600 
C 531 1472 646 1472 755 1472 
L 4218 1472 
z
" transform="scale(0.015625)"/>
        <path id="CMR17-38" d="M 1741 2289 
C 2144 2494 2554 2803 2554 3298 
C 2554 3884 1990 4224 1472 4224 
C 890 4224 378 3800 378 3215 
C 378 3054 416 2777 666 2533 
C 730 2469 998 2276 1171 2154 
C 883 2006 211 1652 211 945 
C 211 282 838 -128 1459 -128 
C 2144 -128 2720 366 2720 1022 
C 2720 1607 2330 1877 2074 2051 
L 1741 2289 
z
M 902 2855 
C 851 2887 595 3086 595 3388 
C 595 3781 998 4076 1459 4076 
C 1965 4076 2336 3716 2336 3298 
C 2336 2700 1670 2359 1638 2359 
C 1632 2359 1626 2359 1574 2398 
L 902 2855 
z
M 2080 1536 
C 2176 1466 2483 1253 2483 861 
C 2483 385 2010 25 1472 25 
C 890 25 448 443 448 951 
C 448 1459 838 1884 1280 2083 
L 2080 1536 
z
" transform="scale(0.015625)"/>
        <path id="CMR17-30" d="M 2688 2038 
C 2688 2430 2682 3099 2413 3613 
C 2176 4063 1798 4224 1466 4224 
C 1158 4224 768 4082 525 3620 
C 269 3137 243 2539 243 2038 
C 243 1671 250 1112 448 623 
C 723 -39 1216 -128 1466 -128 
C 1760 -128 2208 -7 2470 604 
C 2662 1048 2688 1568 2688 2038 
z
M 1466 -26 
C 1056 -26 813 328 723 816 
C 653 1196 653 1749 653 2109 
C 653 2604 653 3015 736 3407 
C 858 3954 1216 4121 1466 4121 
C 1728 4121 2067 3947 2189 3420 
C 2272 3054 2278 2623 2278 2109 
C 2278 1691 2278 1176 2202 797 
C 2067 96 1690 -26 1466 -26 
z
" transform="scale(0.015625)"/>
       </defs>
       <use xlink:href="#CMSY10-0" transform="scale(0.996264)"/>
       <use xlink:href="#CMR17-38" transform="translate(77.487468 0)scale(0.996264)"/>
       <use xlink:href="#CMR17-30" transform="translate(123.177945 0)scale(0.996264)"/>
      </g>
     </g>
    </g>
    <g id="xtick_2">
     <g id="line2d_2">
      <g>
       <use xlink:href="#m12dd522974" x="94.235294" y="224.28" style="fill: #c6ceef; stroke: #c6ceef; stroke-width: 0.8"/>
      </g>
     </g>
     <g id="text_2">
      <!-- $\mathdefault{−60}$ -->
      <g style="fill: #c6ceef" transform="translate(85.379587 238.198498)scale(0.1 -0.1)">
       <defs>
        <path id="CMR17-36" d="M 678 2198 
C 678 3712 1395 4076 1811 4076 
C 1946 4076 2272 4049 2400 3782 
C 2298 3782 2106 3782 2106 3558 
C 2106 3385 2246 3328 2336 3328 
C 2394 3328 2566 3353 2566 3571 
C 2566 3987 2246 4224 1805 4224 
C 1043 4224 243 3411 243 2011 
C 243 257 966 -128 1478 -128 
C 2099 -128 2688 431 2688 1295 
C 2688 2101 2170 2688 1517 2688 
C 1126 2688 838 2430 678 1979 
L 678 2198 
z
M 1478 25 
C 691 25 691 1212 691 1450 
C 691 1914 909 2585 1504 2585 
C 1613 2585 1926 2585 2138 2140 
C 2253 1889 2253 1624 2253 1302 
C 2253 954 2253 696 2118 438 
C 1978 173 1773 25 1478 25 
z
" transform="scale(0.015625)"/>
       </defs>
       <use xlink:href="#CMSY10-0" transform="scale(0.996264)"/>
       <use xlink:href="#CMR17-36" transform="translate(77.487468 0)scale(0.996264)"/>
       <use xlink:href="#CMR17-30" transform="translate(123.177945 0)scale(0.996264)"/>
      </g>
     </g>
    </g>
    <g id="xtick_3">
     <g id="line2d_3">
      <g>
       <use xlink:href="#m12dd522974" x="130.705882" y="224.28" style="fill: #c6ceef; stroke: #c6ceef; stroke-width: 0.8"/>
      </g>
     </g>
     <g id="text_3">
      <!-- $\mathdefault{−40}$ -->
      <g style="fill: #c6ceef" transform="translate(121.850175 238.198498)scale(0.1 -0.1)">
       <defs>
        <path id="CMR17-34" d="M 2150 4147 
C 2150 4281 2144 4288 2029 4288 
L 128 1254 
L 128 1088 
L 1779 1088 
L 1779 460 
C 1779 230 1766 166 1318 166 
L 1197 166 
L 1197 0 
C 1402 12 1747 12 1965 12 
C 2182 12 2528 12 2733 0 
L 2733 166 
L 2611 166 
C 2163 166 2150 230 2150 460 
L 2150 1088 
L 2803 1088 
L 2803 1254 
L 2150 1254 
L 2150 4147 
z
M 1798 3723 
L 1798 1254 
L 256 1254 
L 1798 3723 
z
" transform="scale(0.015625)"/>
       </defs>
       <use xlink:href="#CMSY10-0" transform="scale(0.996264)"/>
       <use xlink:href="#CMR17-34" transform="translate(77.487468 0)scale(0.996264)"/>
       <use xlink:href="#CMR17-30" transform="translate(123.177945 0)scale(0.996264)"/>
      </g>
     </g>
    </g>
    <g id="xtick_4">
     <g id="line2d_4">
      <g>
       <use xlink:href="#m12dd522974" x="167.176471" y="224.28" style="fill: #c6ceef; stroke: #c6ceef; stroke-width: 0.8"/>
      </g>
     </g>
     <g id="text_4">
      <!-- $\mathdefault{−20}$ -->
      <g style="fill: #c6ceef" transform="translate(158.320763 238.198498)scale(0.1 -0.1)">
       <defs>
        <path id="CMR17-32" d="M 2669 990 
L 2554 990 
C 2490 537 2438 460 2413 422 
C 2381 371 1920 371 1830 371 
L 602 371 
C 832 620 1280 1073 1824 1596 
C 2214 1966 2669 2400 2669 3033 
C 2669 3788 2067 4224 1395 4224 
C 691 4224 262 3603 262 3027 
C 262 2777 448 2745 525 2745 
C 589 2745 781 2783 781 3007 
C 781 3206 614 3264 525 3264 
C 486 3264 448 3257 422 3244 
C 544 3788 915 4057 1306 4057 
C 1862 4057 2227 3616 2227 3033 
C 2227 2477 1901 1998 1536 1583 
L 262 147 
L 262 0 
L 2515 0 
L 2669 990 
z
" transform="scale(0.015625)"/>
       </defs>
       <use xlink:href="#CMSY10-0" transform="scale(0.996264)"/>
       <use xlink:href="#CMR17-32" transform="translate(77.487468 0)scale(0.996264)"/>
       <use xlink:href="#CMR17-30" transform="translate(123.177945 0)scale(0.996264)"/>
      </g>
     </g>
    </g>
    <g id="xtick_5">
     <g id="line2d_5">
      <g>
       <use xlink:href="#m12dd522974" x="203.647059" y="224.28" style="fill: #c6ceef; stroke: #c6ceef; stroke-width: 0.8"/>
      </g>
     </g>
     <g id="text_5">
      <!-- $\mathdefault{0}$ -->
      <g style="fill: #c6ceef" transform="translate(201.156391 238.198498)scale(0.1 -0.1)">
       <use xlink:href="#CMR17-30" transform="scale(0.996264)"/>
      </g>
     </g>
    </g>
    <g id="xtick_6">
     <g id="line2d_6">
      <g>
       <use xlink:href="#m12dd522974" x="240.117647" y="224.28" style="fill: #c6ceef; stroke: #c6ceef; stroke-width: 0.8"/>
      </g>
     </g>
     <g id="text_6">
      <!-- $\mathdefault{20}$ -->
      <g style="fill: #c6ceef" transform="translate(235.136312 238.198498)scale(0.1 -0.1)">
       <use xlink:href="#CMR17-32" transform="scale(0.996264)"/>
       <use xlink:href="#CMR17-30" transform="translate(45.690477 0)scale(0.996264)"/>
      </g>
     </g>
    </g>
    <g id="xtick_7">
     <g id="line2d_7">
      <g>
       <use xlink:href="#m12dd522974" x="276.588235" y="224.28" style="fill: #c6ceef; stroke: #c6ceef; stroke-width: 0.8"/>
      </g>
     </g>
     <g id="text_7">
      <!-- $\mathdefault{40}$ -->
      <g style="fill: #c6ceef" transform="translate(271.6069 238.198498)scale(0.1 -0.1)">
       <use xlink:href="#CMR17-34" transform="scale(0.996264)"/>
       <use xlink:href="#CMR17-30" transform="translate(45.690477 0)scale(0.996264)"/>
      </g>
     </g>
    </g>
    <g id="xtick_8">
     <g id="line2d_8">
      <g>
       <use xlink:href="#m12dd522974" x="313.058824" y="224.28" style="fill: #c6ceef; stroke: #c6ceef; stroke-width: 0.8"/>
      </g>
     </g>
     <g id="text_8">
      <!-- $\mathdefault{60}$ -->
      <g style="fill: #c6ceef" transform="translate(308.077488 238.198498)scale(0.1 -0.1)">
       <use xlink:href="#CMR17-36" transform="scale(0.996264)"/>
       <use xlink:href="#CMR17-30" transform="translate(45.690477 0)scale(0.996264)"/>
      </g>
     </g>
    </g>
   </g>
   <g id="matplotlib.axis_2">
    <g id="ytick_1">
     <g id="line2d_9">
      <defs>
       <path id="m3774099c64" d="M 0 0 
L -3.5 0 
" style="stroke: #c6ceef; stroke-width: 0.8"/>
      </defs>
      <g>
       <use xlink:href="#m3774099c64" x="45" y="224.28" style="fill: #c6ceef; stroke: #c6ceef; stroke-width: 0.8"/>
      </g>
     </g>
     <g id="text_9">
      <!-- $\mathdefault{−80}$ -->
      <g style="fill: #c6ceef" transform="translate(20.288586 227.739249)scale(0.1 -0.1)">
       <use xlink:href="#CMSY10-0" transform="scale(0.996264)"/>
       <use xlink:href="#CMR17-38" transform="translate(77.487468 0)scale(0.996264)"/>
       <use xlink:href="#CMR17-30" transform="translate(123.177945 0)scale(0.996264)"/>
      </g>
     </g>
    </g>
    <g id="ytick_2">
     <g id="line2d_10">
      <g>
       <use xlink:href="#m3774099c64" x="45" y="198.058378" style="fill: #c6ceef; stroke: #c6ceef; stroke-width: 0.8"/>
      </g>
     </g>
     <g id="text_10">
      <!-- $\mathdefault{−60}$ -->
      <g style="fill: #c6ceef" transform="translate(20.288586 201.517628)scale(0.1 -0.1)">
       <use xlink:href="#CMSY10-0" transform="scale(0.996264)"/>
       <use xlink:href="#CMR17-36" transform="translate(77.487468 0)scale(0.996264)"/>
       <use xlink:href="#CMR17-30" transform="translate(123.177945 0)scale(0.996264)"/>
      </g>
     </g>
    </g>
    <g id="ytick_3">
     <g id="line2d_11">
      <g>
       <use xlink:href="#m3774099c64" x="45" y="171.836757" style="fill: #c6ceef; stroke: #c6ceef; stroke-width: 0.8"/>
      </g>
     </g>
     <g id="text_11">
      <!-- $\mathdefault{−40}$ -->
      <g style="fill: #c6ceef" transform="translate(20.288586 175.296006)scale(0.1 -0.1)">
       <use xlink:href="#CMSY10-0" transform="scale(0.996264)"/>
       <use xlink:href="#CMR17-34" transform="translate(77.487468 0)scale(0.996264)"/>
       <use xlink:href="#CMR17-30" transform="translate(123.177945 0)scale(0.996264)"/>
      </g>
     </g>
    </g>
    <g id="ytick_4">
     <g id="line2d_12">
      <g>
       <use xlink:href="#m3774099c64" x="45" y="145.615135" style="fill: #c6ceef; stroke: #c6ceef; stroke-width: 0.8"/>
      </g>
     </g>
     <g id="text_12">
      <!-- $\mathdefault{−20}$ -->
      <g style="fill: #c6ceef" transform="translate(20.288586 149.074384)scale(0.1 -0.1)">
       <use xlink:href="#CMSY10-0" transform="scale(0.996264)"/>
       <use xlink:href="#CMR17-32" transform="translate(77.487468 0)scale(0.996264)"/>
       <use xlink:href="#CMR17-30" transform="translate(123.177945 0)scale(0.996264)"/>
      </g>
     </g>
    </g>
    <g id="ytick_5">
     <g id="line2d_13">
      <g>
       <use xlink:href="#m3774099c64" x="45" y="119.393514" style="fill: #c6ceef; stroke: #c6ceef; stroke-width: 0.8"/>
      </g>
     </g>
     <g id="text_13">
      <!-- $\mathdefault{0}$ -->
      <g style="fill: #c6ceef" transform="translate(33.018665 122.852763)scale(0.1 -0.1)">
       <use xlink:href="#CMR17-30" transform="scale(0.996264)"/>
      </g>
     </g>
    </g>
    <g id="ytick_6">
     <g id="line2d_14">
      <g>
       <use xlink:href="#m3774099c64" x="45" y="93.171892" style="fill: #c6ceef; stroke: #c6ceef; stroke-width: 0.8"/>
      </g>
     </g>
     <g id="text_14">
      <!-- $\mathdefault{20}$ -->
      <g style="fill: #c6ceef" transform="translate(28.037329 96.631141)scale(0.1 -0.1)">
       <use xlink:href="#CMR17-32" transform="scale(0.996264)"/>
       <use xlink:href="#CMR17-30" transform="translate(45.690477 0)scale(0.996264)"/>
      </g>
     </g>
    </g>
    <g id="ytick_7">
     <g id="line2d_15">
      <g>
       <use xlink:href="#m3774099c64" x="45" y="66.95027" style="fill: #c6ceef; stroke: #c6ceef; stroke-width: 0.8"/>
      </g>
     </g>
     <g id="text_15">
      <!-- $\mathdefault{40}$ -->
      <g style="fill: #c6ceef" transform="translate(28.037329 70.409519)scale(0.1 -0.1)">
       <use xlink:href="#CMR17-34" transform="scale(0.996264)"/>
       <use xlink:href="#CMR17-30" transform="translate(45.690477 0)scale(0.996264)"/>
      </g>
     </g>
    </g>
    <g id="ytick_8">
     <g id="line2d_16">
      <g>
       <use xlink:href="#m3774099c64" x="45" y="40.728649" style="fill: #c6ceef; stroke: #c6ceef; stroke-width: 0.8"/>
      </g>
     </g>
     <g id="text_16">
      <!-- $\mathdefault{60}$ -->
      <g style="fill: #c6ceef" transform="translate(28.037329 44.187898)scale(0.1 -0.1)">
       <use xlink:href="#CMR17-36" transform="scale(0.996264)"/>
       <use xlink:href="#CMR17-30" transform="translate(45.690477 0)scale(0.996264)"/>
      </g>
     </g>
    </g>
   </g>
   <g id="line2d_17">
    <path d="M 201.823529 119.393514 
L 198.176471 119.393514 
L 198.176471 120.704595 
L 198.176471 119.393514 
L 196.352941 119.393514 
L 198.176471 119.393514 
L 198.176471 118.082432 
L 196.352941 118.082432 
L 198.176471 118.082432 
L 198.176471 119.393514 
L 196.352941 119.393514 
L 196.352941 119.393514 
L 196.352941 120.704595 
L 200 120.704595 
L 200 125.948919 
L 196.352941 125.948919 
L 196.352941 127.26 
L 194.529412 127.26 
L 194.529412 131.193243 
L 194.529412 129.882162 
L 192.705882 129.882162 
L 192.705882 127.26 
L 192.705882 128.571081 
L 196.352941 128.571081 
L 192.705882 128.571081 
L 192.705882 129.882162 
L 194.529412 129.882162 
L 194.529412 131.193243 
L 192.705882 131.193243 
L 192.705882 132.504324 
L 192.705882 132.504324 
L 190.882353 132.504324 
L 190.882353 133.815405 
L 189.058824 133.815405 
L 189.058824 135.126486 
L 187.235294 135.126486 
L 187.235294 133.815405 
L 189.058824 133.815405 
L 189.058824 136.437568 
L 187.235294 136.437568 
L 189.058824 136.437568 
L 189.058824 133.815405 
L 190.882353 133.815405 
L 190.882353 136.437568 
L 190.882353 135.126486 
L 189.058824 135.126486 
L 189.058824 133.815405 
L 190.882353 133.815405 
L 190.882353 136.437568 
L 190.882353 135.126486 
L 189.058824 135.126486 
L 189.058824 132.504324 
L 189.058824 136.437568 
L 190.882353 136.437568 
L 190.882353 136.437568 
L 190.882353 132.504324 
L 189.058824 132.504324 
L 189.058824 133.815405 
L 187.235294 133.815405 
L 187.235294 128.571081 
L 190.882353 128.571081 
L 190.882353 132.504324 
L 190.882353 132.504324 
L 192.705882 132.504324 
L 192.705882 132.504324 
L 192.705882 131.193243 
L 190.882353 131.193243 
L 194.529412 131.193243 
L 194.529412 133.815405 
L 196.352941 133.815405 
L 196.352941 133.815405 
L 196.352941 135.126486 
L 198.176471 135.126486 
L 198.176471 129.882162 
L 198.176471 131.193243 
L 196.352941 131.193243 
L 196.352941 127.26 
L 196.352941 129.882162 
L 198.176471 129.882162 
L 198.176471 131.193243 
L 198.176471 129.882162 
L 194.529412 129.882162 
L 194.529412 129.882162 
L 194.529412 131.193243 
L 194.529412 129.882162 
L 196.352941 129.882162 
L 196.352941 131.193243 
L 194.529412 131.193243 
L 196.352941 131.193243 
L 196.352941 132.504324 
L 196.352941 131.193243 
L 194.529412 131.193243 
L 194.529412 133.815405 
L 192.705882 133.815405 
L 194.529412 133.815405 
L 194.529412 135.126486 
L 192.705882 135.126486 
L 192.705882 137.748649 
L 190.882353 137.748649 
L 190.882353 139.05973 
L 194.529412 139.05973 
L 194.529412 142.992973 
L 196.352941 142.992973 
L 196.352941 145.615135 
L 196.352941 144.304054 
L 198.176471 144.304054 
L 198.176471 145.615135 
L 198.176471 144.304054 
L 200 144.304054 
L 200 142.992973 
L 198.176471 142.992973 
L 198.176471 144.304054 
L 196.352941 144.304054 
L 196.352941 142.992973 
L 194.529412 142.992973 
L 194.529412 145.615135 
L 194.529412 144.304054 
L 192.705882 144.304054 
L 192.705882 141.681892 
L 194.529412 141.681892 
L 194.529412 140.370811 
L 196.352941 140.370811 
L 194.529412 140.370811 
L 194.529412 141.681892 
L 196.352941 141.681892 
L 196.352941 140.370811 
L 198.176471 140.370811 
L 198.176471 141.681892 
L 200 141.681892 
L 200 146.926216 
L 200 146.926216 
L 201.823529 146.926216 
L 201.823529 145.615135 
L 203.647059 145.615135 
L 203.647059 144.304054 
L 203.647059 145.615135 
L 198.176471 145.615135 
L 198.176471 146.926216 
L 192.705882 146.926216 
L 192.705882 148.237297 
L 194.529412 148.237297 
L 190.882353 148.237297 
L 190.882353 146.926216 
L 189.058824 146.926216 
L 190.882353 146.926216 
L 190.882353 145.615135 
L 190.882353 146.926216 
L 189.058824 146.926216 
L 189.058824 145.615135 
L 187.235294 145.615135 
L 187.235294 146.926216 
L 189.058824 146.926216 
L 189.058824 145.615135 
L 189.058824 146.926216 
L 192.705882 146.926216 
L 192.705882 144.304054 
L 194.529412 144.304054 
L 194.529412 144.304054 
L 194.529412 146.926216 
L 194.529412 146.926216 
L 196.352941 146.926216 
L 196.352941 148.237297 
L 198.176471 148.237297 
L 198.176471 149.548378 
L 200 149.548378 
L 198.176471 149.548378 
L 198.176471 150.859459 
L 200 150.859459 
L 196.352941 150.859459 
L 196.352941 149.548378 
L 198.176471 149.548378 
L 198.176471 150.859459 
L 200 150.859459 
L 200 152.170541 
L 200 150.859459 
L 198.176471 150.859459 
L 200 150.859459 
L 200 152.170541 
L 203.647059 152.170541 
L 203.647059 153.481622 
L 201.823529 153.481622 
L 201.823529 156.103784 
L 198.176471 156.103784 
L 198.176471 157.414865 
L 198.176471 156.103784 
L 200 156.103784 
L 200 160.037027 
L 198.176471 160.037027 
L 198.176471 161.348108 
L 196.352941 161.348108 
L 196.352941 162.659189 
L 198.176471 162.659189 
L 198.176471 167.903514 
L 196.352941 167.903514 
L 196.352941 169.214595 
L 198.176471 169.214595 
L 196.352941 169.214595 
L 196.352941 170.525676 
L 196.352941 169.214595 
L 198.176471 169.214595 
L 198.176471 165.281351 
L 196.352941 165.281351 
L 200 165.281351 
L 200 166.592432 
L 200 165.281351 
L 201.823529 165.281351 
L 201.823529 163.97027 
L 201.823529 163.97027 
L 203.647059 163.97027 
L 203.647059 161.348108 
L 205.470588 161.348108 
L 205.470588 162.659189 
L 201.823529 162.659189 
L 201.823529 163.97027 
L 203.647059 163.97027 
L 203.647059 166.592432 
L 201.823529 166.592432 
L 209.117647 166.592432 
L 209.117647 167.903514 
L 210.941176 167.903514 
L 209.117647 167.903514 
L 209.117647 169.214595 
L 212.764706 169.214595 
L 212.764706 171.836757 
L 212.764706 171.836757 
L 210.941176 171.836757 
L 210.941176 174.458919 
L 216.411765 174.458919 
L 216.411765 175.77 
L 214.588235 175.77 
L 216.411765 175.77 
L 216.411765 174.458919 
L 218.235294 174.458919 
L 218.235294 175.77 
L 218.235294 174.458919 
L 216.411765 174.458919 
L 221.882353 174.458919 
L 221.882353 177.081081 
L 223.705882 177.081081 
L 223.705882 179.703243 
L 223.705882 178.392162 
L 221.882353 178.392162 
L 221.882353 179.703243 
L 220.058824 179.703243 
L 221.882353 179.703243 
L 221.882353 183.636486 
L 223.705882 183.636486 
L 223.705882 182.325405 
L 223.705882 184.947568 
L 225.529412 184.947568 
L 225.529412 187.56973 
L 225.529412 186.258649 
L 218.235294 186.258649 
L 221.882353 186.258649 
L 221.882353 184.947568 
L 223.705882 184.947568 
L 223.705882 186.258649 
L 221.882353 186.258649 
L 221.882353 184.947568 
L 223.705882 184.947568 
L 223.705882 184.947568 
L 223.705882 186.258649 
L 223.705882 184.947568 
L 221.882353 184.947568 
L 223.705882 184.947568 
L 223.705882 183.636486 
L 223.705882 184.947568 
L 221.882353 184.947568 
L 221.882353 186.258649 
L 220.058824 186.258649 
L 220.058824 188.880811 
L 221.882353 188.880811 
L 221.882353 192.814054 
L 221.882353 191.502973 
L 223.705882 191.502973 
L 223.705882 192.814054 
L 221.882353 192.814054 
L 221.882353 191.502973 
L 223.705882 191.502973 
L 223.705882 190.191892 
L 223.705882 192.814054 
L 225.529412 192.814054 
L 225.529412 194.125135 
L 223.705882 194.125135 
L 223.705882 192.814054 
L 223.705882 195.436216 
L 225.529412 195.436216 
L 225.529412 194.125135 
L 227.352941 194.125135 
L 227.352941 192.814054 
L 229.176471 192.814054 
L 229.176471 196.747297 
L 231 196.747297 
L 231 195.436216 
L 234.647059 195.436216 
L 234.647059 191.502973 
L 234.647059 192.814054 
L 236.470588 192.814054 
L 236.470588 194.125135 
L 234.647059 194.125135 
L 234.647059 198.058378 
L 234.647059 198.058378 
L 232.823529 198.058378 
L 232.823529 201.991622 
L 231 201.991622 
L 231 203.302703 
L 231 201.991622 
L 227.352941 201.991622 
L 227.352941 203.302703 
L 227.352941 201.991622 
L 225.529412 201.991622 
L 225.529412 204.613784 
L 225.529412 203.302703 
L 223.705882 203.302703 
L 225.529412 203.302703 
L 225.529412 204.613784 
L 223.705882 204.613784 
L 223.705882 201.991622 
L 223.705882 203.302703 
L 225.529412 203.302703 
L 223.705882 203.302703 
L 223.705882 204.613784 
L 223.705882 203.302703 
L 221.882353 203.302703 
L 221.882353 205.924865 
L 221.882353 204.613784 
L 218.235294 204.613784 
L 218.235294 205.924865 
L 220.058824 205.924865 
L 216.411765 205.924865 
L 216.411765 208.547027 
L 218.235294 208.547027 
L 218.235294 205.924865 
L 218.235294 207.235946 
L 220.058824 207.235946 
L 220.058824 204.613784 
L 220.058824 207.235946 
L 218.235294 207.235946 
L 221.882353 207.235946 
L 221.882353 205.924865 
L 221.882353 208.547027 
L 223.705882 208.547027 
L 223.705882 209.858108 
L 221.882353 209.858108 
L 221.882353 211.169189 
L 221.882353 211.169189 
" clip-path="url(#p55b8bc92ee)" style="fill: none; stroke: #eebebe; stroke-width: 0.75; stroke-linecap: square"/>
   </g>
   <g id="line2d_18">
    <path d="M 201.823529 119.393514 
L 200 119.393514 
L 201.823529 119.393514 
L 201.823529 118.082432 
L 201.823529 119.393514 
L 200 119.393514 
L 200 116.771351 
L 200 116.771351 
L 198.176471 116.771351 
L 198.176471 118.082432 
L 196.352941 118.082432 
L 196.352941 119.393514 
L 196.352941 115.46027 
L 196.352941 116.771351 
L 194.529412 116.771351 
L 194.529412 118.082432 
L 194.529412 116.771351 
L 196.352941 116.771351 
L 196.352941 115.46027 
L 196.352941 116.771351 
L 194.529412 116.771351 
L 194.529412 115.46027 
L 194.529412 116.771351 
L 192.705882 116.771351 
L 192.705882 118.082432 
L 190.882353 118.082432 
L 194.529412 118.082432 
L 192.705882 118.082432 
L 192.705882 119.393514 
L 194.529412 119.393514 
L 194.529412 120.704595 
L 196.352941 120.704595 
L 190.882353 120.704595 
L 190.882353 119.393514 
L 189.058824 119.393514 
L 190.882353 119.393514 
L 190.882353 118.082432 
L 189.058824 118.082432 
L 189.058824 116.771351 
L 189.058824 119.393514 
L 185.411765 119.393514 
L 190.882353 119.393514 
L 189.058824 119.393514 
L 189.058824 118.082432 
L 189.058824 118.082432 
L 185.411765 118.082432 
L 185.411765 119.393514 
L 183.588235 119.393514 
L 183.588235 118.082432 
L 183.588235 119.393514 
L 185.411765 119.393514 
L 183.588235 119.393514 
L 183.588235 120.704595 
L 183.588235 116.771351 
L 183.588235 118.082432 
L 185.411765 118.082432 
L 185.411765 118.082432 
L 185.411765 116.771351 
L 189.058824 116.771351 
L 187.235294 116.771351 
L 187.235294 114.149189 
L 187.235294 115.46027 
L 189.058824 115.46027 
L 189.058824 114.149189 
L 189.058824 115.46027 
L 187.235294 115.46027 
L 190.882353 115.46027 
L 189.058824 115.46027 
L 189.058824 116.771351 
L 187.235294 116.771351 
L 187.235294 115.46027 
L 187.235294 116.771351 
L 185.411765 116.771351 
L 187.235294 116.771351 
L 187.235294 119.393514 
L 187.235294 118.082432 
L 185.411765 118.082432 
L 185.411765 119.393514 
L 183.588235 119.393514 
L 183.588235 118.082432 
L 183.588235 123.326757 
L 183.588235 119.393514 
L 181.764706 119.393514 
L 181.764706 122.015676 
L 185.411765 122.015676 
L 185.411765 124.637838 
L 185.411765 123.326757 
L 189.058824 123.326757 
L 189.058824 124.637838 
L 187.235294 124.637838 
L 187.235294 125.948919 
L 183.588235 125.948919 
L 185.411765 125.948919 
L 185.411765 124.637838 
L 187.235294 124.637838 
L 187.235294 125.948919 
L 189.058824 125.948919 
L 185.411765 125.948919 
L 185.411765 124.637838 
L 187.235294 124.637838 
L 187.235294 123.326757 
L 189.058824 123.326757 
L 189.058824 122.015676 
L 189.058824 124.637838 
L 189.058824 123.326757 
L 190.882353 123.326757 
L 190.882353 124.637838 
L 190.882353 124.637838 
L 192.705882 124.637838 
L 192.705882 125.948919 
L 192.705882 124.637838 
L 194.529412 124.637838 
L 194.529412 129.882162 
L 190.882353 129.882162 
L 196.352941 129.882162 
L 196.352941 132.504324 
L 198.176471 132.504324 
L 198.176471 133.815405 
L 201.823529 133.815405 
L 200 133.815405 
L 200 135.126486 
L 200 133.815405 
L 205.470588 133.815405 
L 201.823529 133.815405 
L 201.823529 132.504324 
L 201.823529 135.126486 
L 201.823529 135.126486 
L 203.647059 135.126486 
L 203.647059 133.815405 
L 209.117647 133.815405 
L 209.117647 132.504324 
L 209.117647 133.815405 
L 214.588235 133.815405 
L 214.588235 137.748649 
L 216.411765 137.748649 
L 210.941176 137.748649 
L 214.588235 137.748649 
L 214.588235 139.05973 
L 216.411765 139.05973 
L 216.411765 139.05973 
L 216.411765 136.437568 
L 216.411765 140.370811 
L 216.411765 137.748649 
L 214.588235 137.748649 
L 221.882353 137.748649 
L 221.882353 139.05973 
L 220.058824 139.05973 
L 220.058824 136.437568 
L 220.058824 137.748649 
L 221.882353 137.748649 
L 221.882353 144.304054 
L 221.882353 142.992973 
L 220.058824 142.992973 
L 220.058824 144.304054 
L 221.882353 144.304054 
L 221.882353 145.615135 
L 221.882353 144.304054 
L 223.705882 144.304054 
L 223.705882 141.681892 
L 223.705882 141.681892 
L 220.058824 141.681892 
L 221.882353 141.681892 
L 221.882353 140.370811 
L 221.882353 142.992973 
L 223.705882 142.992973 
L 223.705882 144.304054 
L 220.058824 144.304054 
L 220.058824 145.615135 
L 220.058824 144.304054 
L 221.882353 144.304054 
L 221.882353 145.615135 
L 221.882353 144.304054 
L 220.058824 144.304054 
L 221.882353 144.304054 
L 221.882353 145.615135 
L 221.882353 144.304054 
L 220.058824 144.304054 
L 221.882353 144.304054 
L 221.882353 146.926216 
L 223.705882 146.926216 
L 223.705882 148.237297 
L 225.529412 148.237297 
L 225.529412 145.615135 
L 225.529412 146.926216 
L 229.176471 146.926216 
L 229.176471 145.615135 
L 232.823529 145.615135 
L 231 145.615135 
L 231 144.304054 
L 234.647059 144.304054 
L 234.647059 144.304054 
L 234.647059 142.992973 
L 234.647059 145.615135 
L 236.470588 145.615135 
L 236.470588 142.992973 
L 238.294118 142.992973 
L 238.294118 145.615135 
L 241.941176 145.615135 
L 241.941176 150.859459 
L 240.117647 150.859459 
L 240.117647 152.170541 
L 241.941176 152.170541 
L 240.117647 152.170541 
L 240.117647 154.792703 
L 238.294118 154.792703 
L 238.294118 153.481622 
L 238.294118 156.103784 
L 240.117647 156.103784 
L 240.117647 157.414865 
L 241.941176 157.414865 
L 240.117647 157.414865 
L 240.117647 156.103784 
L 241.941176 156.103784 
L 241.941176 154.792703 
L 243.764706 154.792703 
L 243.764706 160.037027 
L 243.764706 158.725946 
L 241.941176 158.725946 
L 241.941176 157.414865 
L 241.941176 161.348108 
L 240.117647 161.348108 
L 240.117647 160.037027 
L 240.117647 161.348108 
L 241.941176 161.348108 
L 241.941176 162.659189 
L 245.588235 162.659189 
L 245.588235 161.348108 
L 247.411765 161.348108 
L 247.411765 162.659189 
L 245.588235 162.659189 
L 245.588235 160.037027 
L 243.764706 160.037027 
L 245.588235 160.037027 
L 245.588235 158.725946 
L 249.235294 158.725946 
L 249.235294 157.414865 
L 249.235294 157.414865 
L 251.058824 157.414865 
L 251.058824 154.792703 
L 254.705882 154.792703 
L 251.058824 154.792703 
L 251.058824 152.170541 
L 251.058824 153.481622 
L 252.882353 153.481622 
L 252.882353 157.414865 
L 254.705882 157.414865 
L 254.705882 158.725946 
L 254.705882 157.414865 
L 258.352941 157.414865 
L 258.352941 154.792703 
L 256.529412 154.792703 
L 258.352941 154.792703 
L 258.352941 153.481622 
L 258.352941 154.792703 
L 254.705882 154.792703 
L 258.352941 154.792703 
L 258.352941 152.170541 
L 258.352941 157.414865 
L 256.529412 157.414865 
L 256.529412 158.725946 
L 258.352941 158.725946 
L 258.352941 156.103784 
L 262 156.103784 
L 262 154.792703 
L 260.176471 154.792703 
L 260.176471 157.414865 
L 263.823529 157.414865 
L 263.823529 160.037027 
L 263.823529 156.103784 
L 263.823529 158.725946 
L 265.647059 158.725946 
L 265.647059 157.414865 
L 263.823529 157.414865 
L 263.823529 161.348108 
L 262 161.348108 
L 262 160.037027 
L 260.176471 160.037027 
L 265.647059 160.037027 
L 263.823529 160.037027 
L 263.823529 158.725946 
L 263.823529 161.348108 
L 265.647059 161.348108 
L 262 161.348108 
L 262 160.037027 
L 262 161.348108 
L 263.823529 161.348108 
L 263.823529 162.659189 
L 260.176471 162.659189 
L 260.176471 160.037027 
L 260.176471 161.348108 
L 256.529412 161.348108 
L 256.529412 160.037027 
L 258.352941 160.037027 
L 258.352941 160.037027 
L 258.352941 162.659189 
L 256.529412 162.659189 
L 256.529412 163.97027 
L 258.352941 163.97027 
L 258.352941 165.281351 
L 260.176471 165.281351 
L 260.176471 166.592432 
L 260.176471 165.281351 
L 252.882353 165.281351 
L 252.882353 169.214595 
L 251.058824 169.214595 
L 251.058824 169.214595 
L 251.058824 167.903514 
L 249.235294 167.903514 
L 249.235294 166.592432 
L 243.764706 166.592432 
L 243.764706 165.281351 
L 243.764706 166.592432 
L 247.411765 166.592432 
L 247.411765 165.281351 
L 247.411765 166.592432 
L 249.235294 166.592432 
L 247.411765 166.592432 
L 247.411765 167.903514 
L 247.411765 165.281351 
L 249.235294 165.281351 
L 249.235294 165.281351 
" clip-path="url(#p55b8bc92ee)" style="fill: none; stroke: #ca9ee6; stroke-width: 0.75; stroke-linecap: square"/>
   </g>
   <g id="line2d_19">
    <path d="M 203.647059 120.704595 
L 203.647059 122.015676 
L 200 122.015676 
L 200 123.326757 
L 203.647059 123.326757 
L 201.823529 123.326757 
L 201.823529 122.015676 
L 200 122.015676 
L 201.823529 122.015676 
L 201.823529 120.704595 
L 203.647059 120.704595 
L 203.647059 122.015676 
L 203.647059 122.015676 
L 207.294118 122.015676 
L 207.294118 119.393514 
L 210.941176 119.393514 
L 207.294118 119.393514 
L 207.294118 120.704595 
L 207.294118 119.393514 
L 203.647059 119.393514 
L 203.647059 120.704595 
L 209.117647 120.704595 
L 205.470588 120.704595 
L 205.470588 124.637838 
L 207.294118 124.637838 
L 207.294118 123.326757 
L 203.647059 123.326757 
L 203.647059 122.015676 
L 196.352941 122.015676 
L 196.352941 123.326757 
L 194.529412 123.326757 
L 194.529412 122.015676 
L 194.529412 124.637838 
L 192.705882 124.637838 
L 194.529412 124.637838 
L 194.529412 127.26 
L 196.352941 127.26 
L 196.352941 131.193243 
L 196.352941 129.882162 
L 194.529412 129.882162 
L 194.529412 127.26 
L 194.529412 129.882162 
L 192.705882 129.882162 
L 192.705882 128.571081 
L 190.882353 128.571081 
L 190.882353 127.26 
L 185.411765 127.26 
L 185.411765 131.193243 
L 187.235294 131.193243 
L 187.235294 133.815405 
L 187.235294 132.504324 
L 185.411765 132.504324 
L 185.411765 131.193243 
L 185.411765 132.504324 
L 183.588235 132.504324 
L 187.235294 132.504324 
L 187.235294 131.193243 
L 181.764706 131.193243 
L 181.764706 129.882162 
L 181.764706 133.815405 
L 179.941176 133.815405 
L 181.764706 133.815405 
L 181.764706 135.126486 
L 179.941176 135.126486 
L 181.764706 135.126486 
L 181.764706 132.504324 
L 179.941176 132.504324 
L 179.941176 131.193243 
L 179.941176 132.504324 
L 181.764706 132.504324 
L 181.764706 133.815405 
L 183.588235 133.815405 
L 183.588235 135.126486 
L 185.411765 135.126486 
L 185.411765 136.437568 
L 187.235294 136.437568 
L 187.235294 137.748649 
L 187.235294 137.748649 
L 185.411765 137.748649 
L 185.411765 139.05973 
L 187.235294 139.05973 
L 187.235294 142.992973 
L 189.058824 142.992973 
L 189.058824 148.237297 
L 185.411765 148.237297 
L 185.411765 145.615135 
L 185.411765 146.926216 
L 183.588235 146.926216 
L 185.411765 146.926216 
L 185.411765 149.548378 
L 185.411765 148.237297 
L 181.764706 148.237297 
L 181.764706 150.859459 
L 185.411765 150.859459 
L 185.411765 152.170541 
L 189.058824 152.170541 
L 189.058824 152.170541 
L 189.058824 153.481622 
L 190.882353 153.481622 
L 190.882353 154.792703 
L 187.235294 154.792703 
L 187.235294 153.481622 
L 189.058824 153.481622 
L 185.411765 153.481622 
L 185.411765 156.103784 
L 185.411765 154.792703 
L 183.588235 154.792703 
L 183.588235 153.481622 
L 183.588235 156.103784 
L 181.764706 156.103784 
L 187.235294 156.103784 
L 187.235294 158.725946 
L 185.411765 158.725946 
L 185.411765 157.414865 
L 187.235294 157.414865 
L 187.235294 158.725946 
L 187.235294 157.414865 
L 185.411765 157.414865 
L 185.411765 158.725946 
L 185.411765 156.103784 
L 185.411765 157.414865 
L 187.235294 157.414865 
L 187.235294 158.725946 
L 189.058824 158.725946 
L 189.058824 157.414865 
L 189.058824 157.414865 
L 187.235294 157.414865 
L 187.235294 153.481622 
L 183.588235 153.481622 
L 183.588235 154.792703 
L 187.235294 154.792703 
L 187.235294 156.103784 
L 187.235294 154.792703 
L 192.705882 154.792703 
L 190.882353 154.792703 
L 190.882353 156.103784 
L 190.882353 156.103784 
L 194.529412 156.103784 
L 192.705882 156.103784 
L 192.705882 154.792703 
L 189.058824 154.792703 
L 189.058824 156.103784 
L 190.882353 156.103784 
L 190.882353 157.414865 
L 190.882353 157.414865 
L 194.529412 157.414865 
L 194.529412 156.103784 
L 190.882353 156.103784 
L 190.882353 154.792703 
L 190.882353 154.792703 
L 192.705882 154.792703 
L 192.705882 154.792703 
L 192.705882 156.103784 
L 192.705882 154.792703 
L 194.529412 154.792703 
L 194.529412 154.792703 
L 194.529412 156.103784 
L 192.705882 156.103784 
L 192.705882 165.281351 
L 196.352941 165.281351 
L 196.352941 166.592432 
L 198.176471 166.592432 
L 198.176471 167.903514 
L 200 167.903514 
L 200 169.214595 
L 200 167.903514 
L 198.176471 167.903514 
L 198.176471 173.147838 
L 200 173.147838 
L 200 177.081081 
L 200 175.77 
L 201.823529 175.77 
L 196.352941 175.77 
L 198.176471 175.77 
L 198.176471 174.458919 
L 196.352941 174.458919 
L 196.352941 175.77 
L 194.529412 175.77 
L 194.529412 174.458919 
L 196.352941 174.458919 
L 196.352941 175.77 
L 198.176471 175.77 
L 198.176471 177.081081 
L 200 177.081081 
L 200 178.392162 
L 198.176471 178.392162 
L 198.176471 175.77 
L 200 175.77 
L 200 174.458919 
L 200 177.081081 
L 201.823529 177.081081 
L 201.823529 175.77 
L 201.823529 178.392162 
L 203.647059 178.392162 
L 203.647059 179.703243 
L 205.470588 179.703243 
L 203.647059 179.703243 
L 203.647059 182.325405 
L 200 182.325405 
L 200 184.947568 
L 198.176471 184.947568 
L 198.176471 183.636486 
L 196.352941 183.636486 
L 196.352941 182.325405 
L 196.352941 183.636486 
L 198.176471 183.636486 
L 196.352941 183.636486 
L 196.352941 186.258649 
L 196.352941 184.947568 
L 194.529412 184.947568 
L 194.529412 186.258649 
L 192.705882 186.258649 
L 192.705882 188.880811 
L 192.705882 188.880811 
L 190.882353 188.880811 
L 192.705882 188.880811 
L 192.705882 187.56973 
L 190.882353 187.56973 
L 190.882353 190.191892 
L 194.529412 190.191892 
L 194.529412 192.814054 
L 192.705882 192.814054 
L 192.705882 195.436216 
L 190.882353 195.436216 
L 190.882353 195.436216 
L 190.882353 194.125135 
L 185.411765 194.125135 
L 187.235294 194.125135 
L 187.235294 195.436216 
L 187.235294 195.436216 
L 189.058824 195.436216 
L 185.411765 195.436216 
L 185.411765 194.125135 
L 185.411765 196.747297 
L 189.058824 196.747297 
L 187.235294 196.747297 
L 187.235294 198.058378 
L 185.411765 198.058378 
L 185.411765 203.302703 
L 187.235294 203.302703 
L 187.235294 205.924865 
L 189.058824 205.924865 
L 189.058824 207.235946 
L 190.882353 207.235946 
L 190.882353 205.924865 
L 189.058824 205.924865 
L 189.058824 207.235946 
L 190.882353 207.235946 
L 189.058824 207.235946 
L 189.058824 205.924865 
L 187.235294 205.924865 
L 187.235294 208.547027 
L 187.235294 207.235946 
L 183.588235 207.235946 
L 183.588235 205.924865 
L 185.411765 205.924865 
L 185.411765 205.924865 
L 185.411765 203.302703 
L 183.588235 203.302703 
L 183.588235 207.235946 
L 178.117647 207.235946 
L 181.764706 207.235946 
L 181.764706 203.302703 
L 179.941176 203.302703 
L 183.588235 203.302703 
L 181.764706 203.302703 
L 181.764706 204.613784 
L 185.411765 204.613784 
L 185.411765 205.924865 
L 187.235294 205.924865 
L 185.411765 205.924865 
L 185.411765 204.613784 
L 185.411765 207.235946 
L 185.411765 204.613784 
L 183.588235 204.613784 
L 185.411765 204.613784 
L 185.411765 203.302703 
L 183.588235 203.302703 
L 185.411765 203.302703 
L 185.411765 204.613784 
L 183.588235 204.613784 
L 183.588235 207.235946 
L 181.764706 207.235946 
L 183.588235 207.235946 
L 183.588235 209.858108 
L 183.588235 208.547027 
L 185.411765 208.547027 
L 185.411765 207.235946 
L 181.764706 207.235946 
L 181.764706 205.924865 
L 181.764706 207.235946 
L 179.941176 207.235946 
L 179.941176 205.924865 
L 176.294118 205.924865 
L 176.294118 204.613784 
L 183.588235 204.613784 
L 181.764706 204.613784 
L 181.764706 205.924865 
L 185.411765 205.924865 
L 185.411765 204.613784 
L 185.411765 205.924865 
L 183.588235 205.924865 
L 183.588235 207.235946 
L 183.588235 205.924865 
L 181.764706 205.924865 
L 183.588235 205.924865 
L 183.588235 207.235946 
L 181.764706 207.235946 
L 181.764706 205.924865 
L 183.588235 205.924865 
L 183.588235 203.302703 
L 185.411765 203.302703 
L 185.411765 201.991622 
L 185.411765 201.991622 
L 187.235294 201.991622 
L 185.411765 201.991622 
L 185.411765 199.369459 
L 189.058824 199.369459 
L 189.058824 200.680541 
L 190.882353 200.680541 
L 190.882353 201.991622 
L 190.882353 200.680541 
L 192.705882 200.680541 
L 192.705882 198.058378 
L 190.882353 198.058378 
L 192.705882 198.058378 
L 192.705882 200.680541 
L 192.705882 200.680541 
" clip-path="url(#p55b8bc92ee)" style="fill: none; stroke: #e5c890; stroke-width: 0.75; stroke-linecap: square"/>
   </g>
   <g id="line2d_20">
    <path d="M 203.647059 118.082432 
L 205.470588 118.082432 
L 201.823529 118.082432 
L 201.823529 120.704595 
L 203.647059 120.704595 
L 203.647059 122.015676 
L 205.470588 122.015676 
L 205.470588 123.326757 
L 201.823529 123.326757 
L 201.823529 122.015676 
L 201.823529 123.326757 
L 205.470588 123.326757 
L 205.470588 123.326757 
L 205.470588 122.015676 
L 203.647059 122.015676 
L 203.647059 125.948919 
L 201.823529 125.948919 
L 203.647059 125.948919 
L 203.647059 127.26 
L 205.470588 127.26 
L 203.647059 127.26 
L 203.647059 125.948919 
L 201.823529 125.948919 
L 201.823529 127.26 
L 198.176471 127.26 
L 198.176471 125.948919 
L 198.176471 128.571081 
L 200 128.571081 
L 200 127.26 
L 200 131.193243 
L 198.176471 131.193243 
L 198.176471 133.815405 
L 201.823529 133.815405 
L 194.529412 133.815405 
L 194.529412 135.126486 
L 192.705882 135.126486 
L 192.705882 133.815405 
L 190.882353 133.815405 
L 190.882353 135.126486 
L 190.882353 133.815405 
L 189.058824 133.815405 
L 189.058824 137.748649 
L 190.882353 137.748649 
L 190.882353 141.681892 
L 189.058824 141.681892 
L 190.882353 141.681892 
L 190.882353 142.992973 
L 194.529412 142.992973 
L 194.529412 141.681892 
L 196.352941 141.681892 
L 192.705882 141.681892 
L 192.705882 140.370811 
L 192.705882 141.681892 
L 187.235294 141.681892 
L 187.235294 146.926216 
L 189.058824 146.926216 
L 189.058824 148.237297 
L 185.411765 148.237297 
L 185.411765 146.926216 
L 183.588235 146.926216 
L 183.588235 149.548378 
L 181.764706 149.548378 
L 185.411765 149.548378 
L 185.411765 153.481622 
L 187.235294 153.481622 
L 187.235294 154.792703 
L 187.235294 153.481622 
L 189.058824 153.481622 
L 187.235294 153.481622 
L 187.235294 152.170541 
L 187.235294 156.103784 
L 187.235294 154.792703 
L 189.058824 154.792703 
L 189.058824 156.103784 
L 190.882353 156.103784 
L 190.882353 157.414865 
L 189.058824 157.414865 
L 189.058824 158.725946 
L 189.058824 157.414865 
L 187.235294 157.414865 
L 187.235294 158.725946 
L 187.235294 156.103784 
L 187.235294 156.103784 
L 185.411765 156.103784 
L 185.411765 154.792703 
L 183.588235 154.792703 
L 183.588235 154.792703 
L 183.588235 157.414865 
L 185.411765 157.414865 
L 185.411765 158.725946 
L 187.235294 158.725946 
L 187.235294 156.103784 
L 187.235294 157.414865 
L 183.588235 157.414865 
L 183.588235 154.792703 
L 185.411765 154.792703 
L 185.411765 152.170541 
L 185.411765 152.170541 
L 187.235294 152.170541 
L 187.235294 150.859459 
L 189.058824 150.859459 
L 189.058824 152.170541 
L 189.058824 149.548378 
L 190.882353 149.548378 
L 190.882353 148.237297 
L 192.705882 148.237297 
L 192.705882 149.548378 
L 192.705882 148.237297 
L 190.882353 148.237297 
L 190.882353 146.926216 
L 190.882353 148.237297 
L 192.705882 148.237297 
L 192.705882 152.170541 
L 192.705882 150.859459 
L 196.352941 150.859459 
L 196.352941 148.237297 
L 192.705882 148.237297 
L 192.705882 146.926216 
L 192.705882 150.859459 
L 192.705882 150.859459 
L 190.882353 150.859459 
L 190.882353 152.170541 
L 190.882353 152.170541 
L 189.058824 152.170541 
L 189.058824 153.481622 
L 187.235294 153.481622 
L 190.882353 153.481622 
L 189.058824 153.481622 
L 189.058824 154.792703 
L 187.235294 154.792703 
L 187.235294 153.481622 
L 189.058824 153.481622 
L 187.235294 153.481622 
L 187.235294 156.103784 
L 187.235294 152.170541 
L 185.411765 152.170541 
L 185.411765 153.481622 
L 187.235294 153.481622 
L 187.235294 152.170541 
L 187.235294 153.481622 
L 185.411765 153.481622 
L 185.411765 152.170541 
L 183.588235 152.170541 
L 183.588235 153.481622 
L 185.411765 153.481622 
L 181.764706 153.481622 
L 181.764706 156.103784 
L 183.588235 156.103784 
L 183.588235 157.414865 
L 183.588235 156.103784 
L 181.764706 156.103784 
L 181.764706 157.414865 
L 178.117647 157.414865 
L 178.117647 154.792703 
L 178.117647 156.103784 
L 183.588235 156.103784 
L 181.764706 156.103784 
L 181.764706 157.414865 
L 183.588235 157.414865 
L 183.588235 157.414865 
L 183.588235 158.725946 
L 181.764706 158.725946 
L 183.588235 158.725946 
L 183.588235 165.281351 
L 179.941176 165.281351 
L 181.764706 165.281351 
L 181.764706 163.97027 
L 178.117647 163.97027 
L 178.117647 165.281351 
L 178.117647 163.97027 
L 176.294118 163.97027 
L 176.294118 165.281351 
L 174.470588 165.281351 
L 174.470588 163.97027 
L 174.470588 167.903514 
L 172.647059 167.903514 
L 176.294118 167.903514 
L 174.470588 167.903514 
L 174.470588 169.214595 
L 176.294118 169.214595 
L 176.294118 166.592432 
L 174.470588 166.592432 
L 174.470588 163.97027 
L 170.823529 163.97027 
L 170.823529 166.592432 
L 167.176471 166.592432 
L 167.176471 167.903514 
L 165.352941 167.903514 
L 165.352941 170.525676 
L 172.647059 170.525676 
L 167.176471 170.525676 
L 167.176471 167.903514 
L 167.176471 170.525676 
L 169 170.525676 
L 169 171.836757 
L 170.823529 171.836757 
L 170.823529 175.77 
L 167.176471 175.77 
L 167.176471 174.458919 
L 167.176471 175.77 
L 165.352941 175.77 
L 165.352941 177.081081 
L 163.529412 177.081081 
L 163.529412 175.77 
L 165.352941 175.77 
L 165.352941 173.147838 
L 167.176471 173.147838 
L 167.176471 174.458919 
L 169 174.458919 
L 167.176471 174.458919 
L 167.176471 173.147838 
L 169 173.147838 
L 169 171.836757 
L 170.823529 171.836757 
L 170.823529 173.147838 
L 169 173.147838 
L 169 175.77 
L 167.176471 175.77 
L 167.176471 174.458919 
L 169 174.458919 
L 169 173.147838 
L 169 174.458919 
L 172.647059 174.458919 
L 172.647059 174.458919 
L 172.647059 173.147838 
L 174.470588 173.147838 
L 174.470588 174.458919 
L 174.470588 170.525676 
L 176.294118 170.525676 
L 176.294118 171.836757 
L 176.294118 169.214595 
L 176.294118 170.525676 
L 178.117647 170.525676 
L 178.117647 173.147838 
L 179.941176 173.147838 
L 179.941176 173.147838 
L 179.941176 171.836757 
L 179.941176 173.147838 
L 181.764706 173.147838 
L 181.764706 174.458919 
L 183.588235 174.458919 
L 183.588235 175.77 
L 183.588235 175.77 
L 187.235294 175.77 
L 187.235294 177.081081 
L 190.882353 177.081081 
L 190.882353 178.392162 
L 196.352941 178.392162 
L 196.352941 177.081081 
L 196.352941 179.703243 
L 198.176471 179.703243 
L 198.176471 177.081081 
L 196.352941 177.081081 
L 196.352941 173.147838 
L 196.352941 177.081081 
L 203.647059 177.081081 
L 201.823529 177.081081 
L 201.823529 178.392162 
L 201.823529 175.77 
L 200 175.77 
L 200 174.458919 
L 198.176471 174.458919 
L 198.176471 175.77 
L 201.823529 175.77 
L 201.823529 177.081081 
L 200 177.081081 
L 200 173.147838 
L 201.823529 173.147838 
L 198.176471 173.147838 
L 200 173.147838 
L 200 171.836757 
L 200 173.147838 
L 198.176471 173.147838 
L 198.176471 170.525676 
L 196.352941 170.525676 
L 196.352941 171.836757 
L 194.529412 171.836757 
L 194.529412 173.147838 
L 194.529412 169.214595 
L 192.705882 169.214595 
L 192.705882 167.903514 
L 196.352941 167.903514 
L 196.352941 166.592432 
L 200 166.592432 
L 200 166.592432 
L 200 165.281351 
L 200 166.592432 
L 198.176471 166.592432 
L 198.176471 169.214595 
L 196.352941 169.214595 
L 196.352941 170.525676 
L 196.352941 170.525676 
L 198.176471 170.525676 
L 198.176471 173.147838 
L 196.352941 173.147838 
L 196.352941 171.836757 
L 192.705882 171.836757 
L 192.705882 174.458919 
L 190.882353 174.458919 
L 192.705882 174.458919 
L 192.705882 173.147838 
L 192.705882 173.147838 
L 196.352941 173.147838 
L 194.529412 173.147838 
L 194.529412 174.458919 
L 192.705882 174.458919 
L 196.352941 174.458919 
L 196.352941 175.77 
L 192.705882 175.77 
L 194.529412 175.77 
L 194.529412 179.703243 
L 196.352941 179.703243 
L 196.352941 181.014324 
L 194.529412 181.014324 
L 194.529412 184.947568 
L 194.529412 184.947568 
L 189.058824 184.947568 
L 189.058824 183.636486 
L 187.235294 183.636486 
L 187.235294 182.325405 
L 189.058824 182.325405 
L 189.058824 187.56973 
L 189.058824 187.56973 
" clip-path="url(#p55b8bc92ee)" style="fill: none; stroke: #a6d189; stroke-width: 0.75; stroke-linecap: square"/>
   </g>
   <g id="patch_3">
    <path d="M 45 224.28 
L 45 30.24 
" style="fill: none; stroke: #c6ceef; stroke-width: 0.8; stroke-linejoin: miter; stroke-linecap: square"/>
   </g>
   <g id="patch_4">
    <path d="M 324 224.28 
L 324 30.24 
" style="fill: none; stroke: #c6ceef; stroke-width: 0.8; stroke-linejoin: miter; stroke-linecap: square"/>
   </g>
   <g id="patch_5">
    <path d="M 45 224.28 
L 324 224.28 
" style="fill: none; stroke: #c6ceef; stroke-width: 0.8; stroke-linejoin: miter; stroke-linecap: square"/>
   </g>
   <g id="patch_6">
    <path d="M 45 30.24 
L 324 30.24 
" style="fill: none; stroke: #c6ceef; stroke-width: 0.8; stroke-linejoin: miter; stroke-linecap: square"/>
   </g>
   <g id="legend_1">
    <g id="patch_7">
     <path d="M 254.281789 93.988713 
L 317 93.988713 
Q 319 93.988713 319 91.988713 
L 319 37.24 
Q 319 35.24 317 35.24 
L 254.281789 35.24 
Q 252.281789 35.24 252.281789 37.24 
L 252.281789 91.988713 
Q 252.281789 93.988713 254.281789 93.988713 
z
" style="fill: #1e1e2e; opacity: 0.8; stroke: #c6ceef; stroke-linejoin: miter"/>
    </g>
    <g id="line2d_21">
     <path d="M 256.281789 42.74 
L 266.281789 42.74 
L 276.281789 42.74 
" style="fill: none; stroke: #eebebe; stroke-width: 0.75; stroke-linecap: square"/>
    </g>
    <g id="text_17">
     <!-- Walk 1 -->
     <g style="fill: #c6ceef" transform="translate(284.281789 46.24)scale(0.1 -0.1)">
      <defs>
       <path id="CMR17-57" d="M 5523 3775 
C 5581 3948 5677 4173 6048 4185 
L 6048 4352 
C 5939 4345 5715 4339 5600 4339 
C 5440 4339 5158 4339 5005 4352 
L 5005 4185 
C 5293 4179 5414 4019 5414 3865 
C 5414 3820 5408 3794 5382 3724 
L 4390 557 
L 3347 3890 
C 3328 3955 3322 3980 3322 4006 
C 3322 4185 3603 4185 3725 4185 
L 3725 4352 
C 3539 4339 3219 4339 3021 4339 
C 2861 4339 2573 4339 2426 4352 
L 2426 4185 
C 2720 4185 2797 4166 2861 4051 
C 2886 3993 2989 3660 2989 3640 
C 2989 3615 2976 3576 2970 3557 
L 2029 564 
L 986 3890 
C 954 3980 954 3993 954 4006 
C 954 4185 1235 4185 1363 4185 
L 1363 4352 
C 1178 4339 858 4339 659 4339 
C 493 4339 211 4339 58 4352 
L 58 4185 
C 442 4185 467 4147 531 3942 
L 1779 -20 
C 1811 -116 1811 -128 1869 -128 
C 1920 -128 1939 -116 1965 -26 
L 3053 3448 
L 4141 -26 
C 4166 -116 4186 -128 4237 -128 
C 4294 -128 4294 -116 4326 -20 
L 5523 3775 
z
" transform="scale(0.015625)"/>
       <path id="CMR17-61" d="M 2304 1656 
C 2304 2048 2304 2275 2035 2534 
C 1798 2751 1523 2816 1306 2816 
C 800 2816 435 2408 435 1977 
C 435 1740 627 1728 666 1728 
C 749 1728 896 1779 896 1958 
C 896 2118 774 2188 666 2188 
C 640 2188 608 2182 589 2176 
C 723 2594 1069 2713 1293 2713 
C 1613 2713 1965 2421 1965 1875 
L 1965 1632 
C 1587 1619 1133 1568 774 1373 
C 371 1147 256 822 256 576 
C 256 77 832 -64 1171 -64 
C 1523 -64 1850 135 1990 505 
C 2003 219 2182 -39 2464 -39 
C 2598 -39 2938 51 2938 563 
L 2938 926 
L 2822 926 
L 2822 557 
C 2822 161 2650 109 2566 109 
C 2304 109 2304 446 2304 732 
L 2304 1656 
z
M 1965 887 
C 1965 323 1568 38 1216 38 
C 896 38 646 278 646 576 
C 646 771 730 1114 1101 1322 
C 1408 1497 1760 1523 1965 1536 
L 1965 887 
z
" transform="scale(0.015625)"/>
       <path id="CMR17-6c" d="M 979 4416 
L 218 4345 
L 218 4179 
C 595 4179 653 4141 653 3835 
L 653 439 
C 653 198 627 166 218 166 
L 218 0 
C 371 12 653 12 813 12 
C 979 12 1261 12 1414 0 
L 1414 166 
C 1005 166 979 191 979 439 
L 979 4416 
z
" transform="scale(0.015625)"/>
       <path id="CMR17-6b" d="M 1670 1679 
C 1664 1692 1632 1730 1632 1749 
C 1632 1762 2086 2175 2144 2226 
C 2509 2532 2739 2563 2906 2570 
L 2906 2735 
C 2867 2735 2854 2735 2848 2729 
L 2534 2722 
C 2355 2722 2080 2722 1907 2735 
L 1907 2570 
C 1997 2563 2061 2513 2061 2423 
C 2061 2296 1933 2175 1926 2175 
L 960 1298 
L 960 4416 
L 198 4345 
L 198 4179 
C 576 4179 634 4141 634 3835 
L 634 439 
C 634 198 608 166 198 166 
L 198 0 
C 352 12 634 12 794 12 
C 954 12 1235 12 1389 0 
L 1389 166 
C 979 166 954 191 954 439 
L 954 1139 
L 1395 1540 
L 2042 586 
C 2118 471 2182 382 2182 299 
C 2182 185 2067 166 1990 166 
L 1990 0 
C 2144 12 2419 12 2579 12 
C 2694 12 2931 6 3040 0 
L 3040 166 
C 2739 166 2669 223 2477 503 
L 1670 1679 
z
" transform="scale(0.015625)"/>
       <path id="CMR17-31" d="M 1702 4083 
C 1702 4217 1696 4224 1606 4224 
C 1357 3927 979 3833 621 3820 
C 602 3820 570 3820 563 3808 
C 557 3795 557 3782 557 3648 
C 755 3648 1088 3686 1344 3839 
L 1344 467 
C 1344 243 1331 166 781 166 
L 589 166 
L 589 0 
C 896 6 1216 12 1523 12 
C 1830 12 2150 6 2458 0 
L 2458 166 
L 2266 166 
C 1715 166 1702 236 1702 467 
L 1702 4083 
z
" transform="scale(0.015625)"/>
      </defs>
      <use xlink:href="#CMR17-57" transform="scale(0.996264)"/>
      <use xlink:href="#CMR17-61" transform="translate(87.289395 0)scale(0.996264)"/>
      <use xlink:href="#CMR17-6c" transform="translate(132.979872 0)scale(0.996264)"/>
      <use xlink:href="#CMR17-6b" transform="translate(157.85093 0)scale(0.996264)"/>
      <use xlink:href="#CMR17-31" transform="translate(236.219812 0)scale(0.996264)"/>
     </g>
    </g>
    <g id="line2d_22">
     <path d="M 256.281789 56.677178 
L 266.281789 56.677178 
L 276.281789 56.677178 
" style="fill: none; stroke: #ca9ee6; stroke-width: 0.75; stroke-linecap: square"/>
    </g>
    <g id="text_18">
     <!-- Walk 2 -->
     <g style="fill: #c6ceef" transform="translate(284.281789 60.177178)scale(0.1 -0.1)">
      <use xlink:href="#CMR17-57" transform="scale(0.996264)"/>
      <use xlink:href="#CMR17-61" transform="translate(87.289395 0)scale(0.996264)"/>
      <use xlink:href="#CMR17-6c" transform="translate(132.979872 0)scale(0.996264)"/>
      <use xlink:href="#CMR17-6b" transform="translate(157.85093 0)scale(0.996264)"/>
      <use xlink:href="#CMR17-32" transform="translate(236.219812 0)scale(0.996264)"/>
     </g>
    </g>
    <g id="line2d_23">
     <path d="M 256.281789 70.614357 
L 266.281789 70.614357 
L 276.281789 70.614357 
" style="fill: none; stroke: #e5c890; stroke-width: 0.75; stroke-linecap: square"/>
    </g>
    <g id="text_19">
     <!-- Walk 3 -->
     <g style="fill: #c6ceef" transform="translate(284.281789 74.114357)scale(0.1 -0.1)">
      <defs>
       <path id="CMR17-33" d="M 1414 2176 
C 1984 2176 2234 1673 2234 1094 
C 2234 322 1824 25 1453 25 
C 1114 25 563 193 390 691 
C 422 678 454 678 486 678 
C 640 678 755 780 755 947 
C 755 1132 614 1216 486 1216 
C 378 1216 211 1164 211 927 
C 211 335 787 -128 1466 -128 
C 2176 -128 2720 432 2720 1087 
C 2720 1718 2208 2176 1600 2246 
C 2086 2347 2554 2776 2554 3353 
C 2554 3856 2048 4224 1472 4224 
C 890 4224 378 3862 378 3347 
C 378 3123 544 3084 627 3084 
C 762 3084 877 3167 877 3334 
C 877 3500 762 3584 627 3584 
C 602 3584 570 3584 544 3571 
C 730 3999 1235 4076 1459 4076 
C 1683 4076 2106 3966 2106 3347 
C 2106 3167 2080 2851 1862 2574 
C 1670 2329 1453 2316 1242 2297 
C 1210 2297 1062 2284 1037 2284 
C 992 2278 966 2272 966 2227 
C 966 2182 973 2176 1101 2176 
L 1414 2176 
z
" transform="scale(0.015625)"/>
      </defs>
      <use xlink:href="#CMR17-57" transform="scale(0.996264)"/>
      <use xlink:href="#CMR17-61" transform="translate(87.289395 0)scale(0.996264)"/>
      <use xlink:href="#CMR17-6c" transform="translate(132.979872 0)scale(0.996264)"/>
      <use xlink:href="#CMR17-6b" transform="translate(157.85093 0)scale(0.996264)"/>
      <use xlink:href="#CMR17-33" transform="translate(236.219812 0)scale(0.996264)"/>
     </g>
    </g>
    <g id="line2d_24">
     <path d="M 256.281789 84.551535 
L 266.281789 84.551535 
L 276.281789 84.551535 
" style="fill: none; stroke: #a6d189; stroke-width: 0.75; stroke-linecap: square"/>
    </g>
    <g id="text_20">
     <!-- Walk 4 -->
     <g style="fill: #c6ceef" transform="translate(284.281789 88.051535)scale(0.1 -0.1)">
      <use xlink:href="#CMR17-57" transform="scale(0.996264)"/>
      <use xlink:href="#CMR17-61" transform="translate(87.289395 0)scale(0.996264)"/>
      <use xlink:href="#CMR17-6c" transform="translate(132.979872 0)scale(0.996264)"/>
      <use xlink:href="#CMR17-6b" transform="translate(157.85093 0)scale(0.996264)"/>
      <use xlink:href="#CMR17-34" transform="translate(236.219812 0)scale(0.996264)"/>
     </g>
    </g>
   </g>
  </g>
 </g>
 <defs>
  <clipPath id="p55b8bc92ee">
   <rect x="45" y="30.24" width="279" height="194.04"/>
  </clipPath>
 </defs>
</svg>
